{"glyphs":{"0":{"ha":925,"x_min":126,"x_max":824,"o":"m 536 979 q 619 952 581 974 q 690 899 658 931 q 760 810 732 858 q 808 708 788 763 q 823 635 822 672 q 817 564 824 599 q 798 490 811 526 q 757 422 785 453 q 741 402 747 413 q 733 376 735 392 q 729 360 733 368 q 714 349 725 353 q 678 330 696 340 q 642 311 661 319 q 622 307 632 306 q 611 322 613 308 q 594 367 611 350 q 565 404 576 383 q 517 487 544 447 q 465 568 489 526 q 367 742 415 654 q 265 921 318 829 q 303 935 285 929 q 336 951 321 942 q 434 983 383 979 q 536 979 485 986 m 128 501 q 135 524 129 513 q 147 546 142 536 q 180 603 163 575 q 215 663 197 632 q 207 667 213 665 q 193 671 201 668 q 203 683 200 678 q 213 689 207 688 q 257 713 235 701 q 301 738 279 725 q 322 747 313 744 q 343 738 332 750 q 352 716 354 726 q 340 694 350 706 q 338 691 339 693 q 335 683 338 689 q 366 633 350 660 q 399 581 382 607 q 522 386 460 483 q 646 190 585 289 q 651 178 649 185 q 657 165 654 172 q 669 148 663 157 q 686 125 676 139 q 683 117 685 124 q 675 106 682 110 q 645 89 661 96 q 614 75 629 82 q 583 63 599 68 q 553 51 568 58 q 544 50 549 50 q 533 50 539 50 l 499 50 q 333 90 404 47 q 206 203 263 133 q 163 268 182 235 q 131 339 143 301 q 126 354 126 346 q 126 427 126 390 q 128 501 126 464 z "},"1":{"ha":738,"x_min":114,"x_max":544,"o":"m 503 1032 q 537 971 529 1001 q 536 897 544 940 l 119 897 q 117 953 119 925 q 122 1006 114 982 q 148 1042 129 1026 q 183 1075 167 1058 q 188 1077 185 1078 q 193 1078 192 1076 q 260 1113 222 1114 q 333 1111 297 1113 q 393 1112 372 1111 q 426 1108 414 1113 q 456 1085 439 1103 q 503 1032 472 1068 m 540 428 q 537 405 540 417 q 531 382 533 393 q 523 340 525 361 q 531 300 521 319 q 537 276 536 288 q 528 251 538 265 q 521 230 522 243 q 519 206 519 217 l 519 -93 l 242 -93 q 241 -2 242 -46 q 242 86 240 42 q 247 242 244 164 q 251 396 250 319 q 252 591 253 493 q 251 786 251 689 q 257 853 253 833 q 281 876 261 872 q 346 881 300 881 q 415 881 381 881 q 485 881 450 882 q 511 879 497 881 q 540 875 525 878 l 540 814 q 541 620 540 717 q 540 428 542 524 z "},"2":{"ha":815,"x_min":115,"x_max":760,"o":"m 293 772 q 207 776 250 775 q 115 778 164 776 q 130 833 133 806 q 129 885 126 860 q 131 890 131 888 q 132 894 131 893 q 182 962 158 928 q 232 1026 206 996 q 306 1081 264 1063 q 397 1100 349 1099 q 439 1100 418 1101 q 481 1100 460 1099 q 611 1072 556 1104 q 703 988 667 1039 q 753 882 739 936 q 757 831 760 858 q 754 785 754 804 q 726 751 739 764 q 707 722 714 738 q 629 592 668 657 q 553 461 590 526 q 488 351 519 407 q 425 240 457 296 q 417 226 421 235 q 407 208 413 218 q 463 199 435 199 q 517 201 490 200 q 565 192 543 201 q 615 182 590 182 q 665 182 640 182 q 708 169 689 182 l 708 -62 q 682 -65 694 -64 q 658 -65 669 -67 q 580 -59 619 -62 q 501 -54 540 -56 q 450 -51 475 -51 q 401 -50 425 -51 q 388 -51 394 -50 q 376 -50 382 -51 q 256 -33 317 -35 q 133 -31 194 -32 q 129 -29 132 -31 q 124 -26 126 -28 l 124 207 q 161 228 147 211 q 186 267 175 246 q 325 514 256 390 q 467 764 394 638 q 378 769 421 767 q 293 772 336 771 z "},"3":{"ha":822,"x_min":132,"x_max":697,"o":"m 324 524 q 318 535 318 535 q 329 650 333 592 q 329 764 325 708 q 335 894 333 829 q 338 1026 336 960 q 340 1062 339 1044 q 342 1096 340 1079 q 363 1122 344 1114 q 400 1124 381 1131 q 430 1114 415 1119 q 460 1106 444 1108 q 591 1042 538 1089 q 678 926 644 996 q 683 893 683 911 q 683 732 685 814 q 675 697 683 713 q 584 594 642 636 q 458 533 526 551 q 324 524 390 514 m 299 1101 l 299 982 q 298 929 299 956 q 299 876 297 903 q 302 844 300 860 q 306 808 304 828 q 222 812 265 810 q 132 815 178 814 l 132 1103 q 204 1114 160 1114 q 299 1101 249 1114 m 572 -12 q 447 -67 514 -56 q 310 -67 381 -78 q 324 219 317 76 q 339 508 332 363 q 440 501 393 514 q 528 465 486 489 q 653 343 607 421 q 676 293 668 318 q 685 239 685 268 q 684 222 685 229 q 685 204 683 214 q 661 78 697 129 q 572 -12 625 26 m 133 -69 l 133 231 l 263 231 q 268 229 265 231 q 276 225 271 228 l 276 -69 q 206 -72 240 -72 q 133 -69 171 -71 z "},"4":{"ha":911,"x_min":94,"x_max":783,"o":"m 100 619 q 101 665 100 642 q 100 711 101 689 q 116 813 94 768 q 171 900 138 858 q 283 999 219 961 q 418 1063 346 1036 q 503 1076 461 1078 q 592 1075 546 1074 q 587 1019 589 1046 q 583 965 585 993 q 581 923 582 944 q 578 879 579 901 q 572 788 575 833 q 569 699 569 743 q 572 607 569 653 q 576 515 575 561 q 576 481 578 499 q 572 446 574 464 q 572 422 571 433 q 576 399 574 411 q 583 358 583 379 q 582 314 583 336 q 576 296 582 304 q 565 276 571 288 q 554 188 560 233 q 544 96 549 142 q 538 4 540 50 q 531 -87 535 -42 q 481 -94 517 -92 q 404 -95 444 -96 q 336 -90 364 -94 q 340 -28 338 -58 q 342 33 342 3 q 342 99 343 65 q 343 163 342 132 q 349 226 346 194 q 357 292 353 258 l 460 292 q 383 322 419 308 q 310 354 346 336 q 104 586 157 424 q 100 619 100 601 m 608 547 q 609 620 610 583 q 600 692 608 657 l 631 689 l 783 689 l 783 296 q 751 287 769 283 q 717 290 733 290 q 652 291 672 290 q 626 299 632 292 q 620 326 621 306 q 613 385 619 346 q 607 466 606 425 q 608 547 608 507 z "},"5":{"ha":803,"x_min":174,"x_max":647,"o":"m 383 707 l 383 1108 l 518 1108 q 533 913 522 1011 q 538 715 543 815 q 460 712 499 714 q 383 707 422 710 m 392 440 q 465 424 432 439 q 529 385 499 408 q 592 325 565 358 q 633 250 619 292 q 640 228 638 240 q 643 204 642 215 q 644 180 646 193 q 644 156 643 167 q 631 60 647 104 q 583 -21 615 15 q 485 -99 542 -74 q 358 -126 428 -124 q 355 -55 351 -90 q 356 14 358 -19 q 353 85 353 50 q 353 156 354 121 q 353 224 353 190 q 351 293 353 258 q 349 365 350 329 q 344 435 347 400 q 260 439 303 439 q 217 436 238 440 q 174 439 196 432 l 174 1093 q 190 1096 182 1094 q 204 1097 197 1097 q 274 1098 240 1099 q 344 1097 308 1097 q 351 1043 349 1071 q 349 986 354 1015 q 349 969 347 978 q 350 950 350 960 l 350 907 q 351 871 350 889 q 351 836 351 853 l 351 765 q 349 673 350 719 q 347 579 349 626 l 347 447 q 369 443 358 446 q 392 440 381 440 m 181 194 q 192 200 188 197 q 203 204 197 203 l 201 203 l 326 203 q 329 159 328 181 q 331 117 331 138 l 331 -81 q 328 -110 331 -96 q 315 -133 326 -125 q 276 -137 294 -135 q 247 -140 261 -139 q 217 -139 232 -140 q 189 -106 189 -136 q 181 194 185 43 z "},"6":{"ha":1208,"x_min":118,"x_max":1100,"o":"m 1064 367 q 1076 339 1067 353 q 1092 310 1086 325 q 1096 282 1100 293 q 1063 185 1085 231 q 1001 103 1040 139 q 951 64 979 81 q 892 36 922 47 q 812 15 853 22 q 728 15 771 8 q 726 29 726 22 q 725 43 725 36 q 718 44 722 44 q 685 38 701 39 q 650 40 668 38 q 608 46 629 46 q 565 47 588 46 q 481 68 519 50 q 413 98 446 83 q 347 131 379 113 q 246 217 288 167 q 174 329 204 268 q 142 417 154 372 q 125 510 131 463 q 151 660 118 586 q 206 758 174 713 q 281 838 238 803 q 331 876 304 857 q 383 908 357 894 q 667 972 515 981 q 688 965 683 971 q 694 942 693 960 q 697 894 696 918 q 697 844 697 869 q 703 695 700 771 q 703 544 706 619 q 710 435 701 489 q 715 325 718 381 q 713 280 714 303 q 724 236 711 257 q 736 404 731 319 q 747 574 742 489 q 817 571 783 578 q 883 553 851 564 q 930 531 907 543 q 971 500 953 519 q 1028 441 999 471 q 1064 367 1057 411 z "},"7":{"ha":889,"x_min":128,"x_max":728,"o":"m 154 1128 q 242 1129 199 1126 q 328 1117 285 1132 q 355 1102 347 1111 q 360 1074 363 1093 q 346 876 354 975 q 329 678 338 778 q 319 635 328 643 q 274 629 311 628 q 203 635 239 632 q 128 643 168 639 q 131 735 131 690 q 136 824 131 779 q 144 901 143 863 q 146 979 144 940 q 151 1051 149 1014 q 154 1128 153 1088 m 700 636 q 719 633 710 636 q 721 615 728 631 q 701 498 699 558 q 697 378 703 438 q 703 313 711 346 q 696 249 694 281 q 693 85 697 167 q 686 -76 689 3 q 678 -113 685 -106 q 643 -119 671 -121 q 606 -123 625 -119 q 575 -112 588 -126 q 508 -122 542 -124 q 442 -118 475 -121 q 375 -124 410 -115 q 379 3 378 -57 q 382 122 381 63 q 385 145 382 133 q 390 167 389 157 q 385 191 389 179 q 382 214 382 203 q 385 319 383 267 q 389 422 388 371 q 392 591 392 507 q 399 760 393 675 q 405 913 404 838 q 406 1065 406 989 q 406 1080 406 1072 q 408 1097 407 1088 q 424 1101 415 1100 q 440 1103 432 1103 l 688 1103 q 717 1097 713 1103 q 718 1067 721 1092 q 714 918 714 992 q 713 858 714 888 q 713 799 711 829 q 708 718 714 758 q 700 636 703 678 z "},"8":{"ha":925,"x_min":115,"x_max":822,"o":"m 313 1081 q 377 1103 344 1096 q 449 1100 410 1111 q 438 817 440 960 q 446 532 436 675 q 352 535 394 521 q 271 574 310 550 q 153 726 178 635 q 158 914 128 818 q 217 1013 175 972 q 313 1081 258 1053 m 635 553 q 504 542 578 526 q 505 614 504 578 q 504 685 506 650 q 498 851 501 768 q 492 1018 494 935 q 492 1043 492 1031 q 490 1067 492 1056 q 511 1101 489 1092 q 549 1096 531 1097 q 585 1088 567 1094 q 678 1044 636 1072 q 747 968 721 1015 q 783 883 771 926 q 797 792 796 839 q 792 751 797 772 q 779 711 786 731 q 724 618 760 658 q 635 553 688 578 m 124 96 q 119 151 115 122 q 119 210 122 181 q 128 294 115 254 q 163 368 140 333 q 216 428 186 401 q 285 474 246 456 q 295 477 289 476 q 306 481 301 478 q 369 515 333 517 q 440 506 406 513 q 447 363 443 433 q 451 222 451 292 q 453 58 454 140 q 451 -107 451 -25 q 346 -109 396 -117 q 249 -71 296 -101 q 169 2 199 -40 q 124 96 140 44 m 729 -26 q 652 -83 697 -68 q 558 -106 607 -99 q 551 -106 556 -106 q 544 -104 547 -106 q 524 -93 540 -101 l 524 321 q 521 380 524 350 q 515 439 518 410 q 515 458 514 449 q 518 481 517 468 q 594 474 558 485 q 663 446 629 464 q 751 381 714 421 q 810 289 788 342 q 810 287 810 288 q 811 285 811 286 q 818 178 814 232 q 796 75 822 125 q 765 22 782 47 q 729 -26 749 -3 z "},"9":{"ha":1188,"x_min":103,"x_max":1064,"o":"m 979 814 q 1007 765 996 792 q 1031 711 1018 738 q 1062 570 1064 643 q 1056 425 1060 497 q 1031 323 1054 372 q 979 228 1007 274 q 942 172 961 200 q 903 119 924 144 q 828 52 869 79 q 738 7 786 25 q 665 -17 701 -3 q 588 -26 629 -31 q 556 -22 572 -24 q 522 -18 540 -19 l 522 67 q 524 212 522 139 q 524 357 526 285 q 517 574 522 465 q 510 792 513 683 q 508 897 508 844 q 507 1001 508 950 l 507 1006 q 509 1046 507 1035 q 524 1058 511 1057 q 564 1056 536 1058 q 798 980 694 1042 q 979 814 901 918 m 129 553 q 105 660 107 606 q 113 767 103 715 q 174 910 126 849 q 301 1007 222 972 q 319 1017 311 1011 q 333 1028 328 1022 q 371 1049 356 1044 q 410 1051 386 1054 q 440 1047 425 1050 q 468 1042 454 1044 q 475 945 471 992 q 481 853 479 899 q 483 730 483 792 q 482 607 482 668 q 482 489 482 549 q 481 371 482 429 q 481 360 481 365 q 478 344 481 354 q 369 353 422 344 q 268 390 317 363 q 215 431 242 407 q 165 487 185 456 q 129 553 144 518 z "},"A":{"ha":899,"x_min":143,"x_max":743,"o":"m 522 -92 q 506 -86 510 -92 q 499 -68 501 -81 q 497 44 499 -12 q 492 156 494 101 l 492 322 l 410 322 q 408 288 408 304 q 408 254 408 271 q 406 187 407 221 q 403 118 406 153 q 400 33 401 76 q 396 -54 399 -10 q 392 -76 396 -71 q 368 -82 388 -82 q 337 -86 353 -83 q 307 -76 321 -89 q 301 -78 306 -75 q 293 -79 296 -81 q 278 -78 286 -79 q 263 -75 271 -76 q 208 -83 236 -85 q 147 -79 179 -81 l 147 -28 q 147 58 150 15 q 157 140 143 100 q 160 154 160 144 q 158 213 160 185 q 157 271 157 242 q 161 417 161 346 q 167 543 165 481 q 168 669 168 606 q 171 767 171 718 q 171 864 171 815 q 167 900 169 882 q 168 938 165 918 q 207 1035 181 992 q 279 1108 233 1078 q 317 1133 299 1121 q 358 1150 336 1144 q 365 1153 361 1150 q 375 1156 369 1156 q 453 1157 414 1156 q 532 1153 493 1158 q 572 1140 551 1151 q 607 1115 592 1128 q 673 1043 647 1085 q 717 956 699 1001 q 724 899 711 926 q 743 843 736 871 l 743 -93 l 590 -93 q 556 -92 572 -93 q 522 -92 540 -92 m 492 585 q 493 662 489 625 q 494 736 497 699 q 494 809 492 772 q 490 883 497 846 q 458 881 474 882 q 426 879 442 881 q 422 732 425 806 q 417 585 419 658 l 492 585 z "},"B":{"ha":999,"x_min":132,"x_max":796,"o":"m 174 -64 q 140 -56 146 -64 q 135 -21 135 -49 q 135 95 135 36 q 135 213 136 154 l 135 1022 q 133 1083 135 1053 q 149 1149 132 1114 q 217 1147 182 1149 q 285 1144 251 1144 q 394 1149 339 1144 q 429 1142 421 1149 q 438 1108 438 1136 q 435 1074 438 1090 q 429 1039 432 1057 q 428 1019 429 1029 q 429 1001 428 1010 q 439 819 442 910 q 438 638 436 729 q 439 458 439 549 q 439 278 439 368 q 439 185 439 232 q 438 94 439 139 q 432 25 436 60 q 425 -43 428 -10 q 419 -72 424 -67 q 390 -75 414 -76 q 340 -71 365 -72 q 289 -68 314 -69 q 231 -65 261 -65 q 174 -64 201 -65 m 460 1146 q 488 1147 475 1146 q 510 1146 500 1149 q 667 1081 600 1129 q 769 949 733 1032 q 794 855 792 904 q 785 757 796 806 q 749 667 772 708 q 693 588 725 625 q 642 545 671 561 q 581 515 614 529 q 597 505 589 510 q 613 496 604 500 q 715 428 674 472 q 779 322 756 383 q 793 244 793 286 q 792 204 793 224 q 793 163 792 185 q 791 122 796 142 q 775 81 786 101 q 704 -14 749 25 q 603 -81 660 -53 q 589 -82 601 -82 l 486 -82 q 485 -64 486 -74 q 483 -44 483 -54 q 485 86 483 19 q 483 217 486 153 q 478 324 482 269 q 469 431 474 378 q 467 522 468 476 q 467 611 467 568 l 467 778 q 463 932 465 856 q 458 1085 460 1008 q 458 1115 457 1100 q 460 1146 460 1129 z "},"C":{"ha":1040,"x_min":143,"x_max":863,"o":"m 694 819 q 689 732 693 775 q 682 644 685 689 q 681 567 681 606 q 681 489 681 529 q 684 406 682 447 q 688 324 686 365 q 690 245 690 285 q 681 167 689 206 q 683 152 679 160 q 688 136 686 144 q 694 117 690 126 q 699 100 697 108 q 695 53 700 76 q 696 7 690 31 q 690 -12 699 -6 q 668 -19 682 -18 q 606 -15 636 -21 q 544 0 576 -8 q 444 42 492 15 q 347 97 396 68 q 226 220 271 147 q 151 379 181 293 q 149 394 150 386 q 149 410 149 403 q 150 496 149 453 q 147 582 151 539 q 166 707 143 650 q 224 817 189 764 q 364 961 283 903 q 544 1051 444 1019 q 568 1060 556 1054 q 592 1067 581 1067 q 647 1069 619 1069 q 701 1069 675 1069 q 703 1032 701 1049 q 701 1000 704 1015 q 699 909 700 954 q 694 819 697 864 m 724 1065 l 863 1065 q 860 990 858 1026 q 856 915 863 953 q 848 847 849 882 q 846 778 847 813 q 844 751 844 764 q 842 725 843 739 q 834 703 840 711 q 813 696 828 694 q 772 699 792 697 q 732 706 751 700 q 706 736 706 708 q 713 899 708 818 q 719 1060 717 979 q 720 1061 719 1060 q 724 1065 721 1063 m 846 243 q 844 189 846 215 q 843 135 843 163 q 842 81 843 108 q 846 26 840 54 q 842 3 849 8 q 818 -6 836 -3 q 783 -12 800 -8 q 747 -18 765 -15 q 706 13 710 -22 q 705 47 706 29 q 706 79 704 64 q 707 176 706 128 q 710 272 708 224 q 717 303 710 296 q 746 310 724 310 q 791 310 768 311 q 843 310 814 310 q 844 275 843 292 q 846 243 846 258 z "},"D":{"ha":942,"x_min":179,"x_max":783,"o":"m 217 -42 q 201 -38 210 -42 q 179 -29 192 -35 q 206 37 204 6 q 183 100 208 68 q 195 115 189 107 q 207 129 201 122 q 187 150 190 138 q 183 181 183 163 l 183 1051 q 184 1067 183 1058 q 185 1085 185 1075 q 249 1087 217 1085 q 311 1079 281 1089 q 352 1069 331 1071 q 394 1063 374 1067 q 524 1010 467 1047 q 633 925 581 972 q 714 818 686 878 q 764 693 742 758 q 775 630 774 663 q 776 565 776 597 q 776 528 776 547 q 776 490 775 510 q 757 333 783 408 q 688 189 731 258 q 669 166 681 176 q 646 144 657 156 q 603 106 624 126 q 558 65 582 85 q 524 42 543 53 q 486 21 506 32 q 443 6 465 11 q 408 -25 421 0 q 390 -37 406 -33 q 361 -42 374 -42 q 217 -42 289 -46 z "},"E":{"ha":861,"x_min":143,"x_max":700,"o":"m 492 597 q 487 468 490 533 q 481 338 483 403 q 477 301 479 319 q 475 264 475 282 q 474 98 478 179 q 471 -65 469 17 q 462 -97 472 -87 q 428 -106 451 -106 q 388 -106 400 -106 q 367 -103 375 -106 q 344 -93 358 -100 q 332 -103 339 -97 q 314 -121 325 -110 q 303 -103 308 -112 q 292 -85 299 -94 q 281 -99 286 -94 q 272 -111 276 -104 q 267 -112 271 -111 q 263 -111 264 -112 q 240 -96 253 -97 q 214 -99 226 -94 q 181 -103 196 -107 q 149 -93 165 -100 q 150 -50 146 -72 q 157 -6 154 -28 q 158 1 157 -3 q 157 7 158 6 q 145 71 143 39 q 154 133 147 103 q 160 161 157 147 q 167 192 164 175 q 153 213 154 199 q 154 242 153 228 q 160 309 158 275 q 163 375 161 343 q 165 476 164 426 q 168 575 167 526 q 174 753 171 664 q 178 932 176 843 q 181 1013 181 972 q 182 1093 181 1054 q 183 1108 182 1101 q 186 1124 185 1114 q 206 1124 196 1124 q 224 1125 215 1125 l 444 1125 q 460 1126 451 1125 q 478 1129 469 1128 q 504 1101 508 1129 q 501 1042 499 1071 q 500 983 503 1014 q 496 933 497 958 q 492 882 494 907 q 494 841 492 861 q 496 800 496 821 q 494 781 496 790 q 490 760 492 771 q 487 751 489 756 q 486 742 485 746 q 491 701 496 721 q 476 661 486 681 q 494 633 494 650 q 492 597 494 617 m 686 879 q 681 801 683 840 q 676 725 679 763 q 676 723 676 724 q 675 719 675 722 q 594 719 635 722 q 508 725 553 717 q 511 806 510 765 q 514 886 513 846 q 517 927 517 907 q 518 968 517 947 q 525 1036 521 1003 q 531 1104 529 1069 q 549 1125 531 1125 q 623 1122 586 1124 q 700 1118 660 1119 q 697 1046 699 1081 q 694 978 696 1011 q 691 927 693 951 q 686 879 689 903 m 604 643 q 640 633 631 642 q 646 596 649 624 q 643 544 644 569 q 640 493 642 519 q 644 429 640 463 q 639 396 646 404 q 607 386 632 388 q 593 385 599 385 q 581 386 588 386 q 539 387 550 385 q 527 401 528 389 q 526 438 526 413 l 526 597 q 536 633 528 625 q 571 642 544 642 q 588 643 579 643 q 604 643 597 643 m 521 -97 q 486 -61 486 -97 l 486 104 q 482 143 486 122 q 481 149 482 146 q 481 154 481 153 q 488 222 492 189 q 485 288 483 254 q 493 319 488 314 q 525 324 499 324 l 667 324 q 667 302 667 311 q 668 283 668 293 q 666 203 668 243 q 664 122 664 163 q 669 65 664 93 q 675 6 674 36 q 676 -33 676 -12 q 676 -75 676 -54 q 653 -99 676 -99 q 586 -98 619 -97 q 521 -97 553 -99 z "},"F":{"ha":747,"x_min":163,"x_max":636,"o":"m 636 694 q 554 693 593 694 q 475 701 515 692 l 475 583 q 509 601 492 599 q 546 600 526 603 q 585 600 565 597 q 590 519 583 557 q 585 440 596 481 q 582 394 581 418 q 581 347 583 371 q 575 320 579 325 q 549 315 571 315 l 471 315 q 472 116 474 214 q 478 -79 469 18 l 163 -79 l 163 1093 q 215 1097 171 1096 q 322 1099 260 1099 q 450 1099 385 1099 q 567 1098 515 1099 q 636 1094 618 1097 l 636 694 z "},"G":{"ha":1211,"x_min":118,"x_max":1085,"o":"m 714 467 q 721 258 713 363 q 725 50 729 153 q 729 6 725 28 q 738 -40 733 -17 l 736 -40 q 726 -47 731 -42 q 715 -51 721 -51 q 611 -51 664 -53 q 601 -51 607 -51 q 593 -49 596 -51 q 576 -39 585 -40 q 556 -37 567 -37 q 542 -34 549 -37 q 529 -29 535 -31 q 510 -22 519 -26 q 490 -25 501 -18 q 471 -19 482 -28 q 389 27 429 3 q 315 83 349 51 q 244 156 278 117 q 192 246 211 196 q 170 299 182 272 q 150 351 158 325 q 131 416 139 383 q 124 482 122 449 q 124 590 125 538 q 137 699 118 649 q 178 800 156 750 q 223 878 196 843 q 278 946 250 913 q 299 966 288 957 q 321 981 310 975 q 385 1019 353 1000 q 451 1057 418 1039 q 487 1072 468 1065 q 524 1083 506 1078 q 530 1085 526 1086 q 533 1086 533 1085 q 564 1106 546 1107 q 600 1106 582 1106 l 858 1106 q 863 1072 863 1088 q 862 1006 863 1039 q 863 942 861 974 q 866 868 864 906 q 869 794 868 831 q 840 758 874 760 q 783 758 813 757 q 722 760 754 760 q 715 899 718 831 q 710 1035 713 967 l 703 1035 l 703 896 q 704 854 703 875 q 706 811 706 833 q 708 748 708 781 q 708 683 708 715 q 712 576 710 629 q 714 467 714 522 m 738 318 q 736 407 740 363 q 733 496 732 451 l 1075 496 q 1078 485 1076 490 q 1082 472 1081 479 q 1083 421 1082 446 q 1085 368 1083 396 q 1061 346 1085 346 q 1022 347 1043 346 q 982 349 1001 349 l 897 349 q 900 270 900 308 q 900 193 900 232 q 901 147 901 171 q 901 100 901 124 q 900 46 900 74 q 897 -10 900 18 q 894 -26 896 -18 q 890 -46 892 -35 q 813 -44 851 -37 q 738 -40 775 -51 q 737 49 738 4 q 736 138 736 94 q 735 228 736 182 q 738 318 735 274 z "},"H":{"ha":929,"x_min":133,"x_max":800,"o":"m 800 1054 l 800 -15 l 535 -15 q 531 7 533 -4 q 529 31 529 18 q 532 163 532 97 q 533 294 532 228 l 533 367 l 426 367 q 424 331 425 349 q 421 294 422 313 q 420 224 421 260 q 419 153 419 188 q 416 78 418 115 q 411 3 414 40 q 382 -25 411 -24 q 360 -26 371 -26 q 336 -25 349 -25 q 310 -18 324 -25 q 282 -24 297 -11 q 274 -19 281 -25 q 261 -10 268 -14 q 244 -22 253 -17 q 222 -19 236 -26 q 204 -18 215 -15 q 183 -24 193 -21 q 150 -18 165 -25 q 138 8 135 -11 q 137 83 140 46 q 135 156 133 121 q 142 194 138 175 q 151 233 146 213 q 140 258 142 244 q 140 289 139 271 q 148 395 147 342 q 150 501 149 449 q 154 645 153 574 q 157 789 156 717 q 162 904 160 846 q 165 1021 164 963 q 171 1050 167 1046 q 200 1056 175 1054 l 443 1056 l 443 976 q 440 908 442 942 q 436 838 438 874 q 438 825 436 832 q 439 811 439 818 q 437 770 438 790 q 433 731 436 750 q 431 725 432 729 q 431 718 429 721 q 434 684 440 700 q 425 654 428 668 l 522 654 l 522 1008 q 522 1022 522 1015 q 524 1033 522 1028 q 546 1054 524 1054 l 800 1054 z "},"I":{"ha":715,"x_min":200,"x_max":506,"o":"m 506 817 l 506 536 q 506 395 506 467 q 503 254 506 324 q 504 115 503 185 q 494 -25 506 44 l 203 -25 q 201 -10 201 -18 q 200 3 200 -3 l 200 461 q 203 481 200 471 q 208 500 207 490 q 213 533 213 517 q 214 693 214 614 q 217 853 214 772 q 220 975 217 914 q 225 1097 224 1036 l 503 1097 q 505 956 506 1026 q 506 817 504 886 z "},"J":{"ha":825,"x_min":131,"x_max":694,"o":"m 525 -79 q 510 -84 519 -82 q 492 -85 501 -86 q 429 -83 461 -82 q 365 -87 397 -85 q 272 -65 311 -89 q 201 -4 233 -40 q 162 58 176 24 q 135 126 147 92 q 132 151 131 138 q 133 182 133 165 q 294 188 215 185 q 451 192 374 190 q 448 213 450 201 q 446 235 446 224 q 447 399 446 317 q 446 563 447 481 q 442 678 444 621 q 438 793 439 736 q 437 938 436 867 q 438 1081 438 1008 l 438 1125 l 686 1125 q 688 1112 688 1118 q 689 1099 689 1106 l 689 226 q 688 186 689 206 q 689 147 688 167 q 664 49 694 94 q 603 -25 636 10 q 525 -79 571 -60 z "},"K":{"ha":1068,"x_min":126,"x_max":924,"o":"m 129 -39 q 141 -5 143 -22 q 144 28 139 13 q 145 35 146 31 q 142 42 144 40 q 131 91 126 67 q 136 138 135 115 q 142 177 138 157 q 150 219 147 197 q 140 235 140 224 q 142 257 140 246 q 150 378 146 319 q 153 573 151 476 q 156 767 154 669 q 161 882 157 825 q 167 997 165 939 q 166 1037 167 1017 q 164 1076 165 1057 q 165 1094 164 1085 q 167 1114 165 1103 l 290 1114 q 368 1115 331 1114 q 443 1117 406 1115 q 472 1085 481 1117 q 470 1065 469 1074 q 472 1044 471 1056 q 473 1007 474 1026 q 472 968 472 988 q 467 886 469 928 q 463 801 464 844 q 458 758 461 779 q 460 715 456 738 q 458 699 463 708 q 454 682 454 690 q 460 650 451 665 q 538 766 488 719 q 647 851 588 813 q 778 902 710 892 q 915 919 847 913 q 920 859 918 913 q 923 722 922 806 q 924 538 924 638 q 924 340 924 439 q 922 156 924 240 q 920 17 921 71 q 918 -46 919 -37 q 848 -47 882 -46 q 779 -44 814 -47 q 755 -37 769 -42 q 736 -17 740 -33 q 726 -2 733 -6 q 710 3 718 1 q 645 31 672 10 q 590 72 618 53 q 556 103 572 88 q 524 132 539 118 q 487 185 501 157 q 460 244 472 214 q 456 253 458 249 q 447 264 454 258 q 444 113 446 188 q 439 -36 442 38 q 431 -60 438 -54 q 407 -69 424 -67 q 381 -70 393 -69 q 354 -69 368 -71 q 336 -63 346 -67 q 315 -57 326 -60 q 294 -70 306 -71 q 276 -57 283 -69 q 201 -67 238 -67 q 129 -67 165 -68 q 128 -49 129 -58 q 129 -39 126 -40 z "},"L":{"ha":842,"x_min":171,"x_max":703,"o":"m 171 -89 q 177 -70 174 -79 q 182 -51 181 -61 q 183 -35 185 -42 q 182 -18 181 -28 q 186 4 185 -7 q 176 25 188 15 q 179 33 175 26 q 186 46 183 40 q 172 86 171 65 q 176 128 174 107 q 185 159 179 144 q 194 188 190 174 q 196 192 196 190 q 196 193 196 193 q 183 235 178 214 q 189 276 189 257 q 190 409 190 343 q 192 542 190 475 q 198 656 194 599 q 204 768 201 713 q 206 878 206 824 q 207 986 206 932 q 210 1049 210 1018 q 211 1114 210 1081 q 213 1123 211 1118 q 215 1129 214 1128 q 313 1136 264 1139 q 413 1132 363 1133 q 513 1143 463 1131 q 525 1131 519 1139 q 531 1113 531 1124 q 525 1000 528 1057 q 519 886 522 943 q 521 852 519 868 q 522 818 522 836 q 522 788 521 803 q 511 757 524 772 q 511 747 508 750 q 518 707 526 725 q 503 667 510 689 q 521 638 519 656 q 519 603 522 621 q 511 407 506 506 q 508 355 511 381 q 503 303 506 329 l 503 231 q 501 186 501 208 q 500 140 501 164 q 497 35 499 89 q 492 -74 494 -19 q 457 -108 490 -108 q 417 -109 438 -108 q 379 -96 396 -110 q 373 -92 376 -93 q 367 -92 369 -92 q 342 -97 354 -103 q 319 -87 331 -92 q 308 -97 314 -92 q 296 -107 303 -103 q 289 -106 290 -107 q 265 -93 279 -93 q 240 -99 251 -93 q 190 -96 211 -117 q 183 -92 188 -93 q 171 -89 178 -92 m 515 -76 q 515 42 515 -17 q 526 161 515 101 q 528 202 529 181 q 526 246 526 224 q 528 271 528 258 q 531 300 529 283 q 616 302 574 301 q 701 296 658 303 q 702 229 701 263 q 701 163 703 196 q 694 48 699 106 q 688 -67 690 -10 q 679 -101 686 -93 q 646 -108 672 -108 l 547 -108 q 522 -102 528 -108 q 515 -76 515 -96 z "},"M":{"ha":1088,"x_min":126,"x_max":989,"o":"m 968 1011 q 977 985 974 999 q 986 958 981 972 q 989 935 989 947 q 978 915 989 924 q 972 910 974 914 q 971 904 971 907 q 974 836 978 869 q 975 767 969 803 q 978 691 982 731 q 975 611 975 651 q 976 505 975 558 q 978 399 978 451 q 976 258 978 328 q 975 119 975 189 q 972 35 974 78 q 967 -50 969 -7 q 962 -78 967 -72 q 933 -85 957 -85 q 891 -82 911 -83 q 849 -79 871 -81 q 801 -73 825 -75 q 753 -69 778 -71 q 724 -65 744 -69 l 724 856 q 667 774 701 804 q 576 740 632 743 q 480 768 517 738 q 415 847 443 799 q 412 771 414 807 q 408 699 410 735 q 404 656 407 676 q 401 614 401 636 q 403 578 404 596 q 394 543 403 560 q 406 465 407 504 q 399 388 404 426 q 394 311 394 350 q 396 249 394 281 q 397 185 397 217 q 395 155 397 169 q 390 126 393 140 q 388 43 389 85 q 386 -40 388 1 q 375 -76 385 -67 q 338 -85 365 -85 q 309 -85 324 -85 q 286 -68 294 -85 q 270 -76 278 -71 q 254 -83 263 -81 q 246 -65 251 -74 q 234 -74 240 -71 q 221 -83 228 -78 q 199 -72 211 -72 q 172 -79 186 -72 q 142 -78 156 -87 q 128 -50 128 -68 l 128 60 q 129 108 126 85 q 142 151 132 132 q 143 163 143 156 q 133 230 131 196 q 141 299 135 264 q 143 367 147 333 q 142 421 140 394 q 143 476 143 447 q 147 551 146 513 q 149 625 149 589 q 151 764 150 694 q 154 903 153 833 q 152 910 154 906 q 150 918 150 915 q 146 935 149 926 q 142 951 143 943 q 146 1017 142 979 q 154 1015 149 1017 q 161 1014 160 1014 q 195 1057 181 1036 q 228 1096 210 1078 q 265 1122 244 1113 q 310 1132 285 1132 l 410 1132 q 490 1100 456 1132 q 530 1056 513 1081 q 560 999 547 1032 q 577 1027 569 1014 q 593 1051 585 1040 q 658 1110 621 1088 q 746 1132 696 1133 q 770 1131 757 1132 q 797 1132 783 1131 q 876 1118 842 1136 q 933 1070 910 1100 q 968 1011 957 1040 z "},"N":{"ha":1003,"x_min":153,"x_max":864,"o":"m 731 -36 q 660 -38 696 -33 q 592 -39 625 -43 q 565 -21 572 -39 q 499 133 533 57 q 429 286 465 210 q 423 126 426 206 q 417 -36 419 46 q 399 -37 407 -36 q 385 -39 392 -39 l 188 -39 q 158 -33 163 -39 q 153 -1 153 -28 l 153 1063 l 417 1063 q 492 883 454 974 q 568 700 529 792 l 574 700 l 574 1024 q 579 1058 574 1053 q 614 1063 585 1063 q 824 1067 719 1063 l 864 1067 l 864 -29 q 851 -30 858 -29 q 835 -31 843 -31 q 783 -35 810 -32 q 731 -36 756 -39 z "},"O":{"ha":1306,"x_min":65,"x_max":1247,"o":"m 431 -4 q 171 163 283 46 q 115 250 135 203 q 71 343 94 297 q 66 365 65 353 q 65 389 67 378 q 65 512 65 450 q 67 633 65 574 q 81 706 67 671 q 260 940 146 854 q 526 1063 374 1025 q 576 1065 550 1068 q 632 1063 603 1063 q 628 959 631 1008 q 622 861 625 910 q 619 775 621 818 q 615 688 618 732 q 609 635 614 661 q 606 583 604 610 q 613 426 608 506 q 622 265 618 346 q 620 255 622 260 q 618 244 618 250 q 610 173 617 208 q 622 100 604 138 q 630 49 633 78 q 624 -7 626 19 q 610 -30 622 -25 q 585 -32 599 -35 q 506 -21 546 -26 q 431 -4 467 -15 m 1233 522 q 1233 485 1233 504 q 1236 446 1233 465 q 1215 288 1247 360 q 1135 147 1183 215 q 998 24 1076 71 q 828 -47 919 -24 q 764 -52 797 -56 q 689 -49 731 -49 q 675 492 683 222 q 658 1033 667 761 q 683 1042 672 1038 q 706 1044 694 1047 q 864 1020 788 1043 q 1010 951 940 997 q 1154 800 1104 889 q 1232 608 1204 711 q 1235 566 1238 589 q 1233 522 1233 543 z "},"P":{"ha":929,"x_min":128,"x_max":783,"o":"m 464 486 q 463 502 463 494 q 463 518 463 510 q 465 738 464 629 q 468 957 467 847 q 460 990 468 974 q 460 959 460 975 q 458 928 460 943 q 455 901 457 914 q 450 876 453 889 q 449 866 450 871 q 450 856 449 861 q 449 763 463 808 q 445 752 447 757 q 444 743 443 747 q 449 709 453 726 q 442 675 446 692 q 440 663 439 665 q 451 637 453 651 q 449 608 450 622 q 447 533 449 571 q 443 456 444 494 q 440 292 442 375 q 435 126 439 208 q 432 60 435 93 q 426 -6 429 26 q 424 -31 425 -18 q 424 -60 424 -44 q 374 -60 397 -60 q 326 -58 350 -60 q 315 -56 321 -58 q 300 -56 310 -53 q 283 -57 294 -60 q 258 -53 272 -54 q 198 -61 231 -62 q 132 -58 165 -60 q 130 -51 131 -54 q 129 -46 129 -47 q 128 65 129 10 q 129 176 128 121 q 133 197 129 186 q 140 222 136 208 q 131 242 132 229 q 131 274 129 256 q 138 330 138 301 q 139 386 138 358 q 145 564 142 475 q 150 742 149 653 q 152 810 151 776 q 154 879 153 844 q 156 986 156 932 q 158 1093 157 1040 q 160 1100 158 1096 q 163 1111 161 1104 q 229 1112 196 1111 q 296 1111 263 1113 q 363 1108 329 1110 q 429 1114 396 1106 q 460 1088 458 1119 q 460 1055 460 1072 q 464 1021 461 1038 q 467 1063 465 1042 q 469 1103 468 1083 q 531 1106 501 1113 q 588 1088 560 1099 q 627 1069 607 1081 q 665 1044 647 1058 q 711 997 689 1029 q 738 963 725 981 q 760 925 750 944 q 772 891 768 910 q 778 856 776 872 q 779 786 781 821 q 779 715 778 751 q 760 626 783 664 q 703 556 736 588 q 648 510 678 529 q 585 479 618 492 q 543 467 565 472 q 500 458 521 463 q 475 463 482 456 q 464 486 468 469 z "},"Q":{"ha":1389,"x_min":76,"x_max":1317,"o":"m 1207 233 q 1303 200 1257 217 q 1305 100 1317 147 q 1278 4 1293 53 q 1225 -21 1268 -29 q 1144 -4 1185 -11 q 1061 10 1103 3 q 1038 12 1050 11 q 1014 6 1025 13 q 877 -47 949 -35 q 724 -49 806 -60 l 724 97 q 690 106 706 101 q 656 117 675 111 q 633 -57 646 35 q 563 -41 597 -47 q 497 -26 529 -35 q 307 70 385 1 q 172 233 229 139 q 128 320 149 276 q 88 407 107 364 q 85 422 86 414 q 85 436 85 429 q 85 461 85 449 q 85 486 86 474 q 119 691 76 599 q 231 865 163 783 q 342 963 279 925 q 478 1021 404 1001 q 552 1034 514 1031 q 626 1039 590 1038 q 668 1029 660 1040 q 676 986 676 1018 q 672 740 674 864 q 667 493 669 617 q 662 348 665 421 q 656 203 658 275 q 658 183 654 199 q 711 367 699 275 q 715 556 724 458 q 703 785 706 671 q 697 1015 701 900 q 755 1031 726 1031 q 810 1024 783 1031 q 981 960 901 1003 q 1129 849 1061 918 q 1245 663 1211 764 q 1272 449 1279 563 q 1207 233 1267 336 z "},"R":{"ha":1008,"x_min":160,"x_max":826,"o":"m 788 946 q 814 892 803 919 q 822 833 825 865 q 821 789 821 811 q 822 744 821 767 q 820 684 826 714 q 796 631 814 654 q 761 585 782 606 q 719 544 740 564 q 666 510 694 522 q 606 489 638 499 l 685 489 q 723 481 717 489 q 732 442 729 474 q 739 206 742 324 q 739 -31 736 88 l 739 -87 q 713 -94 725 -90 q 689 -99 700 -99 q 630 -99 658 -100 q 572 -99 601 -99 q 544 -92 551 -99 q 531 -67 538 -86 q 521 4 521 -31 q 518 74 521 39 q 512 169 514 121 q 507 265 510 218 q 505 316 506 292 q 501 364 504 340 q 521 400 500 388 q 504 424 511 413 q 513 453 497 435 q 519 478 519 463 q 517 508 518 494 q 512 570 515 540 q 507 631 508 600 q 505 790 506 710 q 501 950 504 869 q 503 984 501 967 q 506 1019 506 1001 q 501 1061 506 1039 q 525 1097 497 1090 q 557 1101 542 1100 q 588 1093 572 1103 q 600 1088 593 1089 q 611 1085 607 1086 q 616 1083 611 1085 q 635 1068 621 1081 q 788 946 733 1033 m 483 436 q 488 356 483 396 q 486 276 492 317 q 485 205 481 240 q 486 133 490 169 q 481 32 482 83 q 476 -72 479 -19 q 474 -84 476 -78 q 469 -97 471 -90 l 160 -97 l 160 1100 l 476 1100 q 483 1050 479 1075 q 486 1000 486 1025 q 482 822 490 911 q 483 733 478 778 q 488 644 488 689 q 485 561 488 603 q 481 479 482 519 q 481 458 481 469 q 483 436 482 447 z "},"S":{"ha":925,"x_min":122,"x_max":772,"o":"m 163 661 q 134 726 144 693 q 128 794 124 758 q 128 843 132 821 q 148 951 122 904 q 210 1038 174 997 q 293 1101 246 1078 q 389 1143 340 1124 q 426 1146 406 1149 q 464 1143 446 1143 q 456 989 461 1064 q 453 838 451 914 q 455 691 454 765 q 463 543 456 617 q 485 539 474 539 q 643 480 579 529 q 743 344 707 431 q 760 298 754 322 q 763 247 765 274 q 762 212 763 229 q 763 179 761 194 q 744 74 772 118 q 679 -10 715 29 q 594 -72 643 -50 q 488 -97 544 -94 q 469 -97 478 -97 q 454 -99 461 -96 q 415 -93 433 -108 q 401 -87 410 -87 q 385 -83 392 -86 q 260 8 301 -62 q 246 68 247 33 q 253 136 244 103 q 279 190 263 169 q 315 231 297 211 q 361 257 333 250 q 391 264 376 261 q 421 268 406 267 q 426 213 428 239 q 426 160 425 186 q 431 142 429 150 q 433 125 432 133 q 433 220 433 172 q 431 315 433 268 q 428 403 431 360 q 425 494 426 447 q 395 502 410 499 q 367 510 381 506 q 249 565 303 529 q 163 661 196 601 m 478 1143 q 567 1114 532 1139 q 647 1038 615 1082 q 674 933 678 994 q 561 769 667 818 q 515 755 539 761 q 464 764 492 749 q 465 951 464 857 q 478 1143 467 1046 m 435 32 l 443 32 q 440 67 442 50 q 435 100 438 83 l 435 32 z "},"T":{"ha":811,"x_min":149,"x_max":685,"o":"m 501 -31 q 501 -42 501 -36 q 500 -54 500 -47 l 267 -54 q 263 22 265 -15 q 265 96 261 60 q 269 169 269 132 q 271 242 269 207 q 274 319 272 281 q 276 394 275 357 q 278 471 278 432 q 278 547 278 510 q 281 624 279 585 q 283 700 282 663 q 286 777 285 739 q 289 858 288 815 l 433 858 l 433 863 l 149 863 l 149 1074 q 170 1075 160 1075 q 190 1075 181 1075 q 349 1077 269 1076 q 507 1078 428 1078 q 595 1076 551 1078 q 685 1074 639 1075 l 685 879 q 603 871 644 875 q 524 863 563 867 q 524 777 524 819 q 524 693 525 735 q 524 646 522 669 q 524 619 525 632 q 519 594 522 606 q 513 553 518 574 q 511 513 508 532 q 516 423 519 468 q 514 332 513 378 q 513 269 517 301 q 507 207 510 238 q 505 88 506 146 q 501 -31 504 29 z "},"U":{"ha":863,"x_min":153,"x_max":721,"o":"m 158 72 q 155 112 153 90 q 154 153 157 133 l 154 1094 q 165 1097 161 1096 q 174 1099 169 1099 q 271 1103 222 1101 q 367 1106 319 1104 q 388 1100 382 1106 q 394 1079 394 1094 q 395 1046 396 1063 q 394 1011 394 1029 q 394 673 394 842 q 393 335 393 504 l 393 185 l 442 185 q 451 301 464 240 q 449 316 450 308 q 450 331 449 324 q 452 359 451 344 q 460 386 453 374 q 458 412 468 401 q 454 436 449 422 q 457 463 458 449 q 456 490 456 476 q 461 592 458 542 q 465 694 464 643 q 469 878 469 786 q 472 984 471 931 q 475 1090 474 1038 q 477 1103 475 1097 q 481 1115 479 1108 q 594 1118 538 1122 q 707 1126 650 1114 q 720 1106 721 1117 q 718 1079 719 1094 q 715 1019 715 1049 q 715 960 715 990 q 713 883 714 922 q 710 804 713 843 q 709 764 708 785 q 710 722 710 743 q 710 636 713 676 q 706 550 708 593 q 701 464 704 507 q 697 337 699 400 q 694 208 696 274 q 695 172 693 190 q 694 133 697 153 q 649 17 685 65 q 554 -68 614 -32 q 450 -99 504 -97 q 343 -96 396 -101 q 269 -65 304 -89 q 207 -8 235 -42 q 179 30 193 10 q 158 72 165 50 z "},"V":{"ha":1029,"x_min":82,"x_max":953,"o":"m 931 1072 q 942 1068 936 1072 q 944 1010 953 1038 q 928 954 935 982 q 885 794 906 874 q 843 638 864 715 q 813 535 828 586 q 785 432 799 483 q 757 316 771 375 q 729 200 743 257 q 702 90 715 144 q 675 -18 689 35 q 670 -51 672 -35 q 665 -85 668 -68 q 615 -85 639 -86 q 568 -75 592 -85 q 478 -75 522 -56 q 432 -86 456 -85 q 383 -85 408 -87 q 365 -21 374 -53 q 347 43 356 11 q 324 119 335 81 q 303 196 314 157 q 258 361 281 279 q 211 526 235 443 q 163 710 188 618 q 115 894 139 803 q 94 976 106 936 q 83 1058 82 1015 q 84 1067 83 1063 q 85 1075 85 1072 q 142 1097 117 1086 q 174 1104 157 1104 q 208 1107 192 1104 q 263 1124 236 1114 q 317 1140 290 1133 q 335 1146 326 1143 q 357 1153 344 1149 q 395 1016 374 1082 q 436 881 417 950 q 472 745 454 814 q 508 603 489 676 q 530 690 519 650 q 550 769 540 731 q 570 848 560 810 q 590 925 581 886 q 613 1020 601 972 q 635 1115 625 1068 q 657 1133 639 1133 q 671 1133 664 1133 q 683 1131 678 1133 q 808 1102 746 1117 q 931 1072 869 1088 z "},"W":{"ha":1093,"x_min":200,"x_max":931,"o":"m 449 140 q 683 144 567 143 q 917 146 799 144 q 927 116 931 132 q 921 86 924 100 q 886 -2 911 38 q 818 -74 861 -42 q 799 -83 808 -79 q 778 -85 789 -86 q 754 -84 767 -85 q 731 -86 742 -83 q 680 -79 701 -90 q 638 -50 658 -68 q 599 -12 618 -32 q 572 38 581 8 q 516 -18 546 6 q 446 -56 486 -42 q 351 -62 396 -71 q 268 -17 306 -53 q 234 22 249 0 q 204 67 219 44 q 202 79 201 72 q 200 92 203 86 q 201 145 200 119 q 200 197 203 171 q 201 543 200 371 q 203 888 201 715 q 208 994 203 942 q 219 1103 214 1047 q 238 1106 229 1106 q 253 1106 246 1106 q 335 1107 294 1107 q 419 1107 376 1107 q 456 1100 450 1106 q 463 1063 463 1094 q 458 891 461 978 q 456 718 456 804 q 454 517 454 618 q 454 317 454 417 l 454 242 q 552 297 503 294 q 660 263 601 300 l 660 1007 q 660 1051 660 1028 q 661 1101 661 1075 q 745 1098 706 1100 q 824 1096 785 1096 q 845 1097 835 1096 q 865 1099 856 1097 q 892 1081 889 1104 q 897 1022 893 1051 q 900 965 900 993 q 901 748 901 857 q 901 531 901 639 q 906 394 903 463 q 910 257 908 325 q 908 210 910 235 q 889 165 906 185 q 857 191 879 188 q 818 208 835 194 q 801 192 811 193 q 778 196 790 192 q 756 197 767 200 q 727 196 742 194 q 696 199 713 197 l 696 153 q 572 151 633 150 q 449 150 511 153 l 449 140 m 890 163 q 889 163 889 163 l 888 164 q 888 164 888 164 q 889 165 889 164 q 889 163 889 164 l 890 163 m 425 150 l 425 156 l 251 156 q 253 150 251 153 l 425 150 z "},"X":{"ha":929,"x_min":104,"x_max":824,"o":"m 572 1083 q 694 1033 633 1058 q 818 982 756 1007 q 807 924 824 953 q 764 827 785 875 q 722 731 743 779 q 681 631 701 681 q 638 532 660 581 q 636 483 626 506 q 692 335 664 410 q 746 186 719 260 q 775 106 761 146 q 801 26 789 67 q 805 10 804 19 q 806 -6 806 1 q 719 -35 761 -21 q 636 -62 678 -49 q 617 -72 626 -67 q 597 -79 607 -76 q 572 -83 585 -82 q 546 -87 560 -85 q 508 14 528 -36 q 465 118 488 64 q 422 17 440 67 q 386 -83 404 -33 q 356 -84 369 -87 q 329 -74 343 -81 q 221 -28 275 -50 q 110 15 167 -7 q 111 44 104 31 q 125 72 118 57 q 174 188 150 129 q 221 306 197 246 q 258 397 240 350 q 296 489 276 444 q 296 540 306 515 q 222 739 258 640 q 149 936 185 838 q 138 968 142 951 q 131 1003 135 985 q 191 1027 164 1014 q 249 1046 218 1040 q 317 1072 285 1054 q 385 1107 350 1090 q 415 1046 406 1079 q 436 979 425 1013 q 472 919 447 946 q 505 1001 489 961 q 539 1085 521 1042 q 555 1085 546 1085 q 572 1083 564 1086 z "},"Y":{"ha":1075,"x_min":171,"x_max":886,"o":"m 865 1064 q 886 1040 886 1063 q 853 901 883 964 q 769 785 822 838 q 721 743 747 763 q 665 699 694 724 q 663 585 664 644 q 660 465 661 526 q 656 411 658 438 q 654 357 654 385 q 657 299 654 328 q 660 242 660 271 q 658 125 658 183 q 654 7 657 67 q 648 -15 654 -8 q 624 -19 642 -21 q 576 -19 600 -18 q 528 -19 551 -21 q 477 -22 501 -18 q 428 -26 453 -25 q 385 -19 396 -29 q 375 19 374 -10 q 378 201 376 110 q 382 382 381 293 q 383 429 383 406 q 383 478 383 453 q 388 596 386 538 q 390 711 389 654 q 344 742 367 726 q 297 771 321 757 q 229 834 254 796 q 185 915 204 872 q 172 980 171 947 q 171 1044 174 1013 q 226 1049 200 1047 q 276 1051 253 1051 q 485 1055 381 1054 q 693 1057 589 1056 q 769 1060 732 1057 q 843 1064 806 1063 l 865 1064 z "},"Z":{"ha":942,"x_min":150,"x_max":869,"o":"m 601 211 q 581 136 590 174 q 563 60 572 99 l 869 60 l 869 -78 q 829 -81 850 -79 q 788 -86 808 -83 q 749 -88 769 -87 q 710 -89 729 -89 q 638 -94 675 -90 q 565 -87 601 -97 q 560 -90 564 -87 q 554 -93 557 -92 q 524 -102 540 -103 q 493 -97 508 -101 q 435 -77 464 -86 q 375 -61 406 -68 q 313 -44 344 -51 q 249 -28 281 -37 q 235 -15 236 -25 q 236 4 233 -6 q 242 31 239 18 q 249 58 246 44 q 295 248 272 153 q 340 438 318 343 q 358 510 349 474 q 375 583 367 546 q 401 697 389 640 q 425 808 413 753 q 427 814 426 811 q 429 819 428 817 q 448 872 447 843 q 454 926 449 900 q 459 949 457 938 q 464 975 461 960 q 444 976 454 975 q 425 976 435 976 q 317 979 371 979 q 208 981 263 979 q 180 985 194 982 q 150 990 165 988 l 150 1126 l 225 1126 q 358 1125 292 1125 q 490 1125 424 1125 q 530 1124 510 1125 q 568 1114 550 1124 q 592 1107 579 1108 q 621 1103 604 1106 q 627 1094 624 1100 q 636 1079 631 1088 q 674 1085 653 1100 q 697 1079 683 1079 q 740 1074 719 1081 q 781 1058 760 1067 q 794 1047 792 1054 q 793 1029 796 1039 q 780 974 788 1001 q 765 919 772 947 q 747 853 757 886 q 732 786 736 821 q 715 704 726 744 q 696 622 703 664 q 683 559 690 592 q 668 494 676 526 q 653 428 661 461 q 636 361 644 394 q 631 351 635 356 q 625 343 628 347 q 619 335 622 339 q 618 328 617 332 q 616 292 621 310 q 604 258 611 275 q 603 235 600 247 q 601 211 606 224 z "},"a":{"ha":882,"x_min":100,"x_max":785,"o":"m 761 794 q 772 667 767 731 q 782 542 776 603 q 784 444 785 486 q 782 401 783 401 l 782 -44 l 514 -44 q 513 -11 513 -28 q 513 19 513 6 q 509 267 511 143 q 507 515 507 392 q 510 653 507 583 q 514 794 513 722 l 761 794 m 107 272 q 106 282 106 278 q 106 290 106 286 l 106 321 q 126 446 100 390 q 194 553 153 501 q 346 647 253 624 q 391 656 368 654 q 436 658 414 657 q 462 653 457 660 q 467 626 467 646 q 465 476 465 551 q 461 325 464 401 q 458 236 460 281 q 454 147 457 192 q 456 136 453 146 l 454 94 q 448 43 451 68 q 440 -10 444 18 q 397 -2 418 -6 q 357 7 376 1 q 242 66 289 24 q 158 167 194 108 q 132 219 144 193 q 107 272 119 246 z "},"b":{"ha":929,"x_min":153,"x_max":754,"o":"m 406 853 l 401 536 q 401 508 401 536 q 401 436 401 479 q 401 347 401 393 q 400 261 400 300 q 400 206 400 222 q 401 36 403 121 q 406 -131 399 -49 l 164 -131 l 153 847 q 192 851 161 850 q 264 851 224 851 q 343 851 304 851 q 406 853 382 851 m 751 275 q 751 228 751 251 q 751 181 750 204 q 742 111 754 143 q 710 50 729 79 q 532 -78 644 -42 q 520 -83 526 -79 q 507 -86 514 -86 q 476 -87 492 -87 q 446 -87 461 -87 q 445 -67 446 -76 q 446 -49 444 -57 q 448 1 447 -24 q 450 50 449 25 q 453 98 451 74 q 457 146 456 122 q 458 188 458 167 q 458 232 458 210 q 456 278 457 256 q 453 322 454 300 q 453 367 453 346 q 458 410 453 389 q 457 418 458 414 q 453 426 456 422 q 451 437 453 432 q 449 447 449 442 q 449 472 447 460 q 449 497 451 485 q 464 513 447 510 q 499 510 482 514 q 532 501 515 507 q 589 478 563 493 q 642 447 615 464 q 708 381 683 421 q 750 293 733 340 q 751 284 751 289 q 751 275 751 279 z "},"c":{"ha":846,"x_min":135,"x_max":643,"o":"m 493 506 q 490 448 492 476 q 485 392 488 419 q 483 342 483 367 q 483 290 483 317 q 486 237 485 264 q 489 182 488 210 q 490 130 490 156 q 483 79 490 104 q 485 70 482 75 q 489 61 488 65 q 492 49 490 54 q 494 36 494 43 q 493 7 496 21 q 494 -22 490 -7 q 476 -40 496 -37 q 435 -37 454 -42 q 396 -28 415 -33 q 330 0 361 -17 q 267 35 299 17 q 188 115 217 68 q 139 218 158 163 q 138 228 138 224 q 138 239 138 233 q 138 294 138 267 q 136 350 139 322 q 149 432 135 394 q 186 504 164 469 q 396 656 263 613 q 410 663 403 658 q 426 667 418 667 q 463 668 444 668 q 497 668 481 668 q 498 644 497 654 q 497 622 499 633 q 495 563 496 593 q 493 506 494 533 m 543 393 q 524 417 524 396 q 529 539 526 478 q 535 661 532 600 q 535 663 535 661 q 538 665 536 664 l 643 665 q 642 608 640 636 q 638 551 643 579 q 631 500 632 526 q 629 447 631 474 q 628 428 628 438 q 626 407 628 418 q 604 385 624 383 q 574 388 589 386 q 543 393 558 389 m 524 -15 q 523 10 524 -3 q 524 36 522 24 q 524 110 524 74 q 526 186 525 147 q 532 209 526 204 q 554 214 538 214 q 590 215 572 217 q 631 214 608 214 q 631 187 631 200 q 632 163 632 174 q 631 119 632 140 q 631 79 631 99 q 630 38 631 58 q 632 -4 629 17 q 630 -23 635 -18 q 611 -31 625 -28 q 583 -34 597 -32 q 556 -39 569 -36 q 524 -15 525 -43 z "},"d":{"ha":871,"x_min":106,"x_max":726,"o":"m 726 906 l 722 589 l 722 258 q 722 89 725 174 q 726 -78 719 4 l 485 -78 l 475 900 q 514 903 483 903 q 585 904 544 904 q 665 904 626 904 q 726 906 703 904 m 108 242 q 109 261 108 251 q 108 281 110 271 q 119 364 106 325 q 154 440 132 403 q 165 453 158 447 q 176 464 171 458 q 199 485 188 474 q 222 506 210 496 q 241 518 231 513 q 261 529 251 524 q 284 538 272 535 q 301 554 296 540 q 313 560 304 558 q 326 563 321 563 q 403 563 365 564 q 422 556 408 563 q 408 521 410 538 q 421 486 407 504 q 415 479 418 483 q 408 471 411 475 q 419 460 417 467 q 421 444 421 454 l 421 -14 q 420 -21 421 -17 q 419 -32 419 -25 q 386 -33 403 -32 q 353 -28 369 -33 q 332 -22 343 -24 q 310 -19 321 -21 q 241 8 271 -11 q 183 51 211 28 q 141 108 156 76 q 114 174 126 140 q 109 208 110 190 q 108 242 108 225 z "},"e":{"ha":772,"x_min":82,"x_max":717,"o":"m 221 303 l 182 303 q 134 310 158 307 q 82 317 110 314 q 91 358 88 338 q 99 396 94 378 q 155 506 115 461 q 250 583 194 550 q 300 609 275 597 q 351 632 325 621 q 367 635 356 635 q 381 634 374 635 q 396 635 389 633 q 515 614 461 639 q 615 550 568 589 q 706 406 682 496 q 713 364 711 386 q 715 321 715 342 q 711 297 717 301 q 686 292 706 292 q 543 294 614 293 q 400 297 472 296 q 316 300 358 299 q 232 303 274 301 q 228 303 231 304 q 221 303 225 303 m 249 -6 q 150 95 181 35 q 113 228 119 156 q 111 245 111 236 q 111 263 111 254 l 417 254 q 417 140 417 197 q 415 25 417 82 q 414 15 415 19 q 413 4 413 10 q 413 -13 413 -4 q 415 -36 414 -22 q 409 -41 414 -37 q 399 -44 404 -44 q 370 -44 385 -46 q 342 -39 356 -42 q 315 -33 328 -36 q 289 -28 301 -31 q 274 -21 281 -26 q 262 -12 268 -17 q 249 -6 256 -8 z "},"f":{"ha":838,"x_min":158,"x_max":692,"o":"m 413 604 l 408 393 q 408 362 408 393 q 408 287 408 331 q 407 204 407 243 q 407 150 407 165 q 408 26 410 88 q 413 -96 406 -35 l 171 -96 l 160 604 q 158 610 160 608 q 161 640 158 625 q 168 671 164 656 q 190 721 176 697 q 217 767 203 744 q 277 826 242 804 q 354 863 313 849 q 363 864 358 864 q 369 864 367 864 q 411 864 390 864 q 454 865 432 864 q 515 856 486 868 q 569 828 543 844 q 683 671 651 771 q 689 660 686 665 q 692 647 692 654 l 692 593 l 658 593 q 614 595 636 594 q 569 597 592 596 q 528 600 549 599 q 485 603 507 601 q 449 604 467 604 q 413 604 431 604 m 467 408 q 467 410 467 408 q 469 414 468 413 l 575 414 q 574 356 572 385 q 569 300 575 328 q 563 249 564 275 q 561 196 563 222 q 560 176 560 186 q 558 156 560 167 q 536 133 556 132 q 506 136 521 135 q 475 140 490 138 q 456 165 456 146 q 462 287 458 226 q 467 408 465 347 z "},"g":{"ha":721,"x_min":75,"x_max":651,"o":"m 376 6 q 378 17 378 11 q 379 28 379 22 q 380 42 379 35 q 381 54 381 49 q 376 69 371 60 q 381 83 381 76 q 381 93 381 89 q 382 103 382 97 q 379 119 381 111 q 379 136 378 128 q 380 207 382 172 q 378 276 378 242 q 383 419 381 347 q 388 567 386 490 q 416 563 403 565 q 442 560 429 560 q 515 542 482 558 q 575 501 547 525 q 616 454 600 482 q 640 394 632 426 q 650 314 651 354 q 642 233 649 274 q 624 183 636 207 q 593 140 611 160 q 590 138 592 139 q 585 133 588 136 q 584 80 585 107 q 583 25 583 53 q 581 -67 582 -21 q 579 -161 581 -114 q 578 -254 578 -208 q 568 -349 578 -300 l 367 -344 q 364 -325 364 -333 q 367 -172 365 -247 q 369 -19 368 -96 q 372 -6 369 -12 q 376 6 375 0 m 142 438 q 156 449 147 444 q 171 458 164 454 q 213 481 192 469 q 256 504 233 492 q 246 517 256 506 q 256 520 251 518 q 264 521 260 522 q 301 519 283 521 q 338 518 319 518 q 353 515 346 517 q 363 503 361 514 q 344 476 367 483 q 338 472 344 476 l 338 385 q 340 219 339 301 q 343 53 342 136 q 342 44 343 49 q 340 33 340 39 q 344 -1 340 22 q 339 -5 343 -1 q 329 -10 335 -8 q 281 -6 306 -10 q 258 -1 269 -3 q 235 3 246 1 q 222 8 226 6 q 212 15 217 11 q 200 22 207 18 q 113 108 140 56 q 78 225 86 161 q 76 281 75 253 q 82 336 76 310 q 85 347 82 342 q 113 393 100 371 q 142 438 126 415 m 201 -307 q 119 -222 144 -274 q 86 -110 93 -171 q 86 -95 86 -103 q 85 -81 86 -87 l 342 -89 l 342 -281 q 340 -289 340 -285 q 338 -299 339 -293 q 338 -313 338 -306 q 340 -332 339 -321 q 335 -337 339 -333 q 326 -340 332 -340 q 302 -338 314 -340 q 278 -335 290 -336 q 256 -330 267 -332 q 235 -325 246 -328 q 222 -319 228 -324 q 212 -313 217 -317 q 201 -307 207 -310 z "},"h":{"ha":917,"x_min":165,"x_max":785,"o":"m 482 3 q 446 1 464 1 q 410 1 428 1 q 414 -128 410 -62 l 176 -128 l 165 838 q 204 841 174 840 q 275 842 235 842 q 353 842 315 842 q 415 843 392 842 l 410 531 l 410 314 q 421 319 415 318 q 436 322 426 322 q 451 323 443 324 q 464 324 458 322 q 577 309 525 331 q 676 251 629 288 q 768 118 742 201 q 778 78 775 100 q 782 38 781 57 q 778 15 783 19 q 754 8 772 10 q 618 6 686 7 q 482 3 550 4 m 775 -4 q 776 -4 775 -4 q 781 -6 778 -4 l 785 -104 q 733 -106 758 -103 q 679 -104 707 -108 q 631 -102 656 -101 q 582 -103 606 -103 l 544 -103 q 522 -83 522 -100 q 524 -53 524 -68 q 526 -25 525 -39 q 547 -7 529 -7 q 661 -6 604 -6 q 775 -4 718 -6 z "},"i":{"ha":536,"x_min":114,"x_max":413,"o":"m 399 714 q 379 717 389 719 q 360 715 369 714 q 320 717 340 718 q 279 715 300 715 q 198 718 239 717 q 114 721 157 719 q 116 737 115 729 q 118 751 117 744 q 128 793 118 775 q 150 828 138 811 q 213 865 172 857 q 258 872 236 872 q 304 865 281 871 q 333 856 319 864 q 357 838 347 849 q 378 815 368 828 q 393 786 389 803 q 406 768 397 774 q 411 756 413 764 q 410 739 410 747 q 408 722 410 731 q 406 715 408 718 q 399 714 403 711 m 388 597 l 383 372 l 383 138 q 383 18 386 78 q 388 -100 381 -42 l 154 -100 l 143 594 q 181 597 151 596 q 251 597 211 597 q 328 596 290 596 q 388 597 365 596 z "},"j":{"ha":785,"x_min":124,"x_max":672,"o":"m 665 824 q 671 811 672 821 q 669 794 669 803 q 669 778 669 786 q 658 769 667 765 q 640 772 649 775 q 619 771 631 769 q 580 772 600 774 q 540 771 560 771 q 459 774 500 772 q 374 776 418 775 q 376 792 375 785 q 378 807 378 800 q 388 849 379 831 q 411 883 397 867 q 472 921 433 911 q 519 927 496 928 q 565 921 542 926 q 594 912 581 919 q 618 893 607 904 q 640 871 629 883 q 654 842 650 858 q 665 824 657 831 m 651 -7 q 651 -45 651 -26 q 651 -82 650 -64 q 628 -175 656 -133 q 571 -246 601 -214 q 497 -297 540 -278 q 465 -303 481 -304 q 405 -301 435 -300 q 346 -304 375 -303 q 258 -283 294 -306 q 190 -226 221 -261 q 153 -166 167 -199 q 128 -101 140 -133 q 125 -78 124 -90 q 126 -49 126 -65 q 278 -44 204 -46 q 426 -40 353 -42 q 423 -21 425 -32 q 421 0 421 -10 q 421 42 421 31 q 421 56 421 54 q 421 61 421 58 q 421 76 421 64 q 421 119 421 88 q 417 228 419 174 q 414 338 415 282 q 413 473 413 406 q 414 608 414 540 l 414 650 l 649 650 q 651 639 650 644 q 651 626 651 633 l 651 -7 z "},"k":{"ha":894,"x_min":146,"x_max":738,"o":"m 715 565 q 725 563 719 565 q 738 558 731 561 q 735 478 708 514 q 721 461 729 469 q 733 449 731 456 q 735 431 735 442 l 735 -94 q 734 -102 735 -97 q 733 -114 733 -107 q 697 -115 715 -114 q 658 -111 678 -117 q 633 -104 646 -106 q 608 -100 621 -103 q 531 -68 565 -90 q 464 -18 496 -46 q 422 35 438 6 q 394 96 406 64 q 393 -15 393 40 q 399 -124 393 -69 l 157 -124 l 146 856 q 185 858 154 858 q 258 858 217 858 q 337 858 299 858 q 399 860 375 858 l 394 543 l 394 350 q 431 425 407 388 q 443 440 436 433 q 456 451 450 446 q 482 476 469 463 q 508 500 494 489 q 530 514 518 507 q 553 526 542 521 q 578 536 565 533 q 599 556 592 539 q 611 563 601 560 q 628 565 621 565 q 715 565 672 568 z "},"l":{"ha":694,"x_min":176,"x_max":481,"o":"m 428 858 l 424 542 l 424 211 q 424 97 425 154 q 424 -17 422 40 q 450 -17 438 -17 q 476 -18 463 -18 q 478 -18 476 -18 q 481 -21 479 -18 l 481 -128 q 450 -125 465 -125 q 419 -125 435 -125 l 186 -125 l 176 853 q 215 856 185 856 q 287 856 246 857 q 366 856 328 856 q 428 858 404 857 z "},"m":{"ha":990,"x_min":138,"x_max":928,"o":"m 424 178 q 422 63 424 122 q 417 -57 419 4 l 160 -57 q 149 51 154 -4 q 139 157 144 106 q 138 241 138 206 q 139 276 138 276 l 139 656 l 417 656 q 419 628 419 642 q 419 601 419 614 q 424 178 424 389 m 925 389 l 928 389 q 926 376 926 382 q 926 363 926 369 q 927 356 926 360 q 928 349 928 351 l 926 349 q 925 291 925 319 q 919 233 925 263 q 914 167 914 200 q 911 101 914 135 q 908 40 910 71 q 904 -25 907 10 q 829 -26 865 -24 q 757 -15 793 -28 q 734 -2 740 -10 q 729 22 728 6 q 742 187 736 104 q 756 354 749 269 l 676 356 q 672 304 676 329 q 668 249 668 276 q 665 194 668 222 q 663 144 664 169 q 660 89 661 118 q 597 89 628 90 q 538 97 567 88 q 514 128 513 104 q 525 266 519 197 q 536 404 531 335 l 436 407 l 436 589 q 438 597 438 593 q 439 606 439 601 q 439 620 439 613 q 438 638 439 628 q 442 642 439 639 q 450 646 446 644 q 473 644 461 646 q 496 640 485 643 q 517 637 507 639 q 538 632 528 635 q 544 629 540 631 q 549 626 547 628 q 559 620 554 624 q 569 614 564 617 q 635 553 611 589 q 635 565 635 560 q 636 576 635 571 q 638 587 636 582 q 639 597 639 592 q 638 615 639 606 q 636 636 638 624 q 642 641 638 638 q 653 646 647 644 q 680 644 667 646 q 707 639 693 642 q 733 635 721 638 q 757 629 744 632 q 771 622 763 628 q 783 615 778 618 q 794 607 789 611 q 888 513 860 569 q 925 389 917 457 z "},"n":{"ha":838,"x_min":131,"x_max":721,"o":"m 132 269 l 132 649 l 410 649 q 413 621 413 635 q 413 594 413 607 q 417 172 417 385 q 415 56 417 115 q 410 -62 413 -3 l 153 -62 q 142 44 147 -10 q 132 150 138 99 q 131 234 131 199 q 132 269 131 269 m 719 382 l 721 382 l 721 343 q 719 284 719 313 q 714 226 719 256 q 708 161 708 194 q 706 94 708 128 q 703 34 704 65 q 699 -31 701 3 q 624 -32 660 -29 q 551 -21 588 -35 q 527 -8 533 -15 q 522 15 521 -1 q 536 181 529 97 q 550 347 543 264 l 428 351 q 429 460 429 406 q 429 571 429 515 q 432 581 431 576 q 433 592 433 586 q 433 608 433 599 q 431 631 432 617 q 436 635 432 631 q 446 639 440 639 q 474 638 461 639 q 501 633 488 636 q 526 628 514 632 q 551 622 539 625 q 565 615 557 621 q 589 600 578 610 q 682 507 653 564 q 719 382 711 450 z "},"o":{"ha":863,"x_min":115,"x_max":754,"o":"m 751 371 q 749 337 750 354 q 744 303 747 319 q 739 287 743 293 q 724 286 735 281 q 684 294 704 297 q 644 292 664 290 q 563 295 604 296 q 482 296 522 294 q 315 306 399 300 q 142 317 231 311 q 148 351 144 335 q 153 381 151 367 q 176 464 154 426 q 225 535 197 501 q 281 581 249 563 q 351 607 314 599 q 447 616 400 618 q 540 603 493 614 q 599 580 572 596 q 647 543 625 564 q 691 494 671 521 q 719 435 711 468 q 727 415 722 425 q 742 397 732 404 q 751 387 747 393 q 751 371 754 381 m 136 182 q 131 178 135 181 q 119 171 126 175 q 117 183 118 178 q 117 193 115 188 q 119 235 118 214 q 122 278 121 256 q 126 297 124 289 q 142 307 128 306 q 162 303 156 310 q 171 285 168 296 q 173 282 172 283 q 176 276 174 281 q 226 275 200 275 q 278 274 251 275 q 474 272 376 272 q 668 269 571 271 q 679 268 674 269 q 690 267 685 267 q 708 266 699 265 q 732 268 718 267 q 738 263 733 267 q 742 251 742 258 q 735 194 742 225 q 729 167 733 181 q 722 140 725 154 q 715 126 721 135 q 707 115 711 121 q 700 101 703 108 q 595 3 658 33 q 457 -35 532 -28 q 391 -35 424 -36 q 326 -25 358 -33 q 314 -21 318 -25 q 261 12 288 -6 q 210 47 235 29 q 197 63 203 53 q 188 81 192 72 q 162 131 174 106 q 136 182 150 156 z "},"p":{"ha":876,"x_min":144,"x_max":760,"o":"m 154 -325 l 144 653 q 183 656 153 656 q 255 657 214 657 q 334 657 296 657 q 396 658 372 657 l 392 342 l 392 11 q 392 -158 394 -74 q 396 -325 389 -243 l 154 -325 m 756 376 q 755 326 756 351 q 757 275 754 300 q 746 199 760 233 q 711 133 732 165 q 628 47 676 82 q 518 -7 579 13 q 504 -12 511 -8 q 490 -17 497 -17 l 424 -17 q 423 5 424 -4 q 424 22 422 14 q 426 78 425 50 q 429 132 428 106 q 432 184 429 158 q 436 236 435 210 l 436 329 q 435 379 436 354 q 432 429 433 404 q 431 477 431 453 q 436 524 431 501 q 436 532 438 528 q 432 542 435 536 q 429 553 431 549 q 426 564 428 558 q 428 592 425 578 q 428 619 431 606 q 444 636 424 633 q 482 633 464 636 q 518 624 500 629 q 579 599 550 614 q 636 565 608 583 q 709 491 682 535 q 754 396 736 447 q 756 387 756 392 q 756 376 756 382 z "},"q":{"ha":867,"x_min":107,"x_max":721,"o":"m 711 -297 l 469 -297 q 474 -131 476 -215 q 474 39 472 -46 l 474 369 l 469 686 q 531 685 493 685 q 610 685 569 685 q 682 684 651 685 q 721 681 713 683 l 711 -297 m 154 161 q 120 227 133 193 q 108 303 107 261 q 110 353 111 328 q 110 404 110 379 q 110 415 110 410 q 111 424 110 419 q 156 519 129 475 q 229 593 183 563 q 286 626 257 611 q 347 651 315 642 q 385 660 367 657 q 421 664 403 664 q 438 647 442 661 q 438 619 435 633 q 439 592 440 606 q 436 581 438 586 q 433 569 435 576 q 430 560 432 564 q 428 551 428 556 q 435 505 435 529 q 433 457 435 481 q 431 407 432 432 q 428 357 429 382 q 428 311 428 335 q 429 264 428 288 q 434 212 432 238 q 436 160 436 186 q 440 106 439 133 q 442 50 440 78 q 442 32 443 42 q 442 10 442 22 q 409 10 426 10 q 375 11 392 10 q 361 15 368 11 q 347 19 354 18 q 239 74 288 39 q 154 161 190 110 z "},"r":{"ha":700,"x_min":117,"x_max":636,"o":"m 360 654 l 356 429 l 356 193 q 356 73 358 133 q 360 -44 354 13 l 126 -44 l 117 650 q 155 652 125 651 q 224 652 185 653 q 300 652 263 651 q 360 654 338 653 m 382 625 q 381 640 381 632 q 379 654 381 647 l 636 646 l 636 454 q 634 445 635 450 q 632 436 633 440 q 633 422 632 429 q 635 403 633 414 q 630 398 633 401 q 621 394 626 394 q 597 397 608 394 q 572 400 585 399 q 551 405 561 403 q 529 410 540 407 q 517 415 522 411 q 506 422 511 418 q 496 428 501 425 q 414 513 439 461 q 382 625 389 564 z "},"s":{"ha":739,"x_min":126,"x_max":621,"o":"m 519 619 q 592 546 569 590 q 619 447 614 501 q 621 435 621 442 q 621 422 621 429 l 396 428 q 396 513 396 471 q 397 597 396 554 q 400 613 397 601 q 399 626 400 619 q 397 643 399 633 q 402 646 399 643 q 410 649 406 649 q 431 649 421 650 q 451 644 442 647 q 472 641 463 643 q 490 636 481 639 q 501 631 499 633 q 519 619 511 626 m 375 640 q 386 635 382 639 q 388 625 390 632 q 382 597 379 611 q 383 569 385 583 q 381 513 381 542 q 381 454 382 483 q 374 337 378 396 q 365 215 369 278 q 342 220 353 218 q 321 222 332 222 q 263 240 289 225 q 213 274 236 254 q 180 314 192 290 q 161 364 168 338 q 156 430 154 397 q 164 496 157 463 q 207 571 174 540 q 241 601 222 588 q 282 621 260 615 q 296 627 289 624 q 308 638 303 631 q 328 644 317 647 q 351 642 339 643 q 375 640 364 642 m 500 304 q 568 233 547 276 q 593 139 589 190 q 595 94 596 117 q 588 50 594 72 q 585 42 588 43 q 563 6 574 24 q 538 -28 551 -11 q 527 -37 533 -33 q 514 -44 521 -40 q 481 -61 497 -53 q 446 -79 464 -69 q 449 -83 447 -81 q 454 -89 450 -85 q 445 -92 449 -90 q 438 -92 442 -93 q 410 -90 424 -92 q 381 -87 396 -89 q 368 -86 374 -87 q 360 -75 363 -85 q 375 -54 358 -60 q 378 -53 376 -54 q 382 -51 379 -53 q 382 -17 382 -35 q 383 17 382 0 q 385 150 385 83 q 386 282 385 217 q 389 297 386 289 q 388 310 389 304 q 386 326 388 317 q 391 329 388 326 q 399 332 394 332 q 418 332 408 333 q 438 328 428 331 q 456 324 447 326 q 474 319 464 322 q 479 318 476 319 q 483 315 482 317 l 500 304 m 364 -19 q 365 -33 364 -26 q 367 -51 365 -40 q 362 -56 365 -53 q 353 -60 358 -58 q 331 -58 342 -60 q 308 -54 319 -56 q 288 -49 297 -51 q 267 -46 278 -47 q 261 -43 264 -44 q 256 -40 258 -42 q 245 -34 250 -37 q 235 -28 240 -31 q 158 51 182 3 q 128 156 135 99 q 126 169 126 163 q 126 183 126 176 l 368 176 q 368 87 368 132 q 367 -3 368 42 q 365 -11 367 -7 q 364 -19 364 -15 z "},"t":{"ha":694,"x_min":93,"x_max":592,"o":"m 461 526 q 522 524 492 525 q 582 519 551 522 q 590 471 588 506 q 591 397 592 436 q 585 332 590 358 q 523 334 554 333 q 460 336 492 335 l 460 203 q 460 37 463 119 q 465 -128 458 -46 l 226 -128 l 221 340 q 158 346 190 343 q 93 351 126 349 l 93 450 q 95 499 94 474 q 100 540 96 524 q 113 553 104 557 q 166 549 139 551 q 219 543 193 546 l 217 838 q 256 840 225 840 q 326 840 286 840 q 405 841 367 840 q 465 843 443 842 l 461 531 l 461 526 z "},"u":{"ha":928,"x_min":129,"x_max":726,"o":"m 701 678 q 713 569 707 624 q 724 461 718 514 q 726 378 726 414 q 724 342 725 342 l 724 -37 l 443 -37 q 441 -9 442 -22 q 440 17 440 4 q 436 440 436 229 q 439 557 436 497 q 443 678 442 617 l 701 678 m 329 597 q 317 432 324 515 q 303 264 310 349 l 425 261 q 424 151 424 206 q 424 40 424 96 q 421 30 422 35 q 419 19 419 25 q 420 3 419 11 q 422 -18 421 -4 q 417 -23 421 -19 q 407 -26 413 -26 q 379 -26 393 -28 q 351 -21 365 -24 q 325 -15 338 -18 q 300 -10 313 -12 q 286 -3 294 -8 q 275 3 281 0 q 263 10 269 7 q 169 104 199 47 q 132 229 140 161 l 129 229 q 130 243 129 236 q 131 256 131 250 q 129 263 129 258 q 129 269 129 267 l 131 269 q 131 328 131 299 q 136 385 132 357 q 143 451 142 418 q 146 518 144 485 q 149 578 147 547 q 153 644 151 610 q 229 646 192 643 q 301 635 267 649 q 325 622 318 629 q 329 597 332 615 z "},"v":{"ha":872,"x_min":68,"x_max":806,"o":"m 426 254 l 642 653 q 667 640 647 651 q 714 615 688 629 q 765 586 740 600 q 806 565 790 572 l 703 389 q 690 365 703 389 q 658 308 676 342 q 622 245 639 275 q 599 203 606 215 q 546 107 574 154 q 497 11 518 60 l 493 14 q 463 -3 483 6 q 426 -19 443 -12 q 410 -26 410 -26 q 371 -38 390 -32 q 332 -51 351 -44 q 292 -55 301 -61 q 269 -15 283 -49 q 176 245 217 113 q 89 508 135 378 q 80 538 85 522 q 68 572 75 553 q 92 588 81 579 q 114 600 103 596 q 172 619 143 611 q 229 638 200 628 q 258 640 249 644 q 282 615 268 636 q 318 540 306 581 q 346 463 331 500 q 387 359 367 411 q 426 254 407 307 z "},"w":{"ha":914,"x_min":61,"x_max":851,"o":"m 85 678 l 340 678 q 346 558 343 618 q 349 442 349 499 q 347 231 349 336 q 343 19 346 126 q 343 -6 343 7 q 340 -33 343 -19 l 63 -33 l 63 344 q 61 381 61 344 q 63 464 61 417 q 74 571 68 517 q 85 678 79 625 m 850 272 l 851 272 q 851 265 851 268 q 850 258 850 261 q 850 246 850 253 q 851 232 850 239 l 849 232 q 812 108 840 164 q 718 14 783 51 q 707 6 713 10 q 694 0 701 3 q 681 -7 686 -6 q 656 -12 668 -10 q 631 -18 644 -15 q 603 -22 617 -19 q 576 -24 590 -24 q 566 -19 571 -24 q 560 -15 561 -15 q 562 6 561 -3 q 563 24 563 15 q 561 33 563 28 q 560 43 560 39 q 560 56 560 50 q 558 68 560 63 q 493 7 535 32 q 483 1 488 4 q 474 -4 478 -1 q 461 -10 469 -7 q 441 -14 451 -11 q 419 -19 431 -17 q 374 -24 397 -24 q 366 -20 369 -24 q 361 -17 363 -17 q 363 1 363 -6 q 363 15 363 8 q 362 24 363 19 q 360 32 361 28 l 360 214 l 460 217 q 449 356 454 286 q 438 493 443 425 q 461 524 436 517 q 521 533 490 535 q 583 532 551 531 q 586 477 585 503 q 589 426 588 451 q 592 372 592 400 q 596 317 592 344 q 600 264 600 292 l 679 267 q 666 433 672 350 q 653 599 660 517 q 658 624 651 617 q 681 636 664 631 q 753 647 717 650 q 828 646 789 644 q 832 580 831 611 q 835 519 833 549 q 838 453 838 486 q 843 388 838 419 q 849 330 849 358 q 850 272 850 301 z "},"x":{"ha":815,"x_min":82,"x_max":717,"o":"m 533 360 q 572 303 553 332 q 610 246 592 274 q 666 165 638 206 q 717 78 694 125 l 532 -47 q 517 -32 524 -40 q 458 55 488 11 q 397 142 428 99 q 390 131 394 136 q 383 119 386 126 q 332 36 357 78 q 272 -43 307 -6 l 82 75 q 87 84 85 79 q 90 93 89 89 q 174 228 132 161 q 258 364 215 296 q 223 416 240 390 q 189 468 206 442 q 143 541 165 504 q 97 615 121 578 l 274 736 q 331 656 303 697 q 386 574 358 614 q 392 567 389 571 q 396 561 394 564 q 406 578 401 569 q 417 594 411 586 q 465 666 440 631 q 514 736 489 701 l 696 624 q 645 540 672 581 q 593 456 618 499 q 564 408 579 432 q 533 360 549 383 z "},"y":{"ha":818,"x_min":106,"x_max":739,"o":"m 600 497 l 639 496 q 688 490 663 493 q 739 483 713 486 q 731 443 735 463 q 722 404 728 424 q 657 285 704 336 q 625 221 640 253 q 580 131 603 176 q 533 42 557 86 q 488 -46 511 -1 q 442 -135 465 -90 q 397 -224 419 -179 q 344 -311 375 -269 l 151 -212 q 156 -202 154 -207 q 158 -193 157 -197 q 233 -47 196 -119 q 307 97 269 25 q 316 109 310 104 q 325 119 322 114 q 339 139 333 131 q 347 156 343 147 q 356 171 351 164 q 277 202 314 181 q 207 250 240 224 q 150 314 172 278 q 117 393 128 350 q 109 436 111 414 q 107 479 107 458 q 112 503 106 499 q 136 508 118 508 q 279 506 208 507 q 421 503 350 504 q 506 500 464 501 q 589 496 547 499 q 600 497 590 494 z "},"z":{"ha":731,"x_min":78,"x_max":629,"o":"m 547 150 q 578 169 558 161 q 615 161 599 176 q 624 135 621 157 q 628 92 626 113 q 629 71 629 71 l 629 -1 q 622 -37 629 -31 q 586 -46 615 -43 q 365 -51 476 -54 q 143 -51 254 -49 l 89 -51 q 83 -27 88 -39 q 79 -6 79 -15 q 78 49 78 22 q 79 103 79 76 q 96 136 79 129 q 121 165 108 153 q 232 291 176 228 q 343 415 288 354 q 354 428 351 424 l 79 428 l 79 628 q 100 629 90 629 q 118 629 110 629 q 421 633 271 633 q 503 631 461 633 q 589 628 546 629 l 589 443 q 536 376 563 410 q 485 310 510 342 q 442 260 461 281 q 421 240 422 239 l 349 160 q 386 162 368 161 q 422 164 404 163 q 469 166 446 165 q 514 168 492 167 q 547 150 535 169 z "},"":{"ha":1389,"x_min":188,"x_max":1186,"o":"m 540 683 l 540 697 l 274 697 l 274 988 q 303 990 289 990 q 331 990 317 990 q 444 992 388 992 q 556 993 500 993 q 560 1055 558 1024 q 563 1121 561 1086 q 642 1122 603 1119 q 719 1111 681 1125 q 744 1098 738 1106 q 749 1072 751 1090 q 746 1033 747 1053 q 743 994 744 1014 l 769 994 q 890 992 829 994 q 1015 988 951 990 l 1015 719 q 903 708 960 714 q 792 697 846 703 q 753 696 772 696 q 718 694 735 696 q 707 674 717 678 q 671 672 697 671 q 607 677 639 674 q 540 683 575 681 m 261 46 q 244 88 251 68 q 226 125 236 107 q 192 235 196 178 q 194 349 188 292 q 225 442 201 399 q 285 522 249 486 q 384 601 331 569 q 499 654 438 632 q 581 671 539 669 q 661 664 622 672 q 744 642 701 657 q 818 596 786 628 q 842 578 829 586 q 871 571 854 571 q 889 566 881 571 q 903 549 897 561 q 923 508 911 528 q 944 468 935 488 q 949 446 950 457 q 932 433 947 435 q 883 414 901 433 q 840 382 864 394 q 772 344 806 365 q 706 300 739 322 l 706 183 q 703 156 706 169 q 690 136 701 143 q 656 132 672 135 q 628 130 642 131 q 601 131 615 129 q 576 161 576 133 q 576 192 576 176 q 575 224 575 208 q 420 136 499 181 q 261 46 342 92 m 967 -78 l 760 278 q 894 360 828 318 q 1029 442 961 401 q 1044 447 1036 444 q 1057 453 1051 450 q 1078 467 1068 460 q 1103 486 1088 475 q 1113 483 1106 485 q 1125 474 1121 481 q 1158 403 1146 440 q 1171 369 1165 386 q 1182 335 1176 351 q 1185 324 1185 329 q 1185 313 1185 319 q 1185 293 1185 303 q 1183 274 1185 283 q 1136 90 1186 168 q 1006 -50 1086 11 q 986 -64 996 -57 q 967 -78 976 -71 z "},"":{"ha":1389,"x_min":279,"x_max":1097,"o":"m 553 738 q 556 788 556 761 q 558 842 557 814 q 652 843 607 840 q 740 831 697 846 q 769 815 761 825 q 775 785 778 806 l 771 739 q 864 736 817 738 q 958 732 911 735 l 958 513 q 866 503 913 508 q 775 494 819 499 q 764 494 769 494 q 753 493 758 493 l 749 443 q 797 411 774 433 q 816 398 806 404 q 840 390 826 392 q 865 372 858 390 q 882 339 872 356 q 900 306 892 322 q 903 288 904 297 q 890 279 903 279 q 849 262 865 278 q 814 236 833 246 q 778 216 796 226 q 743 194 761 206 l 743 104 q 741 67 743 86 q 724 38 739 49 q 696 35 708 36 q 672 32 683 33 q 635 30 654 31 q 597 31 617 29 q 563 72 563 33 l 563 86 q 452 24 508 56 q 339 -39 396 -7 q 324 -4 331 -19 q 311 25 318 11 q 282 115 285 68 q 285 208 279 161 q 310 285 290 249 q 358 351 329 321 q 440 415 396 389 q 535 458 485 440 l 535 460 q 536 476 536 468 q 538 494 536 485 l 350 494 l 350 732 q 374 735 361 735 q 396 735 386 735 q 475 735 436 735 q 553 738 514 736 m 918 -140 l 749 150 q 859 218 804 185 q 969 285 914 251 q 981 290 975 288 q 992 294 986 292 q 1008 305 1000 299 q 1029 321 1017 311 q 1038 318 1032 319 q 1049 311 1044 317 q 1075 253 1064 286 q 1086 225 1082 239 q 1094 197 1090 211 q 1097 188 1097 193 q 1097 179 1097 183 q 1096 163 1096 171 q 1096 147 1096 156 q 1056 -4 1097 60 q 950 -118 1015 -68 q 933 -129 942 -124 q 918 -140 925 -135 z "},"":{"ha":1389,"x_min":185,"x_max":1142,"o":"m 211 772 q 193 799 201 782 q 199 829 185 815 q 225 838 203 835 q 268 842 247 840 q 289 843 289 843 q 327 844 308 843 q 364 844 346 844 q 399 838 393 844 q 408 808 406 832 q 418 622 419 715 q 421 436 417 529 l 421 390 q 397 385 408 389 q 374 382 385 382 q 319 381 347 381 q 264 381 292 381 q 239 384 246 379 q 225 404 232 389 q 215 460 215 432 q 211 515 214 489 q 204 590 207 553 q 199 667 201 628 q 197 706 197 686 q 193 744 196 726 q 211 772 190 761 m 1003 417 q 976 450 976 419 q 983 620 979 536 q 990 789 988 704 q 991 791 990 789 q 994 796 992 793 l 1142 796 q 1140 717 1138 756 q 1133 638 1142 678 q 1126 566 1126 603 q 1124 493 1125 529 q 1122 465 1122 479 q 1119 438 1121 451 q 1089 406 1115 404 q 1045 410 1067 408 q 1003 417 1024 411 m 215 300 q 212 326 210 311 q 214 361 214 342 q 391 366 304 364 q 564 371 478 368 q 589 377 563 375 q 654 380 615 379 q 733 381 693 381 q 799 380 772 381 q 825 379 825 379 q 824 350 825 357 q 825 322 824 343 q 796 214 829 261 q 731 131 765 169 q 644 72 696 93 q 607 65 629 63 q 538 67 572 68 q 469 64 503 65 q 367 88 410 61 q 289 154 325 114 q 246 224 261 186 q 215 300 231 261 z "},"":{"ha":1389,"x_min":275,"x_max":1085,"o":"m 468 644 q 476 484 476 564 q 478 325 475 404 q 479 307 479 317 q 479 286 479 297 q 458 281 468 285 q 439 278 449 278 q 392 276 415 276 q 344 276 368 276 q 322 280 328 276 q 310 297 317 283 q 301 345 301 321 q 299 393 301 369 q 292 458 294 425 q 288 522 290 490 q 285 557 286 540 q 282 589 285 574 q 299 614 281 604 q 282 636 289 622 q 288 663 275 650 q 310 669 292 667 q 347 674 329 672 q 365 675 365 675 l 429 675 q 460 671 454 676 q 468 644 465 665 m 926 649 l 1085 649 q 1081 574 1079 611 q 1075 501 1083 538 q 1067 433 1067 468 q 1064 365 1067 399 q 1063 340 1063 353 q 1060 314 1063 326 q 1051 292 1058 300 q 1026 285 1043 283 q 980 288 1003 286 q 935 294 957 289 q 906 325 906 297 q 913 484 908 406 q 921 643 918 563 q 922 644 921 643 q 926 649 922 646 m 586 278 q 608 283 586 281 q 661 285 629 285 q 726 285 693 286 q 780 285 758 285 q 801 285 801 285 q 801 261 801 267 q 801 238 800 256 q 778 149 806 189 q 724 82 753 113 q 653 33 694 51 q 622 28 638 26 q 565 29 594 31 q 508 26 536 28 q 426 47 461 25 q 361 100 390 68 q 326 158 339 126 q 301 219 313 189 q 299 242 297 229 q 300 269 300 254 q 444 274 374 272 q 586 278 515 276 z "},"":{"ha":1389,"x_min":296,"x_max":1083,"o":"m 626 886 q 533 892 579 890 q 440 899 488 894 q 434 950 436 914 q 433 1026 432 986 q 439 1093 435 1067 q 501 1090 471 1092 q 563 1088 532 1088 q 628 1088 594 1086 q 693 1086 661 1089 q 756 1081 724 1085 q 821 1072 788 1076 l 821 971 q 819 921 821 947 q 815 878 818 894 q 806 865 813 861 q 717 876 763 869 q 626 886 671 882 m 349 550 q 328 556 339 553 q 301 563 318 558 q 299 571 301 564 q 297 583 296 578 q 310 615 303 600 q 324 644 317 631 q 340 672 331 660 q 356 699 349 685 q 362 706 358 703 q 368 713 365 710 q 382 723 375 718 q 394 733 389 728 q 543 806 464 794 q 707 800 622 818 q 726 794 717 797 q 746 789 736 792 l 629 454 q 501 497 565 476 q 372 539 436 518 q 361 545 367 542 q 349 550 356 549 m 760 761 q 769 775 761 772 q 788 775 778 778 q 834 758 813 769 q 876 731 856 746 q 943 674 913 706 q 1003 607 974 642 q 1065 485 1049 551 q 1083 346 1082 418 q 1082 334 1083 340 q 1078 321 1081 328 q 1056 256 1068 289 q 1038 190 1044 224 q 993 99 1024 138 q 922 29 963 61 q 621 -69 790 -69 q 601 -70 611 -68 q 581 -69 590 -72 q 538 -57 558 -64 q 496 -44 517 -50 q 505 -16 501 -29 q 513 7 508 -3 q 538 76 525 42 q 563 142 550 110 q 588 208 575 175 q 615 272 601 240 q 635 331 626 301 q 654 390 644 360 q 672 455 664 422 q 689 518 679 488 q 707 580 697 550 q 733 636 717 610 q 735 648 736 642 q 733 661 735 654 q 735 676 736 668 q 736 692 735 685 q 749 726 740 710 q 760 761 758 742 z "},"":{"ha":1389,"x_min":371,"x_max":1017,"o":"m 582 831 q 643 831 613 829 q 704 829 674 832 q 764 824 733 828 q 825 815 794 819 l 825 719 q 824 673 825 697 q 821 633 824 649 q 811 619 818 617 q 727 631 769 625 q 642 640 685 636 q 555 646 599 643 q 467 653 511 649 q 461 700 463 667 q 461 772 460 733 q 465 835 463 810 q 524 832 494 833 q 582 831 553 831 m 415 390 q 398 395 407 393 q 376 400 389 397 q 374 407 376 401 q 372 418 371 413 q 383 443 376 431 q 394 468 389 456 q 421 513 406 489 q 431 522 425 518 q 442 532 436 528 q 453 540 447 536 q 574 600 510 590 q 708 594 639 610 q 725 591 717 593 q 740 586 733 589 l 644 313 q 539 347 592 329 q 433 381 486 364 q 424 386 429 383 q 415 390 419 389 m 638 -118 q 621 -118 629 -117 q 604 -118 613 -119 q 569 -108 586 -114 q 536 -97 553 -103 q 543 -74 540 -85 q 550 -54 546 -64 q 570 1 560 -26 q 590 56 581 29 q 612 110 601 83 q 633 163 622 136 q 649 210 642 186 q 665 260 657 235 q 679 312 672 286 q 693 364 686 338 q 708 414 700 389 q 729 461 717 439 q 731 470 732 465 q 731 481 731 475 q 731 494 732 488 q 732 506 731 500 q 742 534 735 521 q 751 564 750 547 q 774 575 753 581 q 812 560 794 569 q 847 538 829 550 q 903 491 878 517 q 950 438 928 465 q 1002 336 989 390 q 1017 222 1015 282 q 1015 212 1017 217 q 1013 203 1014 207 q 995 150 1004 176 q 979 96 986 124 q 943 22 969 53 q 885 -36 917 -10 q 769 -97 831 -78 q 638 -118 707 -117 z "},"":{"ha":1389,"x_min":197,"x_max":1229,"o":"m 640 822 q 537 829 589 826 q 432 836 485 832 q 426 894 428 853 q 424 981 424 935 q 429 1056 425 1026 q 500 1052 465 1054 q 569 1050 535 1050 q 643 1050 606 1049 q 717 1049 681 1051 q 788 1042 751 1047 q 861 1032 824 1036 l 861 918 q 860 862 861 892 q 856 813 858 832 q 844 799 853 794 q 744 810 794 804 q 640 822 693 817 m 283 61 q 249 97 267 79 q 215 133 231 115 q 197 158 197 151 q 210 178 197 164 q 265 232 238 206 q 318 286 292 258 l 515 483 q 425 483 471 483 q 335 482 379 483 l 269 482 q 262 511 267 497 q 257 539 257 525 q 256 605 256 572 q 257 672 257 638 q 265 703 257 696 q 294 718 272 711 q 376 731 335 731 q 456 733 417 731 q 563 740 508 738 q 674 744 618 742 q 731 748 703 747 q 785 751 758 749 q 809 747 800 753 q 826 729 818 740 q 865 751 840 740 q 908 742 889 761 q 917 721 914 738 q 923 684 921 704 q 926 649 925 664 q 926 633 926 633 l 926 543 q 925 535 926 538 q 925 524 926 529 q 917 501 924 507 q 890 492 910 494 q 885 489 888 490 q 879 485 882 488 q 870 476 875 481 q 863 467 865 472 q 796 390 832 425 q 724 321 760 356 q 774 278 749 299 q 826 238 800 258 l 967 378 q 1071 278 1019 328 q 1174 178 1122 228 q 1182 167 1178 172 q 1190 156 1186 161 q 1206 141 1197 149 q 1229 122 1215 133 q 1229 113 1229 121 q 1224 100 1229 106 q 1199 76 1213 86 q 1169 54 1185 65 q 1142 35 1156 44 q 1115 18 1129 26 q 1096 11 1108 14 q 1078 8 1088 10 q 1061 3 1069 6 q 887 3 968 -22 q 733 85 806 29 l 732 85 q 727 81 728 82 q 728 82 726 81 q 718 91 722 86 q 708 100 714 96 q 655 146 682 124 q 600 190 628 168 q 599 191 599 190 q 599 192 599 192 q 567 160 583 176 q 535 129 551 144 q 492 86 514 107 q 450 46 471 65 q 414 17 432 31 q 379 -10 396 3 q 362 -19 367 -19 q 342 -3 357 -18 q 313 29 328 13 q 283 61 299 46 z "},"":{"ha":1389,"x_min":292,"x_max":1139,"o":"m 582 793 q 646 793 614 792 q 710 792 678 794 q 772 786 740 790 q 836 778 804 782 l 836 678 q 835 629 836 656 q 831 586 833 603 q 821 574 828 569 q 733 584 778 578 q 643 594 688 590 q 553 601 599 599 q 461 607 507 603 q 455 658 457 622 q 454 733 453 693 q 458 799 456 772 q 521 795 490 797 q 582 793 551 793 m 363 -15 q 334 14 349 -1 q 306 43 319 29 q 292 63 292 57 q 303 79 292 69 q 347 123 325 101 q 390 167 369 144 l 553 329 q 478 329 515 329 q 404 328 442 329 l 351 328 q 346 352 350 340 q 342 375 342 364 q 341 430 340 403 q 342 483 342 457 q 347 510 342 503 q 371 522 353 517 q 438 533 404 533 q 503 533 471 532 q 592 540 547 538 q 682 544 638 542 q 728 547 706 546 q 774 549 751 547 q 807 531 794 550 q 838 549 818 542 q 875 542 858 557 q 883 515 881 538 q 888 472 886 493 q 889 451 889 451 l 889 371 q 890 368 890 369 q 889 364 889 367 q 881 344 888 349 q 860 336 875 339 q 856 333 858 335 q 851 331 854 332 q 844 324 849 326 q 838 315 840 321 q 802 274 821 293 q 764 235 783 254 q 847 168 806 200 l 924 243 q 1008 160 965 201 q 1093 79 1050 119 q 1099 70 1096 75 q 1106 61 1103 65 q 1120 49 1113 56 q 1139 33 1128 43 q 1138 26 1138 32 q 1133 15 1138 19 q 1113 -3 1124 6 q 1089 -21 1101 -12 q 1067 -37 1079 -29 q 1044 -51 1056 -44 q 1029 -57 1038 -54 q 1015 -60 1022 -58 q 1000 -64 1007 -61 q 869 -67 931 -82 q 753 -12 808 -51 q 748 -16 749 -15 q 749 -15 747 -17 q 738 -5 743 -10 q 728 4 733 0 q 675 48 701 26 q 622 92 649 69 l 569 39 q 499 -28 535 4 q 470 -52 485 -40 q 440 -75 456 -64 q 426 -83 431 -83 q 411 -69 422 -82 q 386 -42 399 -56 q 363 -15 374 -29 z "},"":{"ha":1389,"x_min":140,"x_max":1247,"o":"m 217 121 q 210 130 214 125 q 201 140 206 135 q 149 249 158 190 q 154 369 140 307 q 171 423 161 397 q 196 471 181 449 q 201 481 199 478 q 242 514 222 497 q 283 546 263 531 q 299 552 290 550 q 317 556 308 554 q 364 563 340 560 q 411 569 388 565 q 410 576 411 572 q 406 586 408 581 q 417 585 413 585 q 425 582 421 585 q 458 569 442 576 q 492 556 475 563 q 503 551 499 554 q 510 542 508 549 q 521 553 513 550 q 518 553 519 553 q 514 554 517 554 q 514 614 514 585 q 513 671 514 643 l 249 671 l 249 889 q 271 890 260 890 q 292 890 282 890 q 403 892 347 892 q 514 893 458 893 q 514 944 514 919 q 513 990 514 968 q 533 1016 511 1013 q 597 1015 554 1019 q 699 1004 639 1010 q 700 948 700 975 q 700 893 700 921 l 804 889 l 804 688 q 753 683 779 686 q 701 678 728 681 q 701 634 701 656 q 699 589 700 613 q 694 570 697 579 q 690 549 692 561 q 645 553 668 554 q 599 549 622 551 q 699 539 649 544 q 800 519 749 533 q 845 515 822 515 q 890 513 868 515 q 912 510 901 511 q 933 506 922 508 q 994 507 949 517 q 1111 485 1040 497 q 1106 394 1110 438 q 1099 307 1101 350 q 1095 253 1097 281 q 1090 200 1093 225 q 1083 136 1086 168 q 1075 72 1079 104 q 1069 53 1074 63 q 1063 32 1065 44 q 1005 41 1035 42 q 946 41 975 40 q 889 53 917 42 q 897 157 893 106 q 904 260 900 208 q 909 298 907 278 q 913 340 911 318 q 851 345 882 343 q 788 351 819 347 q 753 357 769 354 q 719 361 736 360 q 719 345 719 353 q 718 329 719 338 q 701 251 715 288 q 667 179 688 215 q 633 138 653 156 q 590 110 614 121 q 542 88 568 97 q 486 79 515 78 q 467 79 476 81 q 450 71 458 78 q 426 69 439 63 q 400 82 414 76 q 374 93 386 88 q 363 102 367 96 q 367 114 360 108 q 383 144 381 126 q 390 176 385 161 q 415 240 406 207 q 436 306 424 274 q 468 390 451 347 q 503 475 485 432 l 507 524 q 485 515 500 515 q 482 515 483 515 q 476 514 481 514 q 463 474 469 494 q 449 432 456 453 q 397 278 422 356 q 344 122 371 200 q 340 114 343 118 q 336 106 338 110 q 332 90 335 99 q 326 71 329 82 q 321 68 325 71 q 311 67 317 65 q 267 88 286 75 q 247 99 257 93 q 226 111 238 106 l 217 121 m 1118 626 q 1045 684 1082 656 q 972 742 1008 713 q 955 760 963 750 q 938 779 947 769 l 1010 872 q 1035 853 1024 863 q 1060 833 1047 843 q 1149 764 1104 799 q 1240 693 1194 729 q 1232 673 1247 689 q 1194 640 1217 657 q 1155 611 1171 622 q 1144 604 1139 600 q 1131 615 1138 610 q 1118 626 1125 621 m 514 553 l 513 554 q 513 556 513 554 l 513 554 q 514 554 514 554 q 514 554 514 554 l 514 553 m 889 51 l 886 54 q 889 53 888 54 l 889 51 z "},"":{"ha":1389,"x_min":218,"x_max":1146,"o":"m 492 325 q 481 293 486 310 q 469 258 475 276 q 426 131 447 194 q 385 4 406 68 l 376 -8 q 374 -20 375 -14 q 369 -37 372 -26 q 365 -39 368 -37 q 357 -39 361 -40 q 338 -32 347 -36 q 321 -24 329 -28 q 303 -13 311 -18 q 288 -4 296 -8 q 284 0 286 -1 q 279 3 282 1 q 273 11 276 7 q 267 18 269 15 q 224 108 231 60 q 229 207 218 156 q 242 250 235 229 q 261 290 250 271 q 267 297 264 296 q 300 325 283 311 q 335 351 317 339 q 348 356 340 354 q 361 360 356 358 q 400 365 381 363 q 439 371 419 368 q 435 385 439 375 q 444 383 440 383 q 450 382 447 383 q 477 371 464 376 q 504 360 490 365 q 519 346 518 356 q 524 351 521 349 q 523 403 524 378 q 522 454 522 429 l 351 454 l 351 633 q 370 635 361 635 q 386 635 379 635 q 455 635 421 635 q 522 636 489 636 q 524 687 524 663 q 521 733 524 711 q 565 758 519 763 q 690 746 610 753 q 692 691 692 718 q 693 636 692 664 q 749 635 721 636 q 807 633 778 633 l 807 468 q 750 463 779 465 q 693 457 721 460 q 692 413 693 435 q 690 371 692 392 q 688 359 689 365 q 685 346 688 353 q 800 325 740 340 q 833 320 815 321 q 868 318 850 319 q 919 319 882 328 q 1013 301 956 311 q 1008 227 1011 263 q 1001 156 1004 192 q 1000 111 1001 133 q 996 68 999 89 l 983 -36 q 979 -50 982 -43 q 974 -68 976 -57 q 901 -61 939 -57 q 831 -51 864 -65 q 837 33 833 -8 q 843 117 840 75 q 845 136 844 126 q 847 156 846 146 q 818 160 833 158 q 788 163 803 161 q 740 169 764 165 q 690 175 715 172 l 690 174 q 676 110 688 140 q 647 51 665 79 q 622 18 638 32 q 586 -6 606 4 q 546 -23 568 -15 q 500 -29 524 -31 q 485 -30 493 -29 q 471 -36 478 -31 q 451 -37 461 -43 q 431 -28 442 -32 q 408 -18 419 -24 q 399 -11 403 -15 q 401 -1 396 -7 q 415 22 414 8 q 422 49 417 36 q 442 101 433 74 q 460 154 450 128 q 486 224 472 189 q 514 294 500 260 q 515 312 514 303 q 517 331 515 321 l 517 333 q 499 326 514 326 q 492 325 496 326 m 1017 390 q 944 448 981 419 q 871 506 907 476 q 854 523 863 514 q 838 542 846 532 l 908 635 q 935 616 922 625 q 958 596 947 607 q 1048 526 1003 561 q 1139 457 1093 492 q 1130 436 1146 451 q 1092 403 1114 421 q 1053 375 1069 386 q 1042 368 1038 364 q 1030 379 1036 374 q 1017 390 1024 385 m 831 -53 l 828 -50 q 831 -51 829 -51 l 831 -53 z "},"":{"ha":1389,"x_min":75,"x_max":1350,"o":"m 1022 981 q 1067 988 1057 994 q 1096 946 1078 982 q 1213 672 1161 811 q 1324 394 1265 532 q 1335 365 1329 381 q 1350 328 1342 349 q 1324 308 1336 318 q 1299 293 1313 299 q 1233 267 1265 279 q 1168 242 1200 254 q 1135 236 1146 232 q 1106 261 1124 240 q 1062 340 1078 297 q 1026 421 1046 382 q 976 531 1000 475 q 926 642 951 586 q 901 699 913 671 q 874 754 889 728 q 869 781 867 769 q 879 806 871 793 q 842 836 861 815 q 833 885 824 857 q 850 902 835 892 q 885 922 865 913 q 919 939 904 932 q 933 946 933 946 q 978 963 957 954 q 1022 981 1000 971 m 267 518 q 267 536 267 528 q 265 553 267 544 l 75 553 l 75 811 q 97 814 86 814 q 118 814 108 814 q 194 815 157 814 q 271 817 232 815 l 274 931 q 328 929 301 929 q 382 928 356 929 q 433 928 407 928 q 489 926 460 928 q 490 903 490 915 q 490 882 490 892 l 490 817 q 533 815 511 815 q 576 813 554 814 q 585 817 579 817 q 608 815 596 817 q 631 811 619 814 q 653 807 642 810 q 674 801 664 804 q 685 796 679 801 l 706 783 q 776 717 751 757 q 810 629 800 676 q 815 607 813 624 q 821 467 822 538 q 821 325 819 396 l 821 290 q 801 286 811 289 q 779 283 790 283 q 731 283 756 282 q 683 283 707 283 q 661 288 667 283 q 649 303 656 292 q 641 345 640 324 q 639 388 642 367 q 634 444 636 415 q 629 503 632 474 q 628 533 628 518 q 625 561 628 547 l 625 565 l 572 567 q 531 563 551 565 q 489 557 510 560 l 489 533 q 485 438 488 486 q 481 338 483 389 l 281 342 q 274 431 278 386 q 267 518 269 475 m 572 261 q 594 266 572 264 q 651 269 617 268 q 718 269 685 269 q 774 268 751 268 q 797 268 797 268 q 797 243 797 249 q 797 219 796 238 q 772 126 801 169 q 716 56 746 88 q 642 4 686 24 q 610 0 626 -3 q 550 1 581 1 q 490 -1 519 0 q 403 19 439 -3 q 335 75 367 40 q 298 135 311 103 q 272 200 285 168 q 269 223 268 210 q 271 253 271 236 q 424 258 349 256 q 572 261 499 260 z "},"":{"ha":1389,"x_min":32,"x_max":1376,"o":"m 836 749 q 800 779 819 758 q 790 828 781 800 q 807 845 792 835 q 842 865 822 856 q 876 882 861 875 q 890 889 890 889 q 913 897 901 893 q 936 906 925 901 q 936 924 936 915 q 938 942 936 932 q 941 952 938 947 q 946 963 944 957 q 963 990 954 976 q 979 1018 971 1004 q 968 1022 974 1021 q 973 1028 971 1025 q 978 1032 975 1031 q 999 1043 989 1038 q 1021 1054 1010 1049 q 1030 1059 1025 1057 q 1040 1054 1035 1061 q 1039 1033 1049 1046 q 1036 1029 1039 1033 q 1051 1004 1043 1017 q 1067 979 1058 992 q 1126 885 1096 932 q 1186 792 1156 839 q 1188 787 1188 790 q 1190 781 1189 783 q 1197 772 1193 776 q 1206 761 1200 768 q 1203 756 1204 760 q 1200 751 1203 753 q 1185 742 1193 746 q 1171 736 1178 739 q 1156 731 1164 733 q 1142 725 1149 728 q 1132 724 1138 724 l 1126 724 q 1203 531 1167 628 q 1281 338 1240 433 q 1292 307 1286 324 q 1307 271 1299 290 q 1281 251 1293 261 q 1256 236 1269 242 q 1191 210 1224 222 q 1125 185 1158 197 q 1092 179 1103 175 q 1064 204 1081 183 q 1019 283 1036 240 q 983 364 1003 325 q 933 473 957 417 q 883 585 908 529 q 858 642 869 614 q 832 697 846 671 q 826 724 824 713 q 836 749 828 735 m 1233 1019 q 1307 981 1274 1014 q 1341 938 1328 961 q 1364 889 1354 915 q 1368 819 1376 853 q 1359 784 1365 801 q 1339 751 1353 767 q 1328 729 1329 742 q 1319 715 1328 718 q 1301 708 1310 713 q 1283 699 1293 703 q 1269 703 1272 690 q 1261 725 1269 717 q 1247 743 1253 733 q 1224 783 1238 764 q 1199 822 1211 801 q 1151 905 1175 863 q 1103 990 1128 947 q 1122 998 1114 994 q 1138 1006 1131 1001 q 1184 1021 1160 1019 q 1233 1019 1208 1022 m 224 461 l 224 496 l 32 496 l 32 754 q 54 756 43 756 q 75 756 65 756 q 152 758 114 757 q 228 758 190 758 l 231 872 q 285 872 258 872 q 339 871 313 872 q 390 870 364 871 q 446 869 417 869 q 448 847 449 858 q 447 824 447 835 l 447 760 q 490 758 468 758 q 533 756 511 757 q 538 758 536 757 q 542 760 540 760 q 565 758 553 760 q 588 754 576 757 q 610 750 599 753 q 631 744 621 747 q 643 739 639 742 q 652 733 647 736 q 663 726 657 729 q 733 660 708 700 q 767 571 757 619 q 772 550 771 565 q 778 408 781 479 q 778 267 776 338 l 778 233 q 758 229 768 232 q 736 226 747 226 q 689 226 713 225 q 640 226 665 226 q 618 230 624 226 q 606 246 613 233 q 598 288 597 267 q 596 331 599 310 q 592 388 593 358 q 588 446 590 417 q 585 476 586 461 q 582 504 585 490 l 582 508 l 529 510 q 488 505 508 507 q 446 500 467 503 l 446 475 q 442 379 444 428 q 438 281 440 331 l 238 283 q 231 373 235 328 q 224 461 226 418 m 529 204 q 551 209 529 207 q 608 212 574 211 q 675 212 642 213 q 731 211 708 211 q 754 211 754 211 q 753 186 754 192 q 754 161 753 181 q 729 69 758 110 q 673 -1 703 31 q 599 -51 643 -32 q 567 -57 583 -58 q 507 -56 538 -54 q 447 -58 476 -57 q 360 -38 396 -61 q 292 18 324 -15 q 255 78 268 46 q 229 143 242 111 q 226 166 225 153 q 228 196 228 179 q 381 201 306 199 q 529 204 456 203 z "},"":{"ha":1389,"x_min":313,"x_max":1063,"o":"m 568 697 l 626 701 l 626 760 l 392 760 l 392 1011 q 417 1013 404 1013 q 440 1013 431 1013 q 533 1015 488 1014 q 626 1015 579 1015 q 628 1037 626 1026 q 635 1060 629 1047 q 678 1058 657 1060 q 721 1057 700 1057 q 757 1058 740 1057 q 792 1060 774 1058 q 813 1056 808 1060 q 818 1036 818 1051 q 818 1026 818 1031 q 817 1017 818 1022 l 819 1017 q 924 1015 871 1017 q 1032 1011 976 1013 l 1032 779 q 935 770 983 775 q 839 760 886 765 l 818 760 l 818 711 q 867 713 843 713 q 915 717 892 714 q 940 712 931 718 q 958 693 950 706 q 999 716 974 706 q 1044 707 1024 726 q 1053 685 1050 703 q 1059 647 1057 668 q 1062 609 1061 625 q 1063 593 1063 593 l 1063 499 q 1053 453 1063 461 q 1007 443 1044 446 q 913 438 960 439 q 818 435 865 436 q 815 397 817 415 q 811 358 814 378 q 807 341 810 344 q 789 339 804 338 q 757 341 774 340 q 725 343 740 342 q 688 344 707 344 q 651 346 669 344 q 630 350 633 346 q 626 371 626 354 l 626 435 q 535 435 581 435 q 443 435 489 436 l 374 435 q 366 465 371 450 q 361 494 361 481 q 360 565 360 531 q 361 633 361 599 q 369 666 361 657 q 400 682 376 675 q 484 695 442 696 q 568 697 526 694 m 315 269 q 317 294 313 281 q 325 326 322 308 q 526 290 428 308 q 722 256 625 272 q 753 256 722 260 q 828 243 783 251 q 917 225 872 235 q 991 209 961 215 q 1021 203 1021 203 q 1015 176 1017 182 q 1010 150 1013 169 q 957 57 1006 96 q 867 -3 914 24 q 758 -37 819 -29 q 738 -38 749 -39 q 715 -35 726 -37 q 638 -17 678 -24 q 558 -4 599 -11 q 447 40 490 7 q 371 119 403 74 q 335 194 344 156 q 315 269 325 232 z "},"":{"ha":1389,"x_min":233,"x_max":1200,"o":"m 572 289 q 551 293 554 289 q 547 314 547 297 l 547 378 q 455 378 501 378 q 363 376 408 378 l 294 376 q 287 408 292 393 q 282 438 282 424 q 281 507 281 472 q 282 576 282 542 q 289 608 282 600 q 319 625 296 617 q 404 638 361 638 q 489 640 447 638 l 547 644 l 547 703 l 313 703 l 313 953 q 338 956 325 956 q 361 956 350 956 q 453 957 407 957 q 546 958 500 957 q 556 1003 546 979 q 599 1001 576 1003 q 642 1000 621 1000 q 676 1001 660 1000 q 711 1003 693 1001 q 734 999 729 1003 q 739 979 739 994 q 738 969 739 974 q 738 960 738 965 l 760 960 q 760 992 760 975 q 761 1025 760 1008 q 765 1035 761 1031 q 769 1046 768 1040 q 786 1074 778 1060 q 803 1101 794 1088 q 792 1106 801 1103 l 801 1115 q 824 1126 813 1121 q 844 1138 835 1132 q 854 1142 850 1140 q 864 1138 858 1144 q 863 1117 874 1128 q 862 1116 863 1117 q 860 1113 861 1115 q 875 1088 867 1100 q 890 1063 883 1075 q 950 969 921 1015 q 1010 875 979 922 q 1013 870 1011 874 q 1015 864 1014 867 q 1029 844 1019 857 q 1027 840 1028 843 q 1024 835 1026 836 q 1010 826 1018 829 q 994 819 1001 822 q 980 814 988 817 q 965 808 972 811 q 956 807 963 807 l 951 807 l 951 722 q 855 713 904 717 q 760 703 806 708 l 739 703 l 739 654 q 788 656 764 656 q 836 660 813 657 q 878 636 863 661 q 918 659 893 649 q 964 650 943 669 q 974 628 969 646 q 980 588 978 610 q 983 551 982 567 q 983 535 983 535 l 983 442 q 974 397 983 404 q 928 386 964 389 q 833 381 881 382 q 738 378 786 379 q 735 340 736 358 q 731 301 733 321 q 726 284 729 288 q 708 282 724 281 q 676 284 693 283 q 644 286 660 285 q 608 288 626 288 q 572 289 590 288 m 1188 972 q 1193 903 1200 938 q 1183 867 1189 885 q 1164 835 1176 850 q 1151 813 1153 826 q 1143 799 1151 801 q 1125 791 1133 796 q 1108 782 1117 786 q 1093 786 1094 774 q 1085 808 1093 800 q 1072 826 1076 817 q 1049 866 1063 847 q 1024 906 1035 885 q 976 988 1000 946 q 928 1074 953 1031 q 946 1081 938 1078 q 961 1089 954 1085 q 1009 1104 985 1103 q 1057 1103 1033 1106 q 1132 1064 1099 1097 q 1165 1022 1151 1044 q 1188 972 1178 999 m 292 63 q 255 136 265 99 q 236 213 244 174 q 238 238 233 224 q 246 269 242 251 q 447 233 349 251 q 643 199 546 215 q 674 199 643 203 q 749 186 704 194 q 838 168 793 178 q 912 152 882 158 q 942 146 942 146 q 935 119 938 125 q 931 93 933 113 q 878 0 925 38 q 788 -59 835 -32 q 679 -94 740 -86 q 636 -92 657 -100 q 558 -74 597 -81 q 479 -61 518 -68 q 367 -17 411 -50 q 292 63 324 17 z "},"":{"ha":1389,"x_min":293,"x_max":1081,"o":"m 382 251 q 366 280 376 267 q 347 307 356 293 q 307 415 317 360 q 294 529 297 471 q 314 638 293 588 q 361 738 335 688 q 394 780 375 761 q 431 817 413 799 q 454 838 442 828 q 476 858 467 847 q 583 936 524 910 q 708 976 643 963 q 733 978 721 979 q 760 976 746 976 q 808 973 783 974 q 857 968 832 972 q 890 960 874 967 q 925 949 907 954 q 959 933 943 943 q 997 929 975 922 q 1016 925 1004 932 q 1035 910 1028 918 q 1048 898 1042 904 q 1061 885 1054 892 l 660 510 l 1081 111 q 900 22 996 46 q 697 13 804 -1 q 652 25 675 15 q 606 42 629 35 q 504 108 546 64 q 422 196 463 153 q 385 253 400 219 l 382 251 z "},"":{"ha":1389,"x_min":231,"x_max":1196,"o":"m 935 728 q 913 729 924 728 q 892 733 901 731 l 597 458 l 1018 60 q 635 -37 850 -69 q 590 -26 613 -35 q 543 -8 567 -17 q 442 56 483 13 q 360 143 400 100 q 322 201 338 171 l 319 199 q 303 227 314 214 q 285 254 293 240 q 244 363 254 307 q 232 476 235 418 q 251 585 231 535 q 299 685 272 636 q 331 727 313 708 q 368 764 350 746 q 392 785 379 775 q 414 807 404 796 q 521 884 461 857 q 646 925 581 911 q 671 926 658 928 q 697 924 683 925 q 726 922 711 922 q 756 919 742 921 q 756 933 756 926 q 757 946 756 939 q 760 956 757 951 q 765 967 764 961 q 782 994 774 981 q 799 1022 790 1008 q 788 1026 793 1025 q 797 1035 794 1033 q 819 1047 808 1042 q 840 1058 829 1053 q 849 1063 844 1061 q 860 1058 854 1065 q 858 1038 868 1050 q 856 1033 858 1039 q 870 1008 863 1021 q 886 983 878 996 q 922 927 904 956 q 958 869 940 899 q 972 858 968 865 q 985 846 979 853 q 999 832 992 839 l 988 824 q 997 810 992 817 q 1006 796 1001 803 q 1008 790 1007 793 q 1010 783 1008 786 q 1016 775 1013 779 q 1025 764 1019 771 q 1023 760 1024 764 q 1019 754 1022 757 q 1005 747 1013 750 q 990 740 997 743 q 976 735 983 738 q 961 729 968 732 q 951 728 957 728 l 935 728 m 1089 707 q 1081 728 1089 721 q 1067 746 1072 736 q 1044 786 1057 767 q 1018 826 1031 806 q 972 909 996 867 q 924 994 947 951 q 942 1002 933 999 q 957 1010 950 1006 q 1005 1024 981 1024 q 1053 1022 1029 1025 q 1092 1010 1074 1021 q 1128 985 1111 1000 q 1160 942 1147 965 q 1183 893 1174 919 q 1188 824 1196 857 q 1178 788 1185 806 q 1158 756 1172 771 q 1147 733 1149 746 q 1139 719 1147 722 q 1121 712 1129 717 q 1104 701 1113 707 q 1089 707 1090 696 z "},"":{"ha":1389,"x_min":168,"x_max":1215,"o":"m 1183 860 q 1212 836 1208 861 q 1210 763 1215 811 q 1199 644 1204 714 q 1160 644 1179 644 q 1122 643 1142 643 l 1122 579 q 1120 478 1122 529 q 1117 374 1118 426 q 1122 360 1122 365 q 1119 323 1122 342 q 1114 285 1117 304 q 1106 250 1111 267 q 1099 217 1101 233 q 1089 197 1094 206 q 1078 181 1083 189 q 1068 165 1074 174 q 929 38 1013 76 q 747 -11 846 -1 q 723 -12 735 -12 q 700 -14 711 -12 l 711 385 q 778 383 744 383 q 843 383 811 383 q 835 472 839 428 q 826 557 831 515 q 824 603 825 581 q 824 642 824 625 q 779 643 801 643 q 735 644 757 643 q 714 650 724 647 q 689 654 704 653 q 692 723 696 689 q 688 791 689 757 q 696 857 686 825 q 761 857 728 857 q 826 858 794 857 l 826 1072 l 1115 1072 q 1117 1044 1117 1058 q 1117 1015 1117 1029 q 1119 937 1118 976 q 1119 857 1119 897 q 1153 858 1136 857 q 1183 860 1169 858 m 181 839 q 186 869 179 858 q 207 889 193 879 q 181 935 193 906 q 190 988 168 964 q 215 999 194 994 q 259 1006 235 1003 q 301 1009 283 1008 q 319 1010 319 1010 l 425 1010 q 476 999 467 1010 q 488 946 485 989 q 497 619 500 782 q 497 294 494 457 l 497 215 q 463 206 479 213 q 431 200 446 200 q 353 199 392 199 q 274 200 314 200 q 238 209 247 200 q 218 244 228 218 q 205 342 204 293 q 201 440 206 392 q 193 572 196 506 q 188 704 190 638 q 185 772 186 739 q 181 839 183 806 m 693 857 l 696 860 l 696 857 l 693 857 z "},"":{"ha":1389,"x_min":8,"x_max":1389,"o":"m 1199 821 q 1203 810 1200 818 q 1209 801 1206 806 q 1218 790 1213 797 q 1216 786 1217 789 q 1213 781 1215 783 q 1198 772 1206 776 q 1183 765 1190 768 q 1169 760 1176 763 q 1154 756 1161 758 q 1144 754 1150 754 l 1128 754 q 1087 758 1106 753 q 1053 771 1068 763 q 1049 699 1056 744 q 1038 589 1043 653 q 1000 588 1019 589 q 961 588 981 588 q 962 556 961 572 q 963 524 963 540 q 960 422 963 474 q 956 318 958 371 q 963 304 960 311 q 960 267 963 286 q 954 229 957 249 q 947 194 951 211 q 938 161 942 178 q 928 142 936 153 q 917 126 922 133 q 907 110 913 118 q 769 -17 853 22 q 588 -67 686 -56 q 563 -68 575 -68 q 539 -68 551 -68 l 551 329 q 617 328 585 329 q 683 328 650 328 q 675 416 679 372 q 667 501 671 460 q 665 547 665 525 q 664 586 664 569 q 619 588 642 588 q 574 589 597 588 q 553 594 564 592 q 528 599 543 597 q 533 667 536 633 q 527 735 529 701 q 535 801 525 769 q 601 802 568 801 q 667 803 633 803 l 667 1017 l 954 1017 q 956 1003 956 1011 q 957 989 957 996 q 958 991 957 990 q 958 992 958 992 q 975 1021 967 1007 q 992 1049 983 1035 q 981 1053 989 1049 q 986 1058 983 1056 q 990 1061 989 1060 q 1012 1074 1001 1068 q 1033 1085 1022 1079 q 1042 1089 1038 1088 q 1053 1085 1047 1090 q 1051 1064 1061 1074 q 1049 1058 1051 1064 q 1063 1034 1056 1047 q 1079 1008 1071 1021 q 1139 915 1110 961 q 1199 821 1168 868 m 1321 1010 q 1353 967 1340 990 q 1376 918 1367 944 q 1381 849 1389 883 q 1372 813 1378 831 q 1351 782 1365 796 q 1340 758 1342 771 q 1332 746 1340 749 q 1314 737 1322 742 q 1297 728 1306 732 q 1282 733 1283 722 q 1274 754 1282 746 q 1260 772 1265 763 q 1237 813 1250 793 q 1211 851 1224 832 q 1165 935 1189 892 q 1115 1021 1140 978 q 1135 1028 1126 1025 q 1150 1035 1143 1031 q 1198 1050 1174 1049 q 1246 1049 1222 1051 q 1321 1010 1286 1043 m 269 146 q 192 145 231 144 q 114 146 154 146 q 78 154 88 146 q 58 190 68 163 q 44 288 44 239 q 42 385 44 338 q 33 516 36 450 q 28 649 31 582 q 25 717 26 685 q 19 783 24 750 q 25 813 18 803 q 46 833 32 824 q 20 879 32 850 q 31 932 8 908 q 55 943 35 939 q 99 950 75 947 q 142 953 124 953 q 160 954 160 954 l 265 954 q 316 944 307 954 q 328 890 325 933 q 338 565 340 728 q 338 239 335 401 l 338 160 q 303 151 319 157 q 269 146 286 146 m 960 801 q 985 802 972 801 q 1008 803 997 803 q 998 816 1003 810 q 988 828 993 822 q 972 850 978 839 q 958 874 965 861 q 959 838 958 856 q 960 801 960 819 m 533 801 l 536 804 q 535 801 535 803 l 533 801 z "},"":{"ha":1389,"x_min":276,"x_max":1101,"o":"m 757 731 q 755 756 756 743 q 756 781 754 768 q 764 796 756 790 q 735 797 750 797 q 706 797 721 797 l 678 797 q 547 812 614 811 q 414 814 481 813 q 410 815 413 814 q 404 818 407 817 l 404 1011 q 449 1014 414 1013 q 528 1017 483 1015 q 617 1018 574 1018 q 688 1017 660 1018 q 713 1013 715 1015 q 802 1006 757 1001 q 885 999 847 1011 q 940 991 913 990 q 993 992 967 992 q 1040 981 1019 992 l 1040 788 l 1039 788 l 1039 689 q 1003 686 1021 688 q 968 685 986 685 l 804 685 q 779 687 792 685 q 760 699 767 689 q 758 716 758 708 q 757 731 758 724 m 283 313 q 278 349 276 328 q 281 394 281 369 q 517 401 401 397 q 749 408 633 404 q 774 415 749 413 q 838 419 799 418 q 923 421 878 421 q 1008 421 968 421 q 1073 420 1047 421 q 1099 419 1099 419 q 1098 390 1099 400 q 1097 372 1097 381 q 1099 343 1097 363 q 1092 267 1101 303 q 1060 197 1083 232 q 972 88 1019 139 q 857 8 925 38 q 807 0 836 -3 q 715 1 761 3 q 622 -1 668 0 q 485 30 542 -6 q 381 119 428 65 q 323 212 343 161 q 283 313 303 263 z "},"":{"ha":1389,"x_min":172,"x_max":1238,"o":"m 651 681 q 649 704 650 692 q 650 729 649 717 q 658 746 653 740 q 630 746 644 746 q 600 747 615 746 q 587 747 593 747 q 574 747 581 746 q 442 760 510 760 q 308 763 375 761 q 304 764 307 763 q 299 767 301 765 l 299 960 q 343 963 308 961 q 424 966 378 965 q 512 967 469 967 q 582 965 554 967 q 607 961 610 964 q 697 955 651 950 q 779 947 742 960 q 789 945 785 946 q 797 943 793 944 q 797 959 797 951 q 799 975 797 967 q 802 986 799 981 q 807 997 806 992 q 824 1025 815 1011 q 840 1053 832 1039 q 829 1057 838 1053 q 834 1062 832 1060 q 839 1065 836 1064 q 860 1078 850 1072 q 882 1089 871 1083 q 891 1093 886 1092 q 901 1089 896 1094 q 900 1068 910 1079 q 897 1063 900 1068 q 912 1038 904 1051 q 928 1013 919 1025 q 987 919 957 965 q 1047 825 1017 872 q 1051 814 1049 822 q 1058 806 1054 810 q 1067 794 1061 801 q 1065 790 1065 793 q 1061 785 1064 788 q 1047 776 1054 781 q 1032 769 1039 772 q 1017 765 1025 767 q 1003 760 1010 763 q 993 758 999 758 l 976 758 q 955 759 965 757 q 935 763 944 761 l 935 738 l 933 738 l 933 638 q 898 635 915 636 q 863 635 881 635 l 699 635 q 674 636 686 635 q 654 647 661 638 q 653 665 654 657 q 651 681 653 672 m 1131 738 q 1122 758 1131 750 q 1108 776 1114 767 q 1085 817 1099 797 q 1060 856 1072 836 q 1013 940 1036 897 q 964 1025 989 982 q 983 1032 975 1029 q 999 1039 992 1035 q 1045 1054 1021 1053 q 1094 1053 1069 1056 q 1168 1014 1135 1047 q 1202 972 1189 996 q 1225 922 1215 949 q 1229 853 1238 888 q 1220 817 1226 835 q 1200 786 1214 800 q 1189 763 1190 775 q 1181 750 1189 753 q 1163 741 1171 746 q 1144 732 1154 736 q 1135 731 1140 731 q 1131 738 1131 731 m 701 -50 q 609 -49 656 -47 q 517 -53 563 -50 q 379 -20 436 -56 q 275 68 322 15 q 217 160 238 110 q 178 263 197 211 q 174 298 172 278 q 175 343 175 318 q 412 350 296 346 q 643 357 528 354 q 667 364 643 361 q 732 368 692 367 q 817 369 772 369 q 902 369 863 369 q 967 369 942 369 q 993 368 993 368 q 992 339 993 349 q 992 320 992 329 q 993 292 992 311 q 987 216 996 251 q 954 147 978 181 q 867 38 914 88 q 751 -42 819 -12 q 728 -49 742 -47 q 701 -50 715 -51 z "},"":{"ha":1389,"x_min":218,"x_max":1165,"o":"m 1128 896 q 1147 895 1133 896 q 1165 892 1160 894 q 1163 826 1163 867 q 1163 746 1163 785 q 1163 686 1164 707 q 1153 686 1158 686 q 1136 685 1149 686 q 1094 681 1115 683 q 1050 678 1072 679 q 1074 626 1061 651 q 1097 578 1086 601 l 1104 563 l 1106 563 l 1106 558 q 1103 517 1104 536 q 1101 478 1103 497 q 1099 435 1100 456 q 1097 393 1099 414 l 867 403 q 845 403 867 401 q 794 406 824 404 q 731 415 764 411 q 664 425 697 419 l 671 582 q 744 581 708 581 q 815 579 781 582 q 849 577 832 578 q 883 576 867 576 q 863 622 871 601 q 851 647 857 635 q 840 671 846 660 q 574 671 710 669 q 317 671 439 672 l 288 671 q 286 741 286 707 q 286 807 286 775 q 288 838 286 822 q 289 868 289 853 q 310 889 289 885 q 423 890 360 889 q 528 889 486 892 q 631 888 583 888 q 721 888 678 889 l 733 888 q 724 910 729 901 q 692 965 699 953 q 682 982 685 976 q 677 994 681 986 q 674 1007 674 1003 q 728 1031 696 1015 q 791 1062 760 1046 q 838 1085 822 1078 q 842 1079 840 1082 q 847 1069 843 1076 q 897 985 872 1031 q 947 892 922 940 q 976 890 963 892 q 1004 889 990 888 q 1076 893 1053 892 q 1110 895 1100 894 q 1128 896 1121 896 m 222 281 q 237 343 228 313 q 261 403 246 374 q 313 478 283 444 q 386 535 343 511 q 432 555 408 546 q 479 572 456 564 q 539 585 508 585 q 569 585 554 586 q 597 586 583 585 q 620 588 608 589 q 643 582 632 588 q 644 557 644 582 q 644 501 644 532 q 642 450 644 469 q 633 421 632 436 q 633 390 633 406 q 626 315 632 351 q 618 239 619 278 q 613 136 617 188 q 604 33 608 85 q 602 -1 603 15 q 600 -32 601 -17 q 594 -48 599 -44 q 579 -53 590 -51 q 388 0 478 -54 q 352 23 369 10 q 319 50 335 36 q 235 176 263 100 q 222 228 225 201 q 222 281 218 254 m 696 133 q 813 134 754 135 q 931 135 872 133 q 953 135 942 135 q 974 136 964 136 q 977 128 972 143 q 989 89 982 114 q 1001 38 996 64 q 1008 -8 1007 11 q 1000 -26 1008 -26 q 856 -24 928 -25 q 711 -25 785 -24 q 672 -25 692 -25 q 631 -24 653 -25 l 633 124 q 665 129 650 126 q 696 133 681 132 z "},"":{"ha":1389,"x_min":107,"x_max":1275,"o":"m 178 881 q 199 901 178 897 q 312 903 249 901 q 417 901 375 904 q 519 901 472 900 q 610 900 567 901 l 622 900 q 618 911 621 906 q 613 922 615 917 q 581 977 588 965 q 571 994 574 989 q 566 1007 569 999 q 563 1019 563 1015 q 617 1043 585 1028 q 680 1074 649 1058 q 726 1097 711 1090 q 731 1092 729 1094 q 736 1082 732 1089 q 786 997 761 1043 q 836 903 811 951 q 842 903 839 904 q 847 903 844 903 q 844 909 846 906 q 842 917 843 913 q 840 924 840 918 q 840 959 840 942 q 840 994 839 976 q 850 1015 843 1006 q 866 1044 857 1031 q 883 1072 875 1058 q 872 1076 881 1072 q 877 1081 875 1079 q 882 1085 879 1083 q 903 1097 893 1092 q 924 1108 914 1103 q 934 1113 929 1111 q 944 1108 939 1114 q 943 1088 953 1097 q 940 1082 943 1088 q 955 1058 947 1071 q 971 1032 963 1044 q 1011 969 990 1001 q 1051 906 1032 938 q 1054 904 1053 906 l 1054 901 q 1072 874 1063 888 q 1089 844 1081 860 q 1094 833 1092 842 q 1101 825 1097 829 q 1108 814 1104 821 q 1104 804 1108 808 q 1090 796 1097 800 q 1074 789 1082 792 q 1063 785 1068 788 q 1051 781 1058 783 q 1051 699 1054 728 q 1042 699 1047 699 q 1025 697 1038 699 q 983 694 1004 696 q 939 690 961 692 q 963 639 950 664 q 986 589 975 614 l 993 575 l 994 575 l 994 571 q 992 529 993 549 q 990 490 992 510 q 988 447 989 468 q 986 404 988 426 l 756 415 q 734 415 756 414 q 683 418 713 417 q 619 428 653 424 q 553 438 586 432 l 560 593 q 633 594 597 593 q 704 592 669 594 q 738 590 721 590 q 772 589 756 589 q 751 635 760 614 q 740 660 746 647 q 729 683 735 672 q 463 683 599 682 q 206 683 328 685 l 176 683 q 175 753 175 719 q 175 819 175 786 q 176 850 175 835 q 178 881 178 865 m 1272 872 q 1263 837 1269 854 q 1243 806 1257 819 q 1235 794 1239 800 q 1232 782 1232 789 q 1222 769 1232 772 q 1206 760 1214 765 q 1188 751 1197 756 q 1178 750 1183 750 q 1174 757 1174 750 q 1165 778 1174 769 q 1151 796 1157 786 q 1128 836 1142 817 q 1103 875 1115 856 q 1056 958 1079 915 q 1007 1044 1032 1001 q 1026 1051 1018 1049 q 1042 1058 1035 1054 q 1088 1074 1064 1072 q 1138 1072 1113 1075 q 1211 1033 1178 1067 q 1268 942 1249 996 q 1275 907 1275 925 q 1272 872 1275 889 m 111 293 q 126 356 117 325 q 150 415 135 386 q 203 490 172 457 q 275 547 233 524 q 321 567 297 558 q 368 585 344 576 q 428 597 397 597 q 458 598 443 599 q 486 599 472 597 q 509 601 497 601 q 532 594 521 600 q 533 569 533 594 q 533 513 533 544 q 531 463 533 482 q 522 433 521 449 q 522 403 522 418 q 515 326 522 364 q 507 251 508 289 q 501 149 506 200 q 493 46 497 97 q 492 12 493 28 q 489 -19 490 -4 q 483 -35 488 -32 q 468 -40 479 -39 q 276 11 368 -42 q 241 35 258 22 q 208 63 224 49 q 124 189 151 113 q 110 240 114 214 q 111 293 107 267 m 585 146 q 702 146 643 146 q 819 147 761 146 q 842 147 831 146 q 863 149 853 149 q 866 141 861 156 q 878 101 871 126 q 890 50 885 76 q 897 5 896 24 q 889 -14 897 -14 q 745 -12 817 -12 q 600 -12 674 -11 q 562 -12 582 -12 q 519 -11 542 -12 l 522 136 q 554 142 539 139 q 585 146 569 144 z "},"":{"ha":1389,"x_min":254,"x_max":1108,"o":"m 263 901 q 267 923 261 915 q 282 936 272 931 q 263 969 272 949 q 269 1007 254 989 q 297 1016 275 1013 q 341 1021 319 1019 q 363 1022 363 1022 l 439 1022 q 476 1015 469 1022 q 485 976 482 1007 q 492 748 494 863 q 492 518 489 633 l 492 463 q 466 457 478 461 q 443 453 454 453 q 386 452 414 451 q 331 453 358 453 q 304 459 311 453 q 290 483 297 465 q 281 553 281 518 q 278 621 281 588 q 272 713 274 667 q 268 807 271 760 q 266 855 267 831 q 263 901 265 879 m 446 101 q 415 142 431 121 q 388 186 400 164 q 336 418 328 297 q 342 436 338 432 q 361 442 347 440 q 401 442 381 442 q 440 443 421 443 q 563 448 501 446 q 688 449 625 450 q 777 454 732 447 q 868 458 822 461 q 904 456 886 457 q 940 465 922 456 l 967 465 q 967 581 967 524 q 965 697 967 639 q 988 703 965 706 q 1040 694 1011 701 q 1089 680 1069 686 q 1101 675 1108 674 q 1101 658 1103 667 q 1101 640 1100 649 q 1100 547 1100 593 q 1100 453 1100 500 q 1101 404 1106 431 q 1097 370 1097 388 q 1096 335 1097 353 q 1078 265 1093 297 q 1055 210 1067 238 q 1028 156 1043 182 q 956 72 997 107 q 864 14 915 38 q 715 -25 796 -17 q 653 -22 685 -28 q 592 -4 622 -17 q 513 40 550 14 q 446 101 476 67 z "},"":{"ha":1389,"x_min":229,"x_max":1167,"o":"m 732 972 q 735 983 732 978 q 742 993 739 988 q 757 1021 749 1007 q 774 1049 765 1035 q 764 1053 771 1051 q 769 1058 767 1056 q 774 1061 771 1060 q 795 1074 785 1068 q 815 1085 806 1079 q 826 1090 821 1088 q 836 1085 831 1092 q 833 1064 846 1076 l 832 1060 q 847 1035 839 1047 q 863 1010 854 1022 q 922 916 892 963 q 981 822 951 869 q 984 816 983 819 q 986 810 985 813 q 992 801 989 806 q 1000 790 994 797 q 999 787 1000 790 q 994 781 997 783 q 981 773 989 776 q 965 767 972 769 q 951 761 958 764 q 936 756 943 758 q 926 754 933 754 l 910 754 q 831 774 864 753 q 769 828 797 794 q 749 859 758 843 q 733 893 740 875 q 731 900 731 899 q 731 936 731 918 q 732 972 731 954 m 1065 733 q 1056 755 1064 747 q 1043 772 1049 763 q 1019 813 1033 793 q 994 853 1006 832 q 947 935 971 893 q 899 1021 924 978 q 917 1028 908 1025 q 932 1036 925 1032 q 980 1051 956 1050 q 1029 1049 1004 1051 q 1103 1011 1069 1044 q 1136 969 1122 992 q 1160 919 1150 946 q 1167 884 1167 901 q 1164 850 1167 867 q 1155 815 1161 832 q 1135 782 1149 797 q 1127 772 1131 778 q 1124 760 1124 767 q 1114 746 1124 750 q 1097 738 1106 743 q 1079 728 1089 732 q 1070 727 1075 726 q 1065 733 1065 728 m 238 892 q 257 926 236 914 q 238 958 247 938 q 244 996 229 979 q 272 1006 249 1003 q 316 1010 294 1008 q 338 1011 338 1011 l 414 1011 q 451 1003 444 1011 q 460 967 457 996 q 466 738 468 853 q 467 508 464 624 l 467 453 q 441 446 453 450 q 418 442 429 442 q 361 441 389 440 q 306 442 333 442 q 279 448 286 442 q 265 474 272 454 q 256 542 256 507 q 253 611 256 576 q 247 702 249 656 q 243 796 246 749 q 241 844 242 821 q 238 892 240 868 m 421 92 q 390 132 406 111 q 363 175 375 153 q 320 288 333 231 q 311 407 307 346 q 317 426 313 422 q 336 431 322 431 q 376 432 356 432 q 415 432 396 432 q 538 437 476 435 q 663 438 600 439 q 752 443 707 436 q 843 447 797 450 q 879 446 861 447 q 915 456 897 444 l 942 456 q 941 572 942 514 q 940 686 940 629 q 963 692 940 694 q 1015 683 986 690 q 1064 670 1044 676 q 1076 665 1083 664 q 1076 647 1078 656 q 1076 629 1075 639 q 1075 535 1075 582 q 1075 443 1075 489 q 1076 394 1081 421 q 1072 360 1072 378 q 1071 325 1072 343 q 1053 254 1069 288 q 1030 199 1042 226 q 1003 146 1018 171 q 931 63 972 97 q 839 3 890 28 q 767 -22 804 -12 q 690 -36 729 -31 q 628 -33 660 -39 q 567 -15 597 -28 q 488 29 525 3 q 421 92 450 56 z "},"":{"ha":1389,"x_min":199,"x_max":1196,"o":"m 540 713 q 368 713 454 711 q 199 708 282 715 l 199 935 l 686 939 q 684 953 685 946 q 682 967 683 961 q 680 991 681 978 q 676 1021 679 1004 q 701 1030 689 1025 q 724 1036 713 1035 q 779 1043 751 1040 q 835 1049 807 1046 q 861 1046 854 1051 q 876 1021 868 1040 q 889 982 885 1003 q 896 942 893 961 l 1190 944 q 1194 908 1193 936 q 1194 841 1194 879 q 1194 766 1194 803 q 1196 707 1194 729 l 931 711 q 932 707 932 710 q 939 659 936 682 q 947 613 942 636 q 946 592 950 600 q 932 576 942 585 q 953 547 943 567 q 950 510 964 528 q 948 508 949 508 q 944 504 947 507 q 948 469 947 488 q 942 432 949 451 q 940 403 936 417 q 938 385 946 392 q 923 367 931 376 q 908 349 915 357 q 900 343 906 344 q 892 347 894 342 q 872 366 885 361 q 849 379 860 371 q 805 410 828 396 q 758 440 782 425 q 669 506 714 472 q 575 575 624 540 q 591 592 583 585 q 604 607 599 599 q 648 645 622 632 q 701 668 674 658 q 714 669 706 669 q 712 692 713 681 q 710 713 711 703 l 540 713 m 642 217 q 664 226 639 219 q 638 239 649 232 q 601 262 618 250 q 568 290 583 274 q 563 297 565 292 q 545 335 554 317 q 529 374 536 354 q 528 388 528 381 q 529 401 528 394 q 533 438 531 419 q 538 476 536 457 q 533 476 536 476 q 524 475 529 476 q 527 484 526 481 q 529 489 528 488 q 547 513 538 501 q 564 535 556 524 q 572 544 568 540 q 585 544 576 549 q 593 521 600 539 l 593 515 q 622 496 607 506 q 650 476 636 486 q 758 405 704 440 q 867 333 813 369 q 872 328 869 332 q 878 322 875 325 q 889 317 883 319 q 903 308 894 314 q 903 303 903 307 q 901 296 904 299 q 881 271 893 282 q 885 245 885 251 q 890 221 886 239 q 883 119 906 171 q 837 35 863 75 q 768 -32 811 -4 q 735 -44 753 -43 q 672 -56 704 -49 q 608 -71 640 -64 q 510 -69 554 -85 q 426 -24 467 -53 q 375 29 396 -1 q 335 90 354 60 q 326 113 328 100 q 322 144 325 126 q 483 181 404 163 q 642 217 563 199 z "},"":{"ha":1389,"x_min":86,"x_max":1297,"o":"m 86 697 l 86 924 l 574 929 q 572 943 572 936 q 571 956 572 950 q 568 981 569 968 q 565 1011 567 994 q 589 1019 578 1014 q 611 1026 600 1025 q 667 1033 639 1031 q 722 1038 694 1035 q 749 1035 742 1040 q 765 1011 757 1031 q 778 972 774 992 q 783 931 782 951 l 871 932 q 868 940 869 936 q 864 949 867 944 q 863 956 863 950 q 862 991 863 974 q 863 1026 861 1008 q 867 1038 864 1033 q 872 1049 869 1043 q 888 1076 879 1063 q 906 1104 896 1090 q 901 1106 904 1106 q 894 1108 899 1107 q 899 1113 897 1111 q 904 1117 901 1115 q 926 1129 915 1124 q 946 1140 936 1135 q 956 1145 951 1143 q 967 1140 961 1147 q 965 1119 975 1132 q 963 1114 964 1118 q 977 1090 969 1103 q 993 1065 985 1078 q 1035 999 1014 1032 q 1076 933 1056 967 l 1079 933 l 1079 928 q 1096 903 1088 915 q 1111 878 1104 890 q 1117 865 1114 874 q 1123 857 1119 861 q 1131 846 1126 853 q 1130 842 1131 846 q 1126 836 1129 839 q 1096 822 1114 829 q 1089 819 1093 821 q 1082 817 1085 818 q 1082 749 1082 782 q 1083 697 1082 717 l 819 700 l 819 696 q 826 649 824 672 q 835 603 829 626 q 819 567 839 582 q 841 538 831 557 q 838 499 851 518 q 832 494 838 497 q 836 458 835 476 q 831 422 838 440 q 829 393 824 406 q 825 374 835 383 q 811 356 818 365 q 797 338 804 347 q 788 332 793 333 q 779 336 782 331 q 760 356 772 351 q 736 368 747 360 q 692 400 715 386 q 646 429 669 414 q 556 496 601 463 q 464 564 511 529 q 478 581 471 574 q 492 597 486 589 q 535 635 510 622 q 589 657 561 649 q 595 658 592 658 q 601 660 599 658 q 599 681 600 671 q 597 701 599 692 l 428 701 q 257 702 343 700 q 86 697 171 704 m 1174 828 q 1151 868 1164 849 q 1125 907 1138 888 q 1078 991 1101 949 q 1029 1076 1054 1033 q 1048 1084 1039 1081 q 1064 1092 1057 1088 q 1110 1106 1086 1106 q 1160 1104 1135 1107 q 1199 1092 1181 1103 q 1233 1067 1218 1082 q 1290 975 1271 1029 q 1297 940 1297 957 q 1294 906 1297 922 q 1285 870 1292 888 q 1265 838 1279 853 q 1258 828 1261 833 q 1254 815 1254 822 q 1244 801 1254 806 q 1228 792 1236 797 q 1210 783 1219 788 q 1201 783 1206 782 q 1196 789 1196 783 q 1188 810 1196 801 q 1174 828 1179 818 m 790 299 q 791 293 790 297 q 789 285 792 289 q 768 260 781 272 q 773 235 772 240 q 779 210 774 229 q 771 110 793 158 q 725 26 751 65 q 656 -42 699 -14 q 624 -56 642 -54 q 560 -67 592 -58 q 496 -82 528 -75 q 398 -78 442 -94 q 314 -33 354 -62 q 263 20 283 -10 q 222 81 242 50 q 215 103 217 89 q 210 133 213 117 q 372 170 292 153 q 529 206 451 188 q 553 215 529 208 q 539 222 546 218 q 525 228 532 225 q 489 251 507 239 q 456 279 471 264 q 450 286 451 283 q 433 324 442 306 q 417 363 424 343 q 415 377 415 369 q 417 390 415 385 q 421 428 418 410 q 425 465 424 446 l 411 465 q 415 473 414 469 q 418 479 415 476 q 434 501 425 490 q 451 525 443 513 q 460 534 456 531 q 474 533 464 538 q 482 511 488 528 q 481 504 482 508 q 509 485 494 494 q 538 465 524 476 q 646 394 592 431 q 754 322 700 358 q 760 318 757 321 q 765 313 763 315 q 776 306 771 310 q 790 299 782 303 z "},"":{"ha":1389,"x_min":176,"x_max":1175,"o":"m 296 326 l 289 682 q 233 681 261 682 q 176 676 204 679 l 176 928 l 285 929 l 283 1008 q 328 1010 293 1010 q 410 1010 364 1011 q 501 1010 457 1010 q 571 1011 544 1010 l 569 933 l 875 936 l 875 1025 l 1054 1025 q 1056 1010 1056 1018 q 1056 994 1056 1001 q 1057 967 1057 981 q 1057 939 1057 953 l 1160 940 q 1163 899 1163 932 q 1164 824 1164 867 q 1164 742 1164 782 q 1165 676 1164 701 l 1057 678 q 1056 648 1056 664 q 1054 617 1056 632 l 889 617 q 886 649 888 632 q 882 681 885 665 l 847 682 l 565 682 l 565 543 q 565 431 568 488 q 568 319 563 375 l 569 319 l 569 313 q 571 300 569 304 l 569 300 q 568 209 568 254 q 568 118 568 164 q 567 109 568 114 q 564 100 565 104 q 565 85 564 93 q 567 64 565 76 q 561 60 565 63 q 551 56 557 57 q 526 58 539 56 q 500 61 513 60 q 476 67 488 64 q 453 71 464 69 q 439 78 447 72 q 428 84 433 81 q 417 92 424 88 q 328 180 356 126 q 294 297 301 233 q 293 312 293 304 q 292 328 293 319 l 296 326 m 989 467 q 903 390 956 414 q 790 360 851 367 q 776 359 783 360 q 761 358 768 358 l 768 599 q 865 599 817 599 q 963 597 914 599 q 971 597 967 597 q 981 594 975 596 q 995 595 988 594 q 1015 597 1003 596 q 1019 592 1015 596 q 1022 583 1022 589 q 1018 539 1022 563 q 1014 519 1017 529 q 1008 497 1011 508 q 1006 492 1007 494 q 1001 486 1004 489 q 995 476 999 481 q 989 467 992 472 m 588 272 q 611 274 599 274 q 633 274 624 274 q 807 278 719 276 q 981 279 894 279 q 1076 276 1028 279 q 1175 272 1125 274 l 1175 24 q 1087 13 1132 18 q 999 3 1042 8 q 930 1 960 1 q 900 3 900 1 l 588 3 l 588 272 z "},"":{"ha":1389,"x_min":86,"x_max":1311,"o":"m 204 257 l 199 611 q 142 610 171 611 q 86 606 114 608 l 86 858 l 194 858 l 193 938 q 238 940 203 939 q 319 940 272 940 q 409 940 365 939 q 479 942 453 940 l 478 863 l 785 865 l 785 956 l 871 956 q 871 989 871 972 q 872 1022 871 1006 q 876 1033 872 1028 q 881 1044 879 1039 q 897 1072 889 1058 q 914 1100 906 1086 q 903 1104 911 1100 q 908 1109 906 1107 q 913 1113 911 1111 q 934 1125 924 1119 q 956 1136 944 1131 q 975 1136 967 1144 q 974 1115 983 1126 l 971 1110 q 985 1086 978 1099 q 1001 1060 993 1074 q 1061 967 1032 1013 q 1121 874 1090 921 q 1123 867 1122 871 q 1125 861 1124 864 q 1131 853 1128 857 q 1140 842 1135 849 q 1138 838 1139 840 q 1135 832 1138 835 q 1120 824 1128 828 q 1106 817 1113 819 q 1091 812 1099 814 q 1076 807 1083 810 q 1072 806 1075 806 q 1072 737 1072 775 q 1073 663 1072 699 q 1075 606 1074 628 l 967 607 q 965 577 965 593 q 964 546 964 561 l 799 546 q 795 578 797 561 q 792 610 793 594 l 757 611 l 474 611 l 474 472 q 474 360 476 417 q 478 249 472 304 l 478 242 q 478 235 478 239 q 479 229 479 232 l 478 229 q 478 138 478 183 q 476 49 478 93 q 475 38 476 43 q 474 29 474 33 q 474 14 474 22 q 476 -6 475 6 q 471 -10 475 -7 q 461 -14 467 -12 q 435 -12 447 -14 q 410 -8 422 -10 q 385 -3 397 -6 q 361 1 374 0 q 349 7 357 1 l 326 21 q 238 109 265 56 q 203 226 210 163 q 202 241 203 233 q 201 257 201 249 l 204 257 m 1243 1061 q 1276 1020 1263 1043 q 1299 969 1289 997 q 1303 900 1311 936 q 1294 865 1300 882 q 1274 833 1288 847 q 1267 823 1269 828 q 1263 811 1264 818 q 1254 797 1263 800 q 1236 788 1244 793 q 1219 779 1228 783 q 1204 785 1206 774 q 1196 806 1204 797 q 1182 824 1188 814 q 1159 864 1172 844 q 1133 903 1146 883 q 1087 987 1111 944 q 1039 1072 1063 1029 q 1057 1079 1049 1076 q 1072 1086 1065 1082 q 1120 1101 1096 1100 q 1168 1100 1144 1103 q 1243 1061 1208 1094 m 897 396 q 813 319 864 343 q 699 289 761 296 q 684 288 692 289 q 669 288 676 288 l 676 528 q 774 528 725 528 q 871 526 824 528 q 889 524 878 526 q 904 524 896 524 q 924 526 913 525 q 928 522 925 525 q 932 514 932 518 q 931 491 932 503 q 926 468 929 479 q 922 448 925 458 q 917 426 919 438 q 911 415 915 421 l 897 396 m 497 201 q 520 203 508 203 q 542 203 532 203 q 716 207 629 206 q 890 208 803 208 q 986 206 938 208 q 1085 201 1035 203 l 1085 -46 q 996 -56 1040 -51 q 907 -67 951 -61 q 839 -68 868 -68 q 810 -67 810 -68 l 497 -67 l 497 201 z "},"":{"ha":1389,"x_min":239,"x_max":1144,"o":"m 590 1072 q 590 961 590 1017 q 589 849 590 906 q 588 838 589 843 q 586 828 586 833 q 587 810 586 819 q 589 788 588 801 q 583 783 588 786 q 572 779 579 779 q 545 780 558 778 q 518 785 532 782 q 492 790 504 788 q 468 796 481 793 q 454 803 463 797 q 431 818 442 808 q 336 916 365 857 q 300 1047 307 975 q 299 1064 299 1056 q 299 1081 299 1072 l 590 1072 m 242 426 l 239 610 q 284 611 263 611 q 328 611 306 611 q 428 610 378 610 q 528 611 478 611 q 532 617 528 615 q 595 673 560 642 q 657 724 631 704 q 715 772 689 749 q 767 815 742 796 q 806 849 767 815 q 894 926 844 882 q 911 939 903 933 q 928 951 919 944 q 978 1001 968 990 q 994 1017 989 1011 q 1006 1025 997 1019 q 1018 1032 1014 1031 q 1056 985 1032 1014 q 1104 930 1081 957 q 1139 888 1128 903 q 1135 883 1138 886 q 1125 872 1132 879 q 989 742 1065 810 q 833 610 913 675 l 893 610 q 1015 610 954 610 q 1138 611 1076 610 q 1144 594 1144 611 q 1138 551 1143 576 q 1128 501 1133 525 q 1118 463 1122 476 q 1115 456 1114 450 q 1097 457 1106 456 q 1079 457 1088 458 q 979 458 1029 458 q 879 460 929 458 q 825 468 856 461 l 824 601 q 815 594 819 597 q 807 586 811 590 l 807 526 q 808 428 807 478 q 806 328 808 378 q 808 256 804 292 q 810 183 813 219 q 808 154 810 169 q 815 125 807 139 q 814 77 815 107 q 810 24 813 47 q 808 0 808 0 q 765 -3 790 -7 q 740 0 753 0 q 714 1 726 0 q 661 17 688 3 q 619 36 640 26 q 579 58 599 46 q 518 117 543 83 q 475 192 493 151 q 456 250 463 219 q 447 311 450 281 q 465 410 443 361 q 466 412 465 411 q 467 414 467 413 q 389 414 428 414 q 310 415 350 414 q 276 421 293 418 q 242 426 260 424 m 1138 31 q 1136 1 1136 17 q 1136 -33 1136 -15 l 925 -33 q 874 -31 900 -32 q 821 -28 849 -29 l 824 92 q 872 97 847 94 q 919 100 897 99 q 956 101 940 101 q 971 100 971 100 l 1139 97 q 1138 64 1138 81 q 1138 31 1138 47 z "},"":{"ha":1389,"x_min":140,"x_max":1260,"o":"m 213 379 q 143 392 182 383 l 140 575 l 429 575 q 431 579 431 578 q 433 582 432 581 q 497 638 461 606 q 558 688 533 669 q 617 736 590 713 q 669 779 643 760 q 708 813 669 779 q 796 890 746 847 q 813 903 804 897 q 829 917 822 908 q 826 924 826 919 q 824 931 824 926 q 824 966 824 949 q 825 1001 824 983 q 828 1013 825 1008 q 835 1024 832 1018 q 850 1051 842 1038 q 867 1079 858 1065 q 856 1083 864 1082 q 865 1092 863 1090 q 888 1104 876 1099 q 908 1115 899 1110 q 918 1120 914 1118 q 928 1115 922 1122 q 926 1094 939 1107 q 924 1089 926 1093 q 939 1065 931 1078 q 956 1040 947 1053 q 1015 947 985 993 q 1074 853 1044 900 q 1077 847 1076 850 q 1079 840 1078 843 q 1085 832 1082 836 q 1093 821 1088 828 q 1092 817 1093 821 q 1088 811 1090 814 q 1074 803 1082 807 q 1058 797 1065 800 q 1044 792 1051 794 q 1029 786 1036 789 q 1019 785 1026 785 l 1003 785 q 990 785 997 785 q 976 786 983 785 q 862 681 924 735 q 736 574 800 626 q 766 574 751 574 q 794 575 781 574 q 917 574 856 574 q 1039 575 978 575 q 1046 558 1046 575 q 1041 515 1046 540 q 1030 466 1036 490 q 1019 428 1024 442 q 1017 421 1015 415 q 999 422 1007 421 q 981 422 990 422 q 881 423 931 424 q 781 424 831 422 q 755 428 768 425 q 728 432 742 431 l 726 565 q 717 558 722 563 q 708 551 713 554 l 708 490 q 710 392 708 442 q 708 293 711 342 q 711 220 707 257 q 713 147 715 183 q 710 119 711 133 q 717 89 710 104 q 716 41 718 71 q 713 -12 714 11 q 710 -36 711 -36 q 668 -37 690 -44 q 642 -35 656 -35 q 615 -33 629 -35 q 588 -27 601 -31 q 563 -18 575 -24 q 521 2 542 -7 q 481 24 500 11 q 419 81 444 47 q 376 157 394 115 q 358 215 364 185 q 349 275 351 244 q 367 375 344 325 q 367 377 367 376 q 368 379 368 378 l 213 379 m 1121 1079 q 1162 1067 1143 1078 q 1196 1042 1181 1057 q 1228 999 1215 1022 q 1251 950 1242 976 q 1259 915 1258 932 q 1257 881 1260 897 q 1247 845 1253 863 q 1228 813 1242 828 q 1220 803 1224 808 q 1217 790 1217 797 q 1207 776 1217 781 q 1190 768 1199 774 q 1172 758 1181 763 q 1163 758 1168 757 q 1158 764 1158 758 q 1149 785 1157 778 q 1136 803 1142 793 q 1113 843 1126 824 q 1088 882 1099 863 q 1040 966 1064 924 q 992 1051 1017 1008 q 1010 1059 1001 1056 q 1025 1067 1018 1063 q 1073 1081 1049 1081 q 1121 1079 1097 1082 m 493 1036 q 492 925 493 981 q 492 813 492 869 q 490 802 490 807 q 488 792 489 797 q 488 774 488 783 q 490 751 489 765 q 485 747 489 751 q 475 743 481 743 q 447 745 461 743 q 419 749 433 747 q 394 755 407 751 q 369 760 382 758 q 356 767 364 761 q 344 774 350 771 q 332 782 339 778 q 239 881 268 821 q 203 1011 210 940 q 201 1028 201 1019 q 200 1044 200 1036 l 493 1036 m 1014 -69 q 920 -69 967 -69 q 828 -68 874 -69 q 776 -67 801 -68 q 724 -64 751 -65 l 726 56 q 774 60 750 58 q 821 65 799 63 q 858 65 842 65 q 874 64 874 65 l 1040 61 q 1040 28 1040 44 q 1039 -4 1039 13 q 1039 -34 1039 -18 q 1038 -68 1039 -50 q 1026 -69 1032 -69 q 1014 -69 1019 -69 z "},"":{"ha":1389,"x_min":140,"x_max":1235,"o":"m 143 903 q 147 917 143 914 q 160 922 150 921 l 256 922 q 256 967 256 946 q 257 1011 257 989 l 257 1049 l 426 1049 q 465 1047 446 1049 q 503 1046 483 1046 q 522 1040 517 1046 q 529 1019 528 1033 l 529 919 q 596 920 556 919 q 682 921 636 921 q 706 920 694 922 q 728 919 717 918 q 805 924 789 922 q 829 925 821 925 q 846 924 835 925 q 861 922 857 924 q 859 863 860 900 q 859 791 858 826 q 858 738 860 756 q 851 738 854 738 q 836 736 847 738 q 689 727 768 729 q 528 725 610 725 q 527 608 526 663 q 525 503 528 553 q 526 463 525 503 q 527 359 526 424 q 529 219 528 294 q 526 183 529 200 q 525 149 524 167 q 531 57 529 88 q 533 15 532 26 q 533 -6 533 3 q 533 -29 533 -12 q 529 -53 532 -46 q 446 -50 497 -50 q 346 -50 394 -50 q 271 -50 297 -50 q 271 -37 271 -43 q 269 -17 271 -32 q 253 340 254 146 q 254 726 253 533 q 209 728 232 728 q 165 728 186 728 l 140 728 l 140 849 q 142 876 140 864 q 143 903 143 889 m 1075 593 q 1132 588 1103 585 q 1183 581 1161 592 l 1183 447 l 1182 447 l 1182 378 q 1158 376 1169 376 q 1133 375 1146 375 l 1018 375 q 1001 376 1010 375 q 989 385 993 378 q 987 397 988 392 q 986 407 986 401 q 985 424 985 415 q 985 442 985 432 q 990 453 988 450 q 971 453 981 453 q 950 454 961 453 q 940 453 944 454 q 932 454 936 453 q 841 463 888 463 q 747 465 794 464 q 744 466 746 465 q 740 467 743 467 l 740 601 q 783 604 749 603 q 859 606 818 606 q 929 606 900 607 q 956 603 958 606 q 1017 598 986 594 q 1075 593 1049 601 m 1004 243 q 1026 249 1004 247 q 1083 252 1049 251 q 1151 252 1117 253 q 1208 251 1185 251 q 1231 251 1231 251 q 1230 226 1231 232 q 1231 201 1229 221 q 1206 107 1235 150 q 1149 37 1179 69 q 1075 -14 1119 4 q 1042 -19 1058 -21 q 982 -18 1013 -17 q 922 -21 951 -19 q 834 -1 871 -24 q 765 57 797 22 q 728 117 742 85 q 703 182 715 150 q 700 206 699 193 q 701 235 701 218 q 854 240 779 238 q 1004 243 929 242 z "},"":{"ha":1389,"x_min":136,"x_max":1243,"o":"m 529 15 q 528 -9 529 7 q 525 -31 526 -25 q 441 -28 493 -28 q 340 -28 389 -28 q 267 -28 292 -28 q 267 -15 267 -21 q 264 4 267 -10 q 249 361 250 167 q 250 749 249 556 l 136 749 l 136 871 q 137 898 136 885 q 138 925 138 911 q 156 943 138 942 q 201 944 176 943 q 251 944 226 944 l 251 1069 l 422 1069 q 460 1069 442 1069 q 499 1068 479 1068 q 524 1042 522 1068 q 524 994 524 1019 q 525 942 525 968 q 591 942 550 942 q 676 943 632 942 q 701 942 690 943 q 724 942 713 940 q 779 945 760 944 q 808 946 799 946 l 808 969 q 812 980 808 975 q 818 990 815 985 q 833 1018 825 1004 q 850 1046 842 1032 q 840 1050 847 1049 q 850 1058 844 1057 q 871 1071 860 1065 q 892 1082 882 1076 q 901 1087 897 1085 q 911 1082 906 1089 q 910 1061 922 1074 q 910 1060 910 1061 q 908 1057 910 1060 q 923 1032 915 1044 q 939 1007 931 1019 q 998 913 968 960 q 1057 819 1028 867 q 1060 813 1060 817 q 1063 807 1061 810 q 1068 799 1065 803 q 1076 789 1071 796 q 1075 784 1076 788 q 1071 778 1074 781 q 1057 770 1065 774 q 1042 764 1049 767 q 1027 758 1035 761 q 1013 753 1019 756 q 1003 751 1010 751 l 986 751 q 912 768 944 750 q 854 817 879 786 l 854 760 q 847 760 850 760 q 832 758 843 760 q 685 749 764 751 q 524 746 606 746 q 523 629 522 683 q 521 525 524 575 q 521 485 521 525 q 522 381 521 446 q 524 242 522 317 q 522 206 525 222 q 521 169 519 189 q 526 78 525 108 q 528 36 528 49 q 529 15 529 24 m 1235 917 q 1242 881 1242 899 q 1240 847 1243 864 q 1231 812 1236 829 q 1211 779 1225 794 q 1203 769 1207 775 q 1200 757 1200 764 q 1190 743 1200 747 q 1173 735 1182 740 q 1156 725 1164 731 q 1147 724 1151 724 q 1142 731 1142 725 q 1133 753 1140 744 q 1119 771 1125 761 q 1096 810 1110 790 q 1071 850 1082 829 q 1024 933 1047 890 q 975 1018 1000 975 q 993 1026 985 1022 q 1008 1033 1001 1029 q 1056 1048 1032 1047 q 1106 1046 1081 1049 q 1179 1008 1146 1042 q 1212 966 1199 989 q 1235 917 1225 943 m 982 429 q 981 446 981 438 q 981 463 981 454 q 986 475 981 469 l 926 475 q 836 485 882 485 q 743 488 790 486 q 740 488 742 488 q 736 489 739 489 l 736 624 q 779 626 744 625 q 854 628 814 628 q 924 628 894 629 q 951 625 953 628 q 1013 620 982 617 q 1071 615 1044 624 q 1128 610 1099 606 q 1179 603 1157 614 l 1179 468 l 1178 468 l 1178 400 q 1153 398 1165 399 q 1128 397 1140 397 l 1014 397 q 997 399 1006 397 q 983 407 989 400 q 983 419 983 414 q 982 429 982 424 m 699 204 q 695 227 693 214 q 697 257 697 240 q 850 262 775 260 q 1000 265 925 264 q 1022 271 1000 269 q 1078 273 1044 272 q 1147 274 1113 274 q 1203 273 1181 274 q 1226 272 1226 272 q 1226 248 1226 253 q 1226 224 1225 243 q 1201 129 1231 169 q 1144 58 1175 90 q 1069 7 1114 26 q 1038 0 1056 0 q 978 1 1008 3 q 918 0 947 0 q 829 21 867 -1 q 761 78 792 43 q 724 138 738 106 q 699 204 710 171 z "},"":{"ha":1389,"x_min":188,"x_max":1193,"o":"m 404 656 q 310 657 357 657 q 218 657 263 657 l 188 657 l 188 799 q 189 831 188 815 q 190 861 190 846 q 211 883 190 882 q 299 884 251 883 q 389 885 347 885 q 390 899 389 892 q 389 914 390 907 q 379 987 382 971 q 376 1011 376 1003 q 377 1027 376 1017 q 379 1042 378 1038 q 448 1044 406 1042 q 531 1049 490 1046 q 593 1051 572 1051 q 594 1045 593 1049 q 596 1031 594 1042 q 608 958 603 996 q 615 881 613 921 l 640 881 q 673 881 640 881 q 760 881 706 881 q 875 883 814 882 q 906 881 892 883 q 935 881 919 879 q 1011 885 986 883 q 1047 887 1036 886 q 1064 888 1057 888 q 1084 887 1071 888 q 1103 883 1097 886 q 1100 815 1100 857 q 1101 731 1100 772 q 1100 669 1101 690 q 1090 669 1094 669 q 1072 668 1086 669 q 862 656 975 658 q 631 654 749 653 q 635 583 633 618 q 638 513 636 547 q 655 513 646 513 q 672 514 664 513 q 734 515 703 515 q 797 515 765 515 l 803 379 q 747 371 775 375 q 690 363 718 367 q 666 360 678 361 q 646 360 654 360 q 574 356 608 358 q 504 351 539 354 q 472 350 488 350 q 440 349 457 350 q 426 351 435 349 q 418 364 421 356 q 413 454 417 404 q 408 538 408 504 q 407 600 408 571 q 404 656 406 629 m 1046 524 q 1108 474 1082 503 q 1154 408 1135 444 q 1176 357 1168 383 q 1188 303 1183 331 q 1176 213 1193 258 q 1103 103 1153 149 q 1074 78 1089 90 q 1044 57 1060 67 q 876 13 967 10 q 860 31 861 14 q 858 59 858 44 q 856 88 857 74 q 849 177 853 132 q 844 267 846 222 q 837 332 843 300 q 831 397 831 364 q 831 424 831 411 q 824 450 832 438 q 822 494 822 468 q 822 542 821 521 q 822 564 822 564 q 842 570 832 569 q 863 568 853 571 q 888 567 875 567 q 913 567 900 568 q 964 557 940 567 q 1006 541 985 549 q 1046 524 1026 533 m 490 -36 q 483 -19 482 -36 q 488 22 483 -3 q 500 71 493 47 q 512 108 507 94 q 515 115 517 122 q 535 115 525 115 q 554 114 544 114 q 665 113 610 113 q 775 113 719 114 q 803 108 789 111 q 833 103 818 106 l 835 -35 q 797 -35 815 -35 q 760 -36 778 -35 q 625 -35 692 -35 q 490 -36 558 -36 z "},"":{"ha":1389,"x_min":108,"x_max":1279,"o":"m 325 663 q 231 663 278 663 q 139 664 183 664 l 108 664 l 108 806 q 110 836 108 821 q 111 868 111 851 q 132 890 111 886 q 220 891 172 890 q 310 890 268 892 q 310 906 310 899 q 310 921 311 913 q 300 994 303 978 q 297 1018 297 1010 q 298 1033 297 1022 q 300 1047 299 1044 q 369 1050 326 1047 q 452 1056 411 1053 q 514 1058 493 1058 q 515 1051 514 1054 q 517 1038 515 1047 q 528 965 524 1003 q 536 888 533 928 l 561 888 q 594 888 561 888 q 681 888 626 888 q 796 890 735 889 q 821 889 810 890 q 843 888 832 888 q 843 920 843 904 q 844 954 843 936 q 849 965 846 960 q 854 975 851 969 q 869 1003 861 989 q 886 1031 878 1017 q 876 1035 883 1033 q 881 1040 879 1038 q 886 1043 883 1042 q 908 1056 897 1050 q 928 1067 918 1061 q 938 1072 933 1069 q 949 1067 943 1074 q 946 1046 958 1058 q 944 1042 946 1044 q 959 1017 951 1029 q 975 992 967 1004 q 1034 898 1004 944 q 1093 804 1064 851 q 1097 798 1096 801 q 1099 792 1097 794 q 1104 783 1101 788 q 1113 772 1107 779 q 1112 769 1113 772 q 1108 763 1111 765 q 1078 749 1096 756 q 1063 743 1071 746 q 1049 738 1056 740 q 1040 736 1046 736 l 1021 736 l 1021 676 q 1011 676 1015 676 q 993 674 1007 676 q 783 663 896 665 q 551 661 669 660 q 556 590 554 625 q 558 518 557 554 q 576 519 567 519 q 593 521 585 519 q 655 522 624 522 q 718 522 686 521 l 724 386 q 667 378 696 382 q 611 369 639 374 q 587 367 599 368 q 567 367 575 367 l 567 365 q 494 362 529 364 q 425 358 460 360 q 393 357 408 357 q 363 356 378 357 q 349 358 351 356 l 347 358 q 339 371 342 361 q 333 461 338 411 q 329 544 329 511 q 328 607 329 578 q 325 663 326 636 m 1156 754 q 1132 794 1146 775 q 1107 835 1118 814 q 1060 917 1083 875 q 1011 1003 1036 960 q 1029 1010 1021 1007 q 1044 1018 1038 1014 q 1092 1033 1068 1032 q 1142 1031 1117 1033 q 1215 993 1182 1026 q 1249 951 1235 974 q 1272 901 1263 928 q 1279 866 1279 883 q 1276 832 1279 849 q 1267 797 1274 814 q 1247 764 1261 779 q 1240 754 1243 760 q 1236 742 1236 749 q 1226 728 1236 732 q 1210 719 1218 725 q 1192 710 1201 714 q 1183 709 1188 708 q 1178 715 1178 710 q 1169 737 1176 729 q 1156 754 1161 744 m 776 94 q 770 184 774 139 q 765 274 767 229 q 758 338 764 306 q 751 404 751 371 q 752 431 751 418 q 744 457 753 444 q 742 501 743 474 q 742 549 742 528 q 743 571 743 571 q 783 575 763 579 q 808 574 796 574 q 833 574 821 574 q 860 571 847 574 q 885 564 872 568 q 926 548 906 556 q 967 529 947 540 q 1029 481 1003 510 q 1075 415 1056 451 q 1097 364 1089 390 q 1108 310 1104 338 q 1097 219 1114 265 q 1024 110 1074 154 q 995 85 1010 97 q 965 64 981 74 q 797 19 888 17 q 781 36 782 19 q 778 66 779 51 q 776 94 778 81 m 411 -31 q 403 -13 403 -31 q 409 28 404 4 q 421 76 414 53 q 433 114 428 100 q 436 121 438 128 q 456 121 446 122 q 475 119 465 119 q 585 119 531 119 q 696 118 640 119 q 754 110 724 117 l 756 -28 q 717 -28 736 -28 q 681 -29 699 -29 q 546 -28 613 -28 q 411 -31 479 -29 z "},"":{"ha":1389,"x_min":122,"x_max":1225,"o":"m 1017 888 q 1107 818 1069 860 q 1171 725 1144 776 q 1202 651 1190 689 q 1219 572 1214 613 q 1220 508 1225 540 q 1204 443 1215 475 q 1162 358 1188 399 q 1100 286 1136 318 q 1059 252 1081 268 q 1014 222 1038 236 q 776 158 904 156 q 757 163 763 158 q 750 183 751 168 q 747 224 749 203 q 744 265 746 244 q 735 394 740 329 q 728 522 731 458 q 718 615 726 569 q 710 708 710 661 q 710 747 710 728 q 699 783 710 765 q 697 829 697 801 q 696 884 696 857 q 697 929 696 911 q 697 947 697 947 q 754 953 724 960 q 790 951 772 950 q 826 951 808 951 q 864 947 846 950 q 900 936 882 943 q 960 914 931 925 q 1017 888 990 903 m 132 628 q 130 682 131 656 q 128 735 129 708 q 126 785 126 758 q 122 839 125 811 q 144 842 133 842 q 164 843 154 842 q 324 853 244 849 q 483 861 403 857 q 571 863 526 863 q 663 863 615 863 l 671 668 q 590 657 631 663 q 508 644 549 651 q 447 641 474 642 q 419 642 419 640 l 132 628 m 347 97 q 340 115 339 97 q 346 159 340 133 q 358 210 351 185 q 370 249 365 235 q 374 256 375 263 q 394 256 385 257 q 414 254 404 254 l 643 254 q 674 250 658 253 q 704 244 689 247 l 706 100 q 667 99 686 99 q 628 99 647 99 q 488 99 557 100 q 347 97 418 99 z "},"":{"ha":1389,"x_min":231,"x_max":1139,"o":"m 608 253 q 547 249 574 250 q 521 249 521 247 l 240 236 q 238 289 239 264 q 236 340 238 314 q 233 390 235 364 q 231 443 232 415 q 252 446 242 446 q 271 446 263 446 q 427 456 349 451 q 583 464 506 461 q 642 465 613 465 q 700 465 671 465 q 701 497 700 485 q 701 510 701 510 q 724 516 713 515 q 749 514 736 517 q 778 513 764 513 q 808 513 793 513 q 868 500 839 513 q 917 481 893 490 q 964 461 942 472 q 1038 403 1007 438 q 1090 326 1068 369 q 1115 266 1106 297 q 1131 203 1125 235 q 1117 96 1139 150 q 1082 27 1103 60 q 1032 -31 1061 -6 q 999 -58 1015 -44 q 963 -83 982 -72 q 804 -135 889 -128 l 804 -137 q 761 -138 782 -137 q 719 -139 740 -139 q 568 -138 643 -137 q 417 -140 493 -139 q 409 -121 408 -140 q 415 -74 410 -101 q 428 -19 421 -46 q 441 22 436 7 q 444 31 446 38 q 467 30 456 31 q 489 29 479 29 q 612 28 550 28 q 735 28 674 29 q 731 94 733 61 q 728 161 729 126 q 722 215 726 189 q 715 268 718 242 q 662 260 689 264 q 608 253 635 257 z "},"":{"ha":1389,"x_min":75,"x_max":1329,"o":"m 1171 496 q 1172 431 1176 464 q 1156 367 1167 399 q 1113 283 1139 322 q 1051 211 1088 243 q 1011 176 1032 193 q 967 146 990 160 q 728 82 857 79 q 709 87 714 82 q 701 107 704 92 q 699 147 700 126 q 697 189 697 168 q 687 317 692 253 q 681 446 682 382 q 670 539 679 493 q 661 632 661 585 q 662 670 661 651 q 650 707 663 689 q 648 753 649 725 q 647 808 647 781 q 648 853 647 835 q 649 871 649 871 q 707 876 675 883 q 743 874 725 874 q 779 875 761 875 q 817 870 799 874 q 853 860 835 867 q 874 852 864 856 q 893 844 883 849 q 893 872 893 858 q 894 899 893 885 q 898 910 894 904 q 904 919 901 915 q 919 949 911 935 q 936 976 928 963 q 933 977 935 976 q 925 979 931 978 q 931 985 928 982 q 935 989 933 988 q 957 1001 946 996 q 978 1013 968 1007 q 988 1017 983 1015 q 997 1013 992 1018 q 996 992 1008 1001 q 993 986 996 989 q 1008 961 1000 974 q 1025 936 1017 949 q 1084 842 1054 889 q 1143 749 1114 796 q 1147 744 1146 747 q 1149 738 1147 740 q 1163 718 1153 731 q 1157 708 1163 713 q 1143 699 1151 703 q 1128 693 1135 696 q 1115 689 1122 692 q 1101 683 1108 686 q 1124 649 1113 668 q 1154 574 1143 613 q 1171 496 1165 536 m 1228 661 q 1219 682 1226 674 q 1206 700 1211 690 q 1182 740 1196 721 q 1157 779 1168 758 q 1110 863 1133 819 q 1061 949 1086 906 q 1079 956 1071 953 q 1094 963 1088 958 q 1142 978 1118 976 q 1190 976 1167 979 q 1265 938 1232 971 q 1298 895 1285 918 q 1321 846 1311 872 q 1328 811 1328 829 q 1326 776 1329 793 q 1317 741 1322 758 q 1297 710 1311 724 q 1290 699 1293 704 q 1286 686 1286 693 q 1276 674 1286 678 q 1259 665 1268 669 q 1242 656 1250 660 q 1233 654 1238 654 q 1228 661 1228 654 m 79 658 q 75 763 78 707 q 115 767 96 767 q 276 776 196 772 q 435 785 356 781 q 524 787 479 788 q 614 786 568 786 l 622 592 q 541 581 582 586 q 461 568 500 575 q 398 565 425 565 q 371 565 371 564 l 83 553 q 81 606 82 579 q 79 658 81 632 m 300 21 q 292 39 292 21 q 298 83 293 57 q 310 133 303 108 q 322 173 317 158 q 325 181 326 188 q 347 179 336 181 q 367 179 357 178 q 481 178 424 178 q 596 178 539 178 q 626 174 611 176 q 656 168 640 171 l 658 24 q 618 23 638 24 q 579 22 599 22 q 439 23 508 24 q 300 21 369 22 z "},"":{"ha":1389,"x_min":168,"x_max":1215,"o":"m 783 706 q 486 760 636 731 q 200 814 336 790 l 168 819 q 181 893 175 858 q 193 963 188 928 q 200 994 196 979 q 207 1025 204 1010 q 233 1043 211 1044 q 360 1022 290 1033 q 476 1000 429 1011 q 589 978 538 986 q 688 958 640 969 q 722 952 688 958 q 815 937 757 946 q 938 917 872 928 q 969 910 954 914 q 1000 903 983 906 q 1081 892 1054 896 q 1119 888 1108 889 q 1138 885 1131 886 q 1159 880 1144 883 q 1179 874 1174 876 q 1163 805 1171 847 q 1149 724 1156 763 q 1145 702 1147 714 q 1140 679 1143 690 q 1138 668 1139 674 q 1138 658 1138 663 l 1136 658 q 1122 609 1129 629 q 1117 596 1115 589 q 1097 597 1107 596 q 1075 597 1086 597 q 960 598 1018 599 q 844 599 903 597 q 815 603 831 600 q 783 607 800 606 l 783 706 m 754 567 q 757 463 756 515 q 756 357 758 410 q 760 281 754 319 q 763 204 765 243 q 760 174 761 189 q 768 143 758 158 q 767 92 769 124 q 763 35 765 60 q 760 10 761 10 q 703 8 733 1 q 667 12 685 11 q 631 14 650 13 q 560 31 593 17 q 502 51 531 42 q 447 75 474 61 q 363 137 397 101 q 304 215 328 172 q 278 278 288 246 q 265 342 269 310 q 289 446 261 394 q 337 513 308 482 q 403 567 365 543 q 445 593 422 581 q 490 615 468 606 q 731 654 608 664 q 750 649 746 653 q 754 633 754 646 q 754 567 757 600 m 924 256 q 972 256 951 257 q 993 254 993 256 l 1215 251 q 1215 208 1215 229 q 1214 163 1214 186 q 1213 122 1213 143 q 1211 76 1213 100 q 1194 76 1203 75 q 1179 76 1186 76 q 1056 76 1118 76 q 932 76 993 75 q 864 80 899 78 q 793 83 829 82 l 797 244 q 861 250 829 247 q 924 256 893 253 z "},"":{"ha":1389,"x_min":93,"x_max":1318,"o":"m 1151 764 q 1147 754 1151 758 q 1133 745 1140 749 q 1117 739 1125 742 q 1102 733 1110 736 q 1088 728 1094 731 l 1081 728 q 1078 710 1079 719 q 1075 694 1076 701 q 1067 649 1072 671 q 1063 628 1065 636 l 1061 628 q 1047 578 1054 599 q 1042 565 1040 558 q 1022 566 1032 565 q 1001 567 1011 567 q 885 567 943 568 q 771 568 828 567 q 741 572 757 569 q 710 578 725 575 l 708 676 q 412 730 563 700 q 125 783 261 760 l 93 790 q 106 863 100 828 q 118 932 113 897 q 126 964 121 949 q 132 994 131 979 q 160 1013 136 1014 q 241 999 197 1007 q 328 984 285 992 q 401 969 371 976 q 515 947 463 956 q 614 928 567 939 q 649 922 614 928 q 740 906 683 915 q 863 886 797 897 q 873 884 868 885 q 882 882 878 883 q 882 913 882 897 q 883 944 882 929 q 893 965 886 956 q 908 994 900 981 q 925 1022 917 1008 q 915 1026 924 1022 q 920 1031 918 1029 q 925 1035 922 1033 q 947 1047 936 1042 q 967 1058 957 1053 q 977 1063 972 1061 q 988 1058 982 1064 q 986 1038 996 1047 q 983 1032 986 1038 q 998 1008 990 1021 q 1014 982 1006 994 q 1058 913 1036 947 q 1101 844 1079 879 q 1104 843 1103 843 l 1104 840 q 1118 817 1111 829 q 1132 794 1125 806 q 1135 790 1135 793 q 1138 783 1136 786 q 1144 775 1140 779 q 1151 764 1147 771 m 1217 707 q 1208 728 1215 719 q 1194 746 1200 736 q 1171 786 1185 767 q 1146 825 1157 806 q 1099 908 1122 865 q 1050 994 1075 951 q 1068 1001 1060 999 q 1083 1008 1076 1004 q 1131 1024 1107 1022 q 1181 1022 1156 1025 q 1254 983 1221 1017 q 1288 941 1274 964 q 1311 892 1301 918 q 1318 857 1318 875 q 1315 822 1318 839 q 1306 787 1313 804 q 1286 756 1300 769 q 1278 744 1282 750 q 1275 732 1275 739 q 1265 719 1275 724 q 1249 710 1257 715 q 1231 701 1240 706 q 1222 700 1226 700 q 1217 707 1217 700 m 681 536 q 683 432 682 485 q 681 326 683 379 q 685 251 679 289 q 688 174 690 213 q 685 144 686 160 q 694 113 683 128 q 693 61 696 93 q 688 5 690 29 q 686 -19 686 -19 q 628 -21 658 -28 q 593 -17 611 -18 q 557 -15 575 -17 q 521 -10 539 -14 q 485 0 503 -6 q 428 21 456 11 q 372 44 400 31 q 289 106 324 71 q 229 185 254 142 q 203 247 213 215 q 192 311 194 279 q 195 364 189 338 q 215 415 201 390 q 328 536 254 489 q 371 563 349 550 q 417 585 393 575 q 657 625 531 633 q 675 619 671 624 q 681 603 679 615 l 681 536 m 1138 46 l 1104 46 q 981 46 1043 46 q 857 47 919 46 q 789 49 824 47 q 718 53 754 51 l 722 214 q 786 219 754 217 q 849 225 818 222 q 897 226 876 226 q 918 224 918 225 l 1140 221 q 1140 177 1140 199 q 1139 133 1140 156 q 1138 91 1139 113 q 1138 46 1138 69 z "},"":{"ha":1389,"x_min":242,"x_max":1164,"o":"m 379 678 q 467 740 421 715 q 461 779 464 760 q 456 817 458 799 q 441 933 449 869 q 422 1049 433 997 q 440 1077 418 1071 q 505 1085 461 1083 q 610 1089 549 1086 q 625 997 618 1042 q 638 908 632 953 q 647 854 643 882 q 654 800 651 826 q 655 797 654 799 q 656 793 656 796 q 679 793 667 793 q 703 792 692 793 q 722 785 718 790 q 726 764 726 779 l 726 679 q 727 546 726 613 q 725 413 728 479 q 729 315 724 364 q 732 217 735 267 q 729 178 731 199 q 738 139 728 158 q 737 92 738 119 q 734 36 736 64 q 731 -10 732 8 q 729 -29 729 -29 q 672 -32 703 -40 q 637 -27 654 -28 q 601 -25 619 -26 q 531 -6 565 -24 q 475 20 503 7 q 421 50 447 33 q 338 128 372 83 q 281 229 304 174 q 256 308 264 268 q 243 389 247 349 q 248 458 242 424 q 267 522 254 492 q 379 678 307 617 m 764 624 l 763 767 q 801 767 782 767 q 840 768 821 767 q 978 767 910 767 q 1117 768 1047 768 q 1124 751 1125 768 q 1119 708 1124 733 q 1107 658 1114 682 q 1095 619 1100 633 q 1092 611 1090 606 q 1072 612 1082 611 q 1051 613 1061 613 q 938 613 994 614 q 824 614 881 613 q 794 618 810 615 q 764 624 779 621 m 875 165 q 924 166 903 167 q 944 164 944 165 l 1164 160 q 1163 117 1163 138 q 1161 74 1163 96 q 1160 33 1161 54 q 1160 -10 1160 13 q 1143 -11 1151 -11 q 1128 -11 1135 -11 q 1006 -11 1068 -11 q 883 -10 944 -11 q 817 -7 851 -10 q 747 -3 783 -4 l 751 154 q 814 160 783 157 q 875 165 844 163 z "},"":{"ha":1389,"x_min":175,"x_max":1224,"o":"m 313 671 q 354 705 332 689 q 400 733 376 721 q 394 772 397 753 q 389 810 392 792 q 374 926 382 863 q 356 1042 367 990 q 373 1070 351 1064 q 438 1078 394 1076 q 543 1082 482 1079 q 558 990 551 1035 q 571 901 565 946 q 581 847 576 875 q 588 793 585 819 q 588 790 588 792 q 589 786 589 788 q 613 786 600 786 q 636 785 625 786 q 656 778 651 783 q 660 757 660 772 l 660 672 q 660 539 660 606 q 658 404 661 472 q 663 308 657 357 q 665 210 668 260 q 663 171 664 190 q 671 132 661 151 q 670 85 671 113 q 667 29 669 57 q 664 -17 665 1 q 663 -36 663 -36 q 606 -39 636 -47 q 570 -35 588 -35 q 535 -33 553 -35 q 464 -12 497 -29 q 408 13 436 0 q 354 43 381 26 q 272 122 306 76 q 214 222 238 167 q 188 300 197 260 q 176 382 179 340 q 181 451 175 417 q 200 515 188 485 q 313 671 240 610 m 697 617 l 696 760 l 857 760 q 838 778 847 768 q 821 797 829 788 q 801 828 810 813 q 785 861 792 843 q 784 865 785 864 q 783 868 783 867 q 783 904 783 886 q 785 940 783 922 q 788 951 785 946 q 793 961 792 956 q 810 989 801 975 q 826 1017 818 1003 q 815 1021 821 1019 q 820 1026 818 1024 q 825 1031 822 1029 q 847 1042 836 1036 q 868 1053 857 1047 q 877 1058 872 1056 q 888 1053 882 1060 q 886 1032 896 1044 q 885 1031 886 1032 q 883 1028 885 1031 q 898 1003 890 1015 q 914 978 906 990 q 974 884 944 931 q 1033 790 1003 838 q 1035 785 1035 789 q 1038 779 1036 782 q 1043 771 1040 775 q 1050 761 1046 767 q 1058 742 1058 760 q 1051 699 1057 724 q 1040 649 1046 674 q 1028 612 1033 625 q 1025 604 1024 599 q 1005 605 1015 604 q 985 606 994 606 q 871 606 928 607 q 757 607 814 606 q 728 611 743 608 q 697 617 713 614 m 1131 697 q 1117 701 1119 689 q 1108 724 1117 715 q 1094 742 1100 732 q 1072 781 1085 763 q 1046 821 1058 800 q 999 903 1022 861 q 950 989 975 946 q 969 997 961 993 q 985 1004 978 1000 q 1031 1019 1007 1018 q 1081 1018 1056 1021 q 1154 979 1121 1013 q 1188 937 1175 960 q 1211 888 1201 914 q 1215 818 1224 851 q 1206 783 1213 800 q 1186 750 1200 765 q 1175 728 1176 740 q 1167 714 1175 717 q 1149 706 1157 711 q 1131 697 1140 701 m 1094 67 q 1094 26 1094 47 q 1093 -17 1093 6 q 1076 -18 1085 -18 q 1061 -18 1068 -18 q 939 -18 1000 -18 q 817 -17 878 -18 q 751 -14 785 -17 q 681 -10 717 -11 l 685 146 q 747 152 717 149 q 808 158 778 156 q 857 158 836 158 q 878 157 878 158 l 1097 153 q 1096 110 1096 131 q 1094 67 1096 89 z "},"":{"ha":1389,"x_min":115,"x_max":1294,"o":"m 117 832 q 121 861 115 853 q 147 878 126 869 q 212 892 179 889 q 278 899 244 896 q 276 906 276 901 q 276 913 276 910 q 269 1002 272 949 q 263 1099 265 1056 q 281 1117 264 1117 q 310 1119 296 1118 q 338 1122 324 1121 q 399 1127 368 1125 q 463 1131 429 1129 l 464 1107 q 471 1017 467 1064 q 478 924 475 971 q 489 924 483 924 q 500 926 494 925 q 552 931 526 929 q 604 939 578 933 q 626 937 618 942 q 643 921 635 932 q 678 943 656 932 q 718 938 700 954 q 731 909 725 933 q 739 861 736 885 q 742 838 742 838 q 745 795 744 815 q 747 754 746 775 q 742 713 750 721 q 701 701 735 706 q 599 688 650 693 q 496 679 547 683 q 502 541 500 608 q 501 413 504 474 l 501 390 q 447 387 483 389 q 372 382 410 385 q 311 375 335 379 q 308 390 310 379 q 306 407 307 401 l 306 513 q 302 535 304 524 q 300 560 300 547 q 297 617 299 589 q 294 667 296 644 q 247 664 271 665 q 200 660 224 663 q 173 658 188 658 q 139 656 158 657 q 131 682 136 669 q 124 708 125 694 q 120 770 121 740 q 117 832 119 800 m 1293 644 q 1294 628 1294 636 q 1294 611 1294 619 l 999 619 q 999 730 999 675 q 1000 840 999 785 q 1001 851 1000 846 q 1003 861 1003 856 q 1002 878 1003 869 q 1000 901 1001 888 q 1006 906 1001 901 q 1017 910 1011 910 q 1044 908 1031 910 q 1072 904 1058 907 q 1097 899 1085 903 q 1124 893 1110 896 q 1130 890 1126 892 q 1138 886 1133 889 q 1149 878 1143 882 q 1161 871 1156 875 q 1256 774 1226 832 q 1293 644 1286 715 m 915 601 q 913 553 914 576 q 910 507 911 531 q 901 416 906 461 q 894 326 897 371 q 903 317 899 322 q 911 307 907 313 q 919 296 915 301 q 928 283 924 290 q 960 278 944 281 q 993 272 976 275 q 1066 263 1029 267 q 1139 253 1103 258 q 1141 222 1142 244 q 1138 176 1140 200 q 1131 138 1135 153 q 1082 143 1107 140 q 1032 147 1057 146 q 993 151 1014 150 q 953 154 972 153 q 951 147 953 150 q 947 138 950 142 q 936 139 943 135 q 913 148 926 149 q 888 150 899 147 q 837 159 863 157 q 785 167 811 161 q 681 188 733 176 q 572 210 628 199 q 579 230 575 221 q 585 249 583 239 q 606 300 590 278 q 643 340 622 322 q 674 360 657 353 q 708 371 690 368 q 716 456 713 414 q 724 542 719 499 q 731 578 726 560 q 742 614 736 596 l 915 601 m 946 113 q 960 108 951 111 q 972 107 965 107 q 988 106 978 107 q 990 101 988 104 q 992 94 992 99 q 988 76 990 85 q 982 58 985 68 q 976 42 979 50 q 969 26 972 35 q 964 18 968 22 q 958 10 961 14 q 951 3 954 7 q 877 -49 919 -36 q 786 -60 835 -61 q 744 -55 765 -58 q 704 -43 724 -51 q 697 -40 700 -43 q 667 -14 682 -26 q 638 13 653 -1 q 631 24 633 17 q 626 36 629 31 q 615 69 621 51 q 603 104 610 86 q 599 102 601 103 q 592 99 596 101 q 591 106 592 103 q 592 113 590 110 q 597 139 594 126 q 603 165 600 151 q 606 177 604 172 q 618 182 608 182 q 633 165 633 183 q 636 160 635 165 q 668 156 651 158 q 701 150 685 153 q 824 131 763 140 q 946 113 885 122 z "},"":{"ha":1389,"x_min":185,"x_max":1206,"o":"m 185 374 q 190 386 185 378 q 187 474 189 431 q 185 561 185 518 q 186 747 185 654 q 189 933 188 840 q 190 956 189 944 q 192 981 190 968 l 438 981 l 438 647 q 440 616 439 647 q 438 543 440 585 q 429 469 433 507 q 422 394 425 432 q 478 395 450 394 q 535 396 507 396 l 544 56 q 525 57 535 57 q 504 58 515 57 q 349 100 419 67 q 232 210 278 133 q 222 224 226 217 q 214 236 218 231 q 206 253 207 246 q 199 282 203 268 q 192 311 194 296 q 187 342 189 326 q 185 374 185 358 m 1136 722 l 1136 719 l 1139 647 q 1113 644 1125 646 q 1086 643 1100 643 q 1026 641 1056 642 q 967 639 997 640 q 949 639 958 638 q 935 647 940 640 q 933 660 933 654 q 932 671 932 665 q 930 688 931 679 q 929 706 929 697 q 935 718 929 713 l 893 718 q 883 717 888 718 q 872 717 878 717 q 777 724 825 725 q 681 722 729 722 q 677 723 679 722 q 672 724 675 724 l 668 865 q 700 869 675 867 q 758 873 725 871 q 822 876 792 875 q 873 876 853 876 q 892 874 893 876 q 958 872 925 867 q 1018 869 990 876 q 1078 866 1047 861 q 1132 860 1108 871 l 1136 722 m 971 383 q 994 388 971 388 q 1053 385 1018 388 q 1123 380 1088 383 q 1182 374 1158 376 q 1206 372 1206 372 q 1203 346 1204 351 q 1201 321 1203 340 q 1168 226 1201 265 q 1103 157 1138 189 q 1022 110 1069 125 q 1006 107 1015 108 q 988 107 997 106 q 926 113 957 111 q 864 115 894 114 q 774 144 811 118 q 708 210 738 171 q 675 276 686 242 q 654 346 664 311 q 653 370 651 357 q 657 400 656 383 q 817 392 739 396 q 971 383 894 388 z "},"":{"ha":1389,"x_min":100,"x_max":1326,"o":"m 181 103 q 163 150 171 128 q 143 192 154 172 q 104 313 108 250 q 108 440 100 376 q 142 544 115 496 q 207 633 168 593 q 344 735 268 694 q 337 765 340 750 q 329 794 333 781 q 314 865 322 829 q 296 939 306 900 q 381 966 340 951 q 467 978 422 981 q 497 971 486 978 q 510 944 507 964 q 526 872 518 908 q 540 799 533 835 q 625 790 583 799 q 714 767 669 782 q 794 721 758 753 q 803 779 800 750 q 808 838 806 808 q 815 897 811 867 q 824 963 819 928 q 899 960 863 960 q 969 944 935 960 q 991 931 985 939 q 994 906 997 922 q 971 740 983 824 q 946 575 958 657 q 945 567 946 571 q 944 561 944 564 q 944 544 947 551 q 926 535 940 536 q 872 512 893 533 q 825 478 850 490 q 722 417 771 451 q 619 351 672 383 q 613 349 614 349 q 622 315 618 332 q 632 282 626 299 q 638 253 636 268 q 632 226 640 239 q 612 219 621 222 q 594 211 603 215 q 567 202 581 207 q 538 194 553 197 q 501 218 511 189 q 492 246 497 232 q 483 274 488 260 q 334 190 410 232 q 181 103 258 147 m 1181 317 q 1189 311 1185 314 q 1197 306 1193 308 q 1262 269 1229 288 q 1326 232 1294 251 q 1317 202 1326 222 q 1297 160 1308 182 q 1275 126 1286 139 q 1231 150 1253 138 q 1188 174 1210 163 q 1158 190 1174 182 q 1128 204 1143 197 q 1126 202 1126 203 q 1124 200 1125 201 q 1116 194 1121 196 q 1108 196 1111 192 l 1107 197 q 1088 215 1100 211 q 1064 226 1075 218 q 1020 255 1043 242 q 975 282 997 268 q 886 340 931 310 q 796 400 842 369 q 794 402 794 401 q 792 404 793 403 q 806 421 799 414 q 818 436 813 428 q 858 475 833 461 q 908 499 882 489 q 1003 497 953 513 q 1059 472 1033 488 q 1107 433 1085 456 q 1132 402 1122 419 q 1147 365 1142 385 q 1151 350 1150 358 q 1154 333 1153 342 q 1168 325 1161 329 q 1181 317 1175 321 m 746 304 q 748 313 747 308 q 750 318 749 317 q 766 341 758 329 q 782 364 774 353 q 789 373 785 369 q 801 374 793 376 q 811 351 815 368 l 811 346 q 826 335 818 340 q 843 325 835 331 q 856 318 850 322 q 868 311 863 314 q 975 247 921 279 q 1083 182 1029 214 q 1089 178 1086 181 q 1094 174 1092 176 q 1106 168 1100 171 q 1119 161 1111 165 q 1120 156 1119 160 q 1119 149 1121 151 q 1097 118 1108 132 q 1085 105 1092 111 q 1072 92 1079 99 q 1069 89 1071 90 q 1064 86 1067 88 q 1056 83 1060 85 q 1047 78 1051 81 q 956 56 1001 53 q 867 81 911 60 q 830 101 847 90 q 797 128 813 113 q 790 133 792 131 q 773 169 782 151 q 756 206 764 188 q 754 219 754 213 q 754 232 754 226 q 756 269 754 251 q 758 306 757 288 q 753 306 757 306 q 746 304 750 306 m 767 357 l 767 358 q 769 357 768 357 q 771 356 769 357 q 767 357 768 356 z "},"":{"ha":1389,"x_min":131,"x_max":1269,"o":"m 131 449 q 175 503 174 463 q 183 505 179 504 q 193 507 188 506 q 192 522 190 515 q 200 535 194 528 q 267 619 233 578 q 333 704 300 661 q 314 703 324 704 q 293 703 304 703 q 230 704 263 704 q 161 704 197 704 q 156 783 160 744 q 163 858 151 821 q 174 885 167 878 q 200 890 182 892 q 283 888 242 889 q 367 886 325 888 l 365 1074 q 403 1077 374 1076 q 473 1078 433 1078 q 550 1078 513 1078 q 610 1081 588 1079 l 606 779 q 619 739 614 760 q 629 696 625 718 q 632 669 632 682 q 631 643 632 656 q 681 660 654 654 q 733 669 707 665 q 773 671 753 672 q 811 667 793 669 q 834 663 822 665 q 857 660 846 660 q 951 633 908 656 q 1032 579 993 611 q 1044 565 1039 574 q 1056 550 1050 557 q 1076 520 1065 535 q 1096 489 1086 506 q 1107 466 1103 479 q 1115 442 1111 453 q 1122 414 1121 428 q 1138 390 1124 400 q 1144 377 1143 388 q 1144 360 1146 367 q 1138 316 1142 338 q 1131 272 1135 294 q 1128 264 1131 269 q 1142 210 1139 240 q 1142 195 1142 203 q 1140 181 1142 188 q 1151 171 1146 175 q 1160 161 1156 167 q 1166 155 1163 158 q 1172 149 1169 151 q 1221 104 1196 126 q 1269 58 1246 82 q 1243 19 1265 46 q 1203 -22 1221 -8 q 1170 8 1186 -7 q 1138 36 1154 22 q 1115 56 1126 47 q 1092 75 1103 65 q 1090 73 1090 74 q 1088 71 1089 72 q 1074 71 1078 64 q 1072 74 1072 72 q 1059 92 1069 86 q 1042 107 1049 97 q 1009 140 1026 125 q 975 172 992 156 q 920 231 949 201 q 864 290 892 260 q 735 310 800 300 q 606 329 671 319 q 605 152 607 240 q 610 -22 603 64 l 375 -22 l 371 369 q 345 367 358 368 q 318 365 332 365 q 297 367 308 365 q 274 371 285 369 q 251 378 263 374 q 226 376 240 383 q 215 378 222 375 q 201 385 207 381 q 142 432 169 408 q 136 439 139 435 q 131 449 133 443 m 769 153 q 770 164 768 158 q 774 175 772 169 q 783 206 778 190 q 793 238 788 222 q 781 239 790 239 q 785 246 783 243 q 789 250 788 249 q 806 267 797 258 q 825 283 815 275 q 833 290 829 288 q 844 288 838 293 q 847 267 856 279 q 847 265 847 267 q 846 261 847 264 q 859 250 853 256 q 871 238 865 244 q 879 229 875 233 q 889 221 883 225 q 969 143 929 182 q 1049 65 1010 104 q 1053 60 1050 63 q 1055 57 1054 58 q 1057 54 1056 56 q 1065 48 1060 51 q 1075 39 1069 44 q 1075 34 1075 38 q 1072 28 1075 31 q 1060 17 1067 22 q 1047 7 1054 11 q 1035 -2 1042 1 q 1021 -10 1028 -6 q 1013 -12 1015 -12 q 1004 -15 1008 -14 q 996 -17 1000 -15 q 913 -17 951 -29 q 840 21 875 -6 q 813 46 826 32 q 789 76 800 60 q 786 82 786 79 q 777 117 782 100 q 769 153 772 135 m 810 281 l 811 282 q 813 280 813 281 q 814 278 813 279 q 812 279 813 279 q 810 281 811 279 z "},"":{"ha":1389,"x_min":172,"x_max":1204,"o":"m 181 404 q 188 518 172 464 q 224 625 203 572 q 251 673 235 651 q 285 715 267 694 q 306 740 296 728 q 325 764 317 751 q 424 856 367 821 q 549 914 482 892 q 573 918 560 918 q 599 919 586 918 q 649 922 624 919 q 700 924 674 924 q 735 919 717 922 q 771 913 753 915 q 808 900 790 908 q 849 901 826 892 q 868 899 856 904 q 889 886 881 893 q 936 848 913 868 q 982 807 960 828 q 991 796 988 803 q 1000 778 994 789 q 946 749 964 768 q 925 694 928 731 q 911 692 919 693 q 894 689 903 690 q 897 665 901 675 q 882 643 892 654 q 644 360 764 501 q 406 74 525 218 q 386 54 397 67 q 344 88 365 71 q 307 126 322 104 q 286 155 299 142 q 263 182 274 168 q 207 288 224 232 q 181 404 190 344 m 1143 529 q 1151 509 1147 519 q 1158 489 1154 499 q 1185 277 1204 379 q 1110 79 1167 175 q 1095 57 1103 68 q 1079 35 1088 46 l 719 317 q 825 458 772 388 q 931 597 878 528 q 942 610 935 604 q 954 621 949 615 q 969 644 961 632 q 988 674 976 656 q 1000 674 990 672 q 1017 669 1010 675 q 1049 642 1033 657 q 1079 611 1065 626 q 1106 581 1094 597 q 1132 550 1118 565 q 1139 540 1136 546 q 1143 529 1142 535 z "},"":{"ha":1389,"x_min":158,"x_max":1250,"o":"m 1240 200 q 1191 206 1215 203 q 1142 211 1167 210 q 1110 214 1126 213 q 1076 217 1093 215 q 1075 210 1075 214 q 1060 201 1069 194 q 1035 210 1049 211 q 1011 213 1022 210 q 960 222 986 219 q 908 229 935 224 q 804 250 857 239 q 697 272 751 261 q 703 292 700 283 q 708 311 707 301 q 731 362 714 340 q 768 401 747 383 q 793 419 779 413 q 821 429 807 425 q 816 486 818 457 q 811 542 814 515 q 810 568 810 556 q 810 593 810 581 q 744 593 776 593 q 678 592 711 593 l 618 592 q 610 619 615 607 q 606 644 606 632 q 605 707 604 676 q 606 768 606 738 q 612 798 606 790 q 640 813 618 806 q 716 824 678 824 q 790 826 754 824 l 811 826 l 811 1029 l 1043 1029 q 1044 1001 1044 1015 q 1044 976 1044 988 q 1046 908 1046 942 q 1047 839 1046 874 q 1073 841 1060 840 q 1099 843 1086 842 q 1138 822 1124 844 q 1173 842 1150 833 q 1214 835 1196 851 q 1224 805 1221 831 q 1229 756 1228 779 q 1231 732 1231 732 l 1231 649 q 1222 610 1231 617 q 1181 600 1214 603 q 1115 596 1147 597 q 1049 593 1082 594 l 1049 563 q 1047 461 1049 513 q 1044 357 1046 410 q 1049 350 1047 354 q 1053 343 1051 346 q 1078 339 1065 342 q 1103 335 1090 336 q 1175 325 1139 329 q 1247 315 1211 321 q 1250 285 1250 307 q 1247 239 1250 263 q 1240 200 1244 215 m 165 282 q 158 342 158 314 q 164 353 161 350 q 160 438 163 396 q 158 519 158 479 q 160 695 158 607 q 163 871 161 783 q 163 894 163 882 q 165 917 164 906 l 397 917 l 397 601 q 400 572 400 601 q 397 501 400 542 q 390 433 394 468 q 383 361 386 397 q 438 362 411 361 q 490 363 464 363 l 499 42 q 480 42 489 42 q 461 43 471 42 q 314 82 381 50 q 203 186 247 114 l 186 211 q 182 219 185 215 q 178 226 179 222 q 172 255 175 242 q 165 282 168 268 m 753 103 q 742 136 747 119 q 729 171 736 153 q 725 169 728 171 q 718 165 722 168 q 717 173 718 169 q 718 179 717 176 q 724 206 721 193 q 729 232 726 218 q 733 244 731 239 q 743 250 735 249 q 756 245 753 250 q 760 233 758 240 q 763 226 761 233 q 794 222 778 225 q 826 217 810 219 q 949 198 888 207 q 1071 179 1011 189 q 1078 178 1074 179 q 1085 175 1082 176 q 1111 174 1092 174 q 1114 169 1111 172 q 1115 161 1117 165 q 1107 126 1113 143 q 1101 110 1104 118 q 1094 93 1097 101 q 1092 90 1093 92 q 1089 85 1090 88 l 1076 71 q 1002 19 1044 32 q 911 7 960 6 q 870 12 890 8 q 831 24 850 15 q 822 26 828 24 q 794 53 808 40 q 764 79 779 65 q 758 90 760 83 q 753 103 756 97 z "},"":{"ha":1389,"x_min":24,"x_max":1368,"o":"m 1124 747 l 1107 747 q 1100 748 1104 747 q 1093 749 1096 749 q 1095 725 1094 735 q 1096 715 1096 715 l 1096 632 q 1088 592 1096 599 q 1046 582 1079 585 q 981 578 1014 581 q 914 576 947 576 l 914 544 q 913 443 914 494 q 910 339 911 392 q 915 333 913 336 q 918 325 917 329 l 968 317 q 1040 307 1004 311 q 1113 297 1076 303 q 1115 267 1115 289 q 1113 221 1115 244 q 1106 182 1110 197 q 1056 188 1081 185 q 1007 193 1032 192 q 975 197 992 196 q 942 199 958 197 q 941 196 942 197 q 940 193 940 194 q 925 185 938 176 q 901 193 914 194 q 876 194 888 192 q 826 204 851 201 q 774 211 800 207 q 670 233 722 222 q 563 254 618 244 q 569 275 565 265 q 574 293 572 285 q 597 344 581 322 q 633 385 613 367 q 686 413 657 404 q 681 469 683 440 q 676 524 679 497 q 675 551 675 538 q 675 575 675 564 l 483 575 q 476 602 481 589 q 471 628 471 615 q 470 690 469 660 q 471 751 471 721 q 478 781 471 774 q 506 796 485 789 q 581 806 543 807 q 656 808 619 806 q 666 810 661 810 q 676 810 671 810 l 676 1013 l 908 1013 q 911 985 911 999 q 911 958 911 971 q 911 890 911 924 q 913 822 911 857 q 938 823 925 822 q 963 825 950 824 q 929 886 940 856 q 928 890 929 889 q 928 893 928 892 q 928 929 928 911 q 929 965 928 947 q 933 976 929 971 q 938 986 936 981 q 954 1014 946 1000 q 971 1042 963 1028 q 960 1046 965 1044 q 965 1051 963 1049 q 969 1054 967 1053 q 991 1067 981 1061 q 1013 1078 1001 1072 q 1022 1083 1017 1081 q 1032 1078 1026 1085 q 1031 1057 1040 1069 q 1030 1056 1031 1057 q 1028 1053 1029 1056 q 1042 1028 1035 1040 q 1058 1003 1050 1015 q 1118 909 1089 956 q 1178 815 1147 863 q 1182 804 1181 807 q 1188 796 1185 800 q 1197 785 1192 792 q 1195 780 1196 783 q 1192 775 1194 776 q 1177 766 1185 769 q 1163 760 1169 763 q 1148 754 1156 757 q 1133 749 1140 751 q 1124 747 1129 747 m 1261 726 q 1253 749 1261 740 q 1239 767 1244 757 q 1216 806 1229 786 q 1190 846 1203 825 q 1144 928 1168 886 q 1094 1014 1119 971 q 1114 1022 1106 1018 q 1129 1029 1122 1025 q 1176 1044 1153 1043 q 1225 1043 1200 1046 q 1299 1004 1265 1038 q 1333 962 1319 985 q 1356 913 1346 939 q 1360 843 1368 876 q 1351 808 1357 825 q 1331 775 1344 790 q 1319 753 1321 765 q 1311 739 1319 742 q 1293 731 1301 736 q 1276 722 1285 726 q 1261 726 1263 714 m 25 325 q 29 336 25 332 q 26 421 28 379 q 25 503 25 463 q 26 678 25 590 q 28 854 26 765 q 28 876 28 865 q 31 900 29 888 l 263 900 l 263 583 q 265 554 265 583 q 263 485 265 525 q 256 415 260 450 q 249 344 251 381 l 356 344 l 365 24 q 346 24 356 24 q 326 25 336 25 q 179 65 246 33 q 68 168 113 97 q 60 182 64 175 q 51 194 56 189 q 44 210 46 201 q 37 238 40 224 q 31 265 33 251 q 26 295 29 281 q 25 325 24 310 m 936 163 q 943 160 939 161 q 950 158 947 158 q 962 157 956 157 q 976 156 968 157 q 980 151 978 154 q 981 144 982 149 q 972 108 979 128 q 966 92 969 100 q 960 76 963 85 q 957 73 958 75 q 954 68 956 71 q 948 60 951 64 q 942 54 944 57 q 867 2 910 15 q 776 -10 825 -11 q 735 -4 756 -8 q 696 6 715 0 q 692 8 694 7 q 689 10 690 8 q 659 35 674 22 q 629 63 644 49 q 623 74 625 67 q 618 86 621 81 q 607 119 613 103 q 594 154 601 136 q 590 151 593 153 q 583 147 588 150 q 583 156 583 153 q 583 163 582 160 q 589 189 586 176 q 594 215 592 201 q 598 227 596 222 q 610 232 600 232 q 625 215 625 232 q 628 210 625 215 q 660 204 643 207 q 692 199 676 201 q 815 181 753 189 q 936 163 876 172 z "},"":{"ha":1389,"x_min":11,"x_max":1390,"o":"m 1338 939 q 1367 897 1358 921 q 1382 850 1376 874 q 1368 765 1390 807 q 1338 720 1356 740 q 1297 682 1321 700 q 1232 654 1269 658 q 1194 653 1214 653 q 1157 661 1175 653 q 1132 665 1144 669 q 1115 669 1122 663 q 1102 683 1110 676 q 1088 697 1094 690 q 1083 706 1083 701 l 1083 617 q 1075 577 1083 585 q 1033 567 1067 569 q 967 564 1000 565 q 901 561 935 563 l 901 531 q 900 429 901 481 q 897 325 899 378 q 902 317 900 321 q 906 311 904 314 q 931 306 918 308 q 956 301 943 304 q 1028 292 992 296 q 1100 282 1064 288 q 1103 252 1103 274 q 1100 207 1103 231 q 1093 168 1097 183 q 1044 174 1068 171 q 994 178 1019 176 q 963 182 979 181 q 929 185 946 183 q 928 178 928 182 q 913 169 922 163 q 888 178 901 179 q 864 181 875 178 q 813 190 839 188 q 761 197 788 192 q 657 218 710 207 q 550 240 604 229 q 556 260 553 251 q 561 279 560 269 q 583 330 567 308 q 621 369 600 351 q 646 387 632 381 q 674 397 660 393 q 669 453 671 425 q 664 510 667 482 q 663 536 663 524 q 663 561 663 549 q 597 561 629 561 q 531 560 564 561 l 471 560 q 463 588 468 575 q 458 613 458 600 q 458 675 457 644 q 458 736 458 706 q 465 766 458 758 q 493 781 472 774 q 569 792 531 792 q 643 793 607 792 q 653 794 649 794 q 664 794 658 794 l 664 997 l 896 997 q 897 969 897 983 q 897 944 897 956 q 899 876 899 910 q 900 807 899 842 q 926 809 913 808 q 951 811 939 810 q 986 796 974 813 q 984 872 975 836 q 1015 942 993 908 q 1039 972 1026 958 q 1067 999 1051 986 q 1074 1003 1068 1000 q 1107 1014 1090 1008 q 1142 1024 1124 1019 q 1155 1025 1149 1026 q 1167 1022 1161 1024 q 1198 1015 1182 1019 q 1231 1008 1214 1011 l 1231 1019 q 1238 1017 1235 1018 q 1243 1014 1242 1017 q 1261 997 1253 1006 q 1279 981 1269 989 q 1286 972 1283 976 q 1286 961 1289 968 q 1265 956 1279 949 l 1258 956 q 1240 934 1250 946 q 1221 911 1231 922 q 1215 904 1219 908 l 1211 908 q 1208 909 1210 910 q 1207 907 1207 908 l 1186 911 q 1178 913 1183 913 q 1167 910 1172 911 q 1156 906 1161 908 q 1154 905 1154 906 q 1153 904 1154 904 q 1136 885 1143 896 q 1128 832 1118 860 q 1128 830 1128 831 q 1129 826 1129 829 q 1129 826 1129 826 q 1131 824 1129 825 q 1135 820 1133 822 q 1138 817 1136 818 q 1140 813 1138 815 q 1111 776 1126 794 q 1081 739 1096 758 q 1082 720 1082 729 q 1083 708 1082 711 q 1088 713 1083 711 q 1106 728 1100 718 q 1119 747 1111 739 q 1142 772 1131 758 q 1163 799 1153 785 q 1165 798 1164 799 q 1168 797 1167 797 q 1193 794 1179 792 q 1215 804 1207 797 q 1238 832 1229 814 q 1243 860 1244 847 q 1240 870 1242 865 q 1235 881 1238 875 q 1274 923 1254 901 q 1313 967 1293 944 q 1326 951 1319 958 q 1338 939 1332 944 m 353 8 q 333 10 343 10 q 314 11 324 10 q 167 50 233 18 q 56 154 100 82 l 39 179 q 35 187 38 183 q 31 194 33 190 q 24 222 28 208 q 18 250 21 236 q 14 281 17 265 q 13 310 11 296 q 17 321 13 317 q 14 406 15 364 q 13 488 13 447 q 13 663 13 575 q 15 839 14 751 q 16 861 15 850 q 18 885 17 872 l 250 885 l 250 569 q 253 540 253 569 q 250 469 253 510 q 243 400 247 435 q 236 329 239 365 q 290 330 264 329 q 343 331 317 331 l 353 8 m 938 143 q 964 142 944 142 q 967 137 965 140 q 968 129 969 133 q 960 94 965 111 q 953 78 957 86 q 947 61 950 69 q 944 58 946 60 q 942 53 943 56 q 935 46 939 50 q 929 39 932 42 q 855 -13 897 0 q 764 -25 813 -26 q 723 -19 743 -22 q 683 -7 703 -15 q 675 -4 681 -7 q 647 21 661 8 q 617 47 632 33 q 610 58 613 51 q 606 71 608 65 q 594 104 600 88 q 582 139 589 121 q 578 137 581 138 q 571 133 575 136 q 570 141 571 138 q 571 147 569 144 q 576 174 574 161 q 582 200 579 186 q 585 212 583 207 q 596 217 588 217 q 613 200 613 218 q 615 194 614 200 q 647 190 631 193 q 679 185 663 188 q 802 166 740 175 q 924 147 864 157 q 931 146 926 147 q 938 143 935 144 z "},"":{"ha":1389,"x_min":69,"x_max":1351,"o":"m 124 490 q 108 528 117 510 q 93 564 100 546 q 76 683 69 625 q 107 800 82 742 q 132 849 118 825 q 160 896 146 872 q 165 901 163 899 q 171 907 168 904 q 183 915 178 911 q 194 924 189 918 q 301 974 243 964 q 418 981 358 985 q 571 917 503 975 q 601 888 588 904 q 628 854 615 871 q 632 824 644 836 q 633 792 633 808 q 635 761 633 776 q 638 624 636 692 q 642 486 640 556 q 711 488 676 488 q 781 489 746 489 q 865 494 822 488 q 950 497 907 500 q 984 496 967 497 q 1018 504 1001 494 q 1075 505 1040 506 q 1138 503 1110 504 q 1165 500 1165 501 q 1168 447 1175 476 q 1165 415 1164 432 q 1163 382 1165 399 q 1147 317 1161 350 q 1125 264 1136 290 q 1099 214 1114 238 q 1032 136 1071 168 q 946 81 993 104 q 878 56 913 65 q 807 43 843 47 q 692 63 747 39 q 617 105 651 81 q 554 164 582 129 q 524 201 539 182 q 499 243 510 221 q 450 460 444 346 q 456 475 451 471 q 454 478 447 478 q 454 500 453 489 q 454 522 456 511 q 453 611 454 567 q 451 699 453 656 q 421 678 436 689 q 390 657 406 668 q 321 611 356 633 q 251 565 286 589 q 243 558 250 565 l 211 538 q 169 515 190 526 q 124 490 147 504 m 1126 839 q 1133 839 1129 838 q 1140 839 1136 840 q 1199 824 1168 831 q 1256 806 1229 817 q 1282 787 1269 800 q 1303 761 1294 774 q 1337 695 1326 731 q 1351 621 1347 660 q 1346 603 1346 607 q 1347 598 1346 600 q 1344 585 1349 596 q 1315 590 1344 583 q 1238 610 1285 597 q 1139 635 1192 622 q 1040 661 1086 649 q 964 681 993 674 q 935 689 935 689 q 949 729 942 717 q 994 789 968 768 q 1060 824 1019 810 q 1092 835 1076 829 q 1126 839 1108 840 m 901 546 q 898 566 893 547 q 913 608 903 585 q 931 648 924 632 q 938 658 939 664 q 952 656 944 657 q 967 653 960 654 q 1049 640 1008 646 q 1132 626 1090 633 q 1153 621 1143 625 q 1175 613 1164 617 l 1160 508 q 1132 513 1146 511 q 1103 517 1118 515 q 1002 532 1051 525 q 901 546 953 539 z "},"":{"ha":1389,"x_min":47,"x_max":1336,"o":"m 901 975 q 906 985 903 981 q 911 996 908 990 q 926 1024 918 1010 q 943 1051 935 1038 q 933 1056 940 1054 q 938 1060 936 1058 q 943 1064 940 1063 q 965 1076 954 1071 q 985 1088 975 1082 q 995 1092 990 1090 q 1006 1088 1000 1094 q 1004 1067 1014 1079 l 1001 1063 q 1016 1038 1008 1050 q 1032 1013 1024 1025 q 1091 919 1061 965 q 1150 825 1121 872 q 1153 819 1153 822 q 1156 814 1154 817 q 1162 806 1158 810 q 1169 794 1165 801 q 1169 790 1169 793 q 1165 785 1168 786 q 1151 776 1158 779 q 1135 769 1143 772 q 1120 764 1128 767 q 1106 758 1113 761 q 1097 757 1103 757 l 1079 757 q 1001 776 1035 756 q 939 831 967 797 q 919 862 928 846 q 903 896 910 878 q 900 903 900 901 q 900 939 900 921 q 901 975 900 957 m 1329 922 q 1336 887 1336 904 q 1333 853 1336 869 q 1324 817 1331 835 q 1304 785 1318 800 q 1297 775 1300 781 q 1293 763 1293 769 q 1283 749 1293 753 q 1267 741 1275 746 q 1249 732 1258 736 q 1240 730 1244 729 q 1235 736 1235 731 q 1226 758 1233 750 q 1213 776 1218 767 q 1189 815 1203 796 q 1164 856 1175 835 q 1117 938 1140 896 q 1068 1024 1093 981 q 1086 1031 1078 1028 q 1101 1039 1094 1035 q 1149 1054 1125 1053 q 1199 1053 1174 1056 q 1272 1014 1239 1047 q 1306 972 1292 994 q 1329 922 1319 949 m 101 400 q 86 437 94 419 q 71 472 78 454 q 53 592 47 533 q 85 708 60 651 q 110 758 96 733 q 138 804 124 782 q 149 815 140 810 q 161 824 156 819 q 172 832 167 828 q 278 883 221 872 q 396 890 336 893 q 549 826 481 882 q 579 797 565 813 q 606 764 593 781 q 610 733 622 744 q 611 701 611 717 q 613 669 611 685 q 616 533 614 601 q 619 396 618 465 q 689 398 654 397 q 758 397 724 399 q 842 403 800 397 q 928 407 885 410 q 962 405 944 406 q 996 414 979 404 q 1053 414 1018 415 q 1115 411 1088 413 q 1143 410 1143 410 q 1146 357 1153 386 q 1142 325 1142 342 q 1140 292 1143 308 q 1125 226 1139 260 q 1103 174 1114 200 q 1076 124 1092 147 q 1010 46 1049 78 q 924 -8 971 14 q 856 -33 890 -24 q 785 -46 821 -42 q 726 -43 756 -49 q 669 -26 697 -37 q 594 15 629 -10 q 532 72 560 39 q 502 111 517 92 q 476 151 488 131 q 429 369 421 256 q 433 385 429 381 q 430 386 431 386 q 432 386 429 386 q 433 409 432 397 q 432 432 433 421 q 431 520 432 476 q 429 608 431 564 q 399 588 415 599 q 368 565 383 576 q 299 521 333 543 q 229 475 264 499 q 221 468 228 475 l 190 447 q 147 424 168 436 q 101 400 125 413 m 1282 671 q 1315 604 1306 640 q 1331 531 1325 568 q 1324 513 1324 517 q 1325 508 1324 510 q 1324 494 1326 506 q 1293 500 1324 493 q 1216 519 1263 507 q 1117 544 1169 531 q 1018 571 1065 558 q 942 591 971 583 q 913 599 913 599 q 919 621 915 610 q 926 639 924 632 q 972 698 946 676 q 1038 733 997 719 q 1071 744 1054 739 q 1106 749 1088 749 q 1111 749 1108 747 q 1118 749 1114 750 q 1176 733 1146 740 q 1233 714 1207 725 q 1260 696 1249 708 q 1282 671 1272 683 m 879 456 q 876 476 871 457 q 891 518 881 494 q 909 558 901 542 q 915 568 917 574 q 930 565 922 567 q 944 563 938 564 q 1027 549 986 556 q 1110 536 1068 543 q 1131 530 1121 533 q 1153 522 1142 526 l 1138 417 q 1110 422 1124 419 q 1081 425 1096 424 q 981 441 1031 433 q 879 456 931 449 z "},"":{"ha":1389,"x_min":31,"x_max":1388,"o":"m 1119 864 q 1122 860 1121 863 q 1125 856 1124 858 q 1128 853 1126 854 q 1131 850 1129 851 q 1103 816 1117 833 q 1075 782 1089 799 q 1071 778 1074 781 q 1065 774 1068 776 q 1059 765 1063 769 q 1051 754 1056 761 q 1047 754 1050 754 q 1040 756 1043 754 q 1028 767 1033 761 q 1017 779 1022 774 q 1006 792 1011 786 q 996 804 1001 799 q 993 813 993 810 q 990 821 992 817 q 988 829 989 825 q 980 913 971 874 q 1013 989 989 953 q 1037 1019 1024 1004 q 1064 1044 1050 1033 q 1071 1049 1068 1049 q 1105 1061 1088 1056 q 1140 1071 1122 1067 q 1152 1072 1146 1072 q 1164 1069 1158 1071 q 1195 1063 1179 1067 q 1228 1056 1211 1058 q 1228 1060 1228 1057 q 1229 1067 1228 1063 q 1235 1064 1232 1065 q 1240 1060 1239 1063 q 1258 1044 1250 1053 q 1276 1026 1267 1035 q 1283 1018 1281 1022 q 1283 1007 1286 1014 q 1263 1003 1276 996 l 1257 1003 q 1238 981 1247 993 q 1218 957 1228 969 q 1212 950 1215 954 q 1206 942 1208 946 q 1203 946 1204 944 q 1200 949 1201 947 q 1196 946 1196 949 q 1185 949 1190 947 q 1174 951 1179 950 l 1167 951 q 1156 949 1161 950 q 1143 944 1150 947 l 1142 943 q 1125 925 1131 935 q 1113 899 1117 913 q 1115 871 1110 886 q 1117 869 1117 869 q 1118 867 1117 868 q 1119 864 1118 864 m 1336 985 q 1365 944 1356 967 q 1379 896 1374 921 q 1365 813 1388 854 q 1335 766 1353 786 q 1296 728 1318 746 q 1265 710 1282 717 q 1231 701 1247 704 q 1249 685 1240 696 q 1265 665 1258 675 q 1299 599 1289 635 q 1314 525 1308 563 q 1307 508 1307 511 q 1308 502 1307 504 q 1307 489 1310 500 q 1277 494 1307 488 q 1200 513 1247 501 q 1101 539 1153 525 q 1002 565 1049 553 q 926 585 956 578 q 896 593 896 593 q 903 615 899 604 q 910 633 907 626 q 956 692 931 671 q 1021 728 982 714 q 1053 738 1038 733 q 1088 743 1069 743 q 1085 744 1086 743 q 1085 760 1075 757 q 1103 776 1097 765 q 1117 794 1108 786 q 1153 838 1135 813 q 1157 836 1154 836 q 1169 833 1163 833 q 1182 833 1176 833 q 1203 843 1196 836 q 1226 871 1218 854 q 1231 899 1233 883 q 1224 918 1228 911 q 1267 965 1246 942 q 1310 1013 1288 989 q 1323 999 1317 1006 q 1336 985 1329 992 m 206 463 l 174 442 q 131 419 151 431 q 86 394 110 407 q 69 431 78 414 q 54 467 61 449 q 37 587 31 528 q 68 703 43 646 q 94 752 81 728 q 121 799 107 776 q 127 806 124 803 q 133 810 131 808 q 144 818 139 814 q 156 826 150 822 q 263 877 206 867 q 379 885 319 888 q 461 865 424 881 q 532 821 499 849 q 563 791 549 807 q 590 758 578 775 q 594 728 606 739 q 595 695 594 711 q 596 664 596 679 q 599 528 597 596 q 603 390 601 460 q 673 392 639 392 q 742 392 707 393 q 826 398 785 392 q 911 401 868 404 q 945 399 928 400 q 979 408 963 399 q 1036 408 1001 410 q 1099 406 1071 407 q 1126 404 1126 404 q 1129 351 1136 381 q 1126 319 1126 336 q 1125 286 1126 303 q 1108 221 1122 251 q 1086 168 1097 194 q 1061 118 1075 142 q 994 40 1032 72 q 907 -14 956 8 q 839 -38 874 -29 q 768 -51 804 -47 q 710 -49 739 -54 q 653 -32 681 -43 q 578 9 614 -15 q 515 67 543 33 q 487 106 501 86 q 461 146 472 125 q 413 364 404 249 q 417 379 413 375 q 415 381 413 381 q 416 403 415 392 q 417 426 417 415 q 415 515 415 471 q 414 603 414 558 q 383 582 399 593 q 351 560 367 571 q 283 515 317 538 q 213 469 249 493 q 206 463 210 469 m 863 450 q 860 470 856 451 q 875 513 865 489 q 893 552 885 536 q 899 563 901 568 q 913 560 906 561 q 928 557 921 558 q 1011 544 969 550 q 1093 531 1053 538 q 1115 524 1104 528 q 1136 517 1125 521 l 1122 413 q 1093 417 1107 415 q 1065 419 1079 418 q 964 435 1014 428 q 863 450 914 443 z "},"":{"ha":1389,"x_min":67,"x_max":1326,"o":"m 631 1006 q 643 1008 638 1010 q 654 1003 649 1007 q 813 905 733 954 q 971 807 892 856 q 976 803 974 806 q 982 799 978 801 q 969 776 975 788 q 951 754 963 764 q 940 742 944 749 q 928 728 935 735 q 879 693 906 706 q 824 672 853 681 q 767 667 794 664 q 711 678 739 671 q 685 688 697 681 q 661 701 672 694 q 649 710 656 706 q 635 718 642 715 q 581 761 603 735 q 544 818 560 788 q 541 831 542 824 q 538 843 540 838 q 533 867 536 854 q 529 892 531 879 q 528 910 528 901 q 529 928 529 919 q 533 948 531 939 q 529 967 536 957 q 530 976 528 969 q 533 989 532 983 q 549 1015 540 1001 q 567 1040 557 1028 q 572 1046 568 1043 q 579 1051 575 1049 q 625 1021 594 1017 q 631 1006 628 1017 m 450 561 q 472 588 461 575 q 494 614 483 600 q 515 640 504 626 q 538 667 526 653 q 548 658 543 663 q 558 651 553 654 q 634 590 596 621 q 710 528 672 560 q 751 492 731 510 q 792 454 771 474 l 711 357 q 669 385 690 372 q 628 413 647 399 q 597 437 610 426 q 585 449 585 447 l 450 561 m 150 107 q 84 195 101 144 q 68 304 67 246 q 73 354 69 329 q 86 403 76 379 q 88 408 88 406 q 90 411 89 410 q 121 449 106 431 q 153 485 136 467 q 167 493 158 490 q 181 499 175 496 q 222 513 201 506 q 264 528 242 521 q 260 533 263 531 q 256 542 258 536 q 265 542 261 542 q 274 542 269 543 q 305 536 289 540 q 338 529 321 532 q 351 526 344 528 q 358 513 357 524 q 339 492 358 494 q 336 491 338 492 q 332 489 335 490 q 326 451 329 471 q 319 411 322 431 q 301 263 310 338 q 281 115 292 189 q 278 107 279 111 q 276 99 276 103 q 275 85 275 92 q 274 67 275 78 q 269 63 272 65 q 260 60 265 60 q 239 65 250 63 q 217 71 228 68 q 197 78 207 74 q 178 85 188 82 q 167 92 172 88 q 158 99 163 96 q 150 107 154 103 m 913 369 q 931 335 922 353 q 946 300 940 318 q 957 231 957 265 q 949 163 957 197 q 932 115 943 138 q 907 74 921 93 q 881 44 897 57 q 847 21 865 31 q 735 -6 794 -6 q 701 -4 718 -6 q 669 0 685 -3 q 535 69 592 15 q 533 90 525 79 q 549 111 540 101 q 565 131 557 121 q 613 192 589 161 q 664 253 638 224 q 699 299 683 275 q 732 346 714 324 q 749 363 740 354 q 758 385 757 371 q 783 415 768 397 q 812 446 799 432 q 825 460 825 460 q 842 451 835 457 q 854 438 849 444 q 869 422 861 429 q 886 407 878 415 q 913 369 901 392 m 1318 253 q 1317 183 1326 218 q 1300 138 1311 160 q 1271 97 1289 117 q 1231 58 1253 74 q 1110 11 1174 17 q 1094 24 1097 11 q 1092 45 1093 35 q 1088 67 1090 56 q 1076 132 1082 99 q 1065 199 1069 165 q 1056 247 1063 224 q 1046 296 1049 271 q 1043 315 1044 306 q 1035 333 1042 325 q 1031 367 1033 347 q 1026 403 1028 388 q 1025 419 1025 419 q 1056 425 1039 428 q 1074 426 1065 425 q 1093 428 1083 428 q 1132 425 1111 429 q 1165 417 1149 421 q 1196 406 1181 413 q 1285 329 1250 382 q 1305 292 1297 311 q 1318 253 1313 272 m 361 249 q 371 266 357 253 q 406 294 385 279 q 441 317 426 308 q 451 322 456 326 q 460 314 456 318 q 468 306 464 310 q 520 257 494 281 q 572 210 546 233 q 583 195 578 203 q 594 179 589 188 l 525 101 q 506 117 515 110 q 489 133 497 125 q 426 191 458 163 q 361 249 393 219 z "},"":{"ha":1389,"x_min":64,"x_max":1350,"o":"m 1089 613 q 1009 631 1043 611 q 947 686 975 651 q 937 701 942 693 q 926 717 932 708 q 926 715 926 715 q 925 714 925 715 q 876 679 903 692 q 821 658 850 667 q 764 653 792 649 q 708 664 736 657 q 683 674 694 667 q 660 688 671 681 q 646 696 653 692 q 632 704 639 700 q 580 747 601 721 q 542 804 558 774 q 539 816 540 810 q 536 829 538 822 q 531 853 535 840 q 526 878 528 865 q 526 895 525 886 q 526 914 526 904 q 531 934 528 925 q 526 953 533 943 q 527 963 525 956 q 532 974 529 969 q 564 1026 546 999 q 569 1032 567 1029 q 576 1038 572 1035 q 624 1007 590 1003 q 626 1000 625 1004 q 629 992 628 996 q 642 994 636 996 q 653 989 647 992 q 781 910 717 950 q 910 829 846 869 q 915 840 911 835 q 919 850 918 846 q 935 879 926 865 q 953 907 944 893 q 949 908 951 907 q 942 910 946 908 q 947 915 944 913 q 951 919 949 918 q 973 932 963 926 q 994 943 983 938 q 1003 947 999 946 q 1014 943 1008 949 q 1013 922 1022 932 q 1010 917 1013 922 q 1024 892 1017 904 q 1040 867 1032 879 q 1099 773 1069 819 q 1160 679 1129 726 q 1162 674 1161 678 q 1164 668 1163 671 q 1170 660 1167 664 q 1179 649 1174 656 q 1177 644 1178 647 q 1174 639 1176 642 q 1159 630 1167 633 q 1143 624 1151 626 q 1128 618 1136 621 q 1114 613 1121 615 l 1089 613 m 1281 868 q 1315 826 1301 849 q 1338 776 1328 803 q 1342 707 1350 742 q 1333 672 1339 689 q 1313 640 1326 654 q 1305 629 1308 635 q 1301 617 1301 624 q 1292 604 1301 607 q 1275 595 1283 600 q 1257 586 1267 590 q 1248 585 1253 585 q 1243 592 1243 585 q 1235 613 1243 604 q 1221 631 1226 621 q 1198 670 1211 651 q 1172 710 1185 689 q 1125 793 1149 750 q 1076 879 1101 836 q 1096 886 1088 883 q 1111 893 1104 889 q 1158 908 1133 907 q 1207 907 1182 910 q 1281 868 1247 901 m 556 638 q 632 576 594 607 q 707 513 669 544 q 748 478 728 496 q 789 440 768 460 l 708 343 q 625 399 665 371 q 594 423 607 413 q 582 435 582 433 l 447 547 q 469 574 458 561 q 492 600 481 586 q 513 626 503 613 q 535 653 524 639 q 547 644 542 649 q 556 638 551 640 m 147 92 q 81 181 99 131 q 65 290 64 232 q 71 340 67 315 q 85 389 75 365 q 89 397 85 393 q 119 435 104 417 q 151 471 133 453 q 164 479 156 476 q 179 485 172 482 q 219 499 199 492 q 261 514 239 507 q 258 519 260 517 q 253 528 256 522 q 263 528 260 528 q 271 528 267 529 q 303 522 286 526 q 335 515 319 518 q 349 512 342 514 q 356 499 356 510 q 336 478 357 481 q 333 477 335 478 q 329 475 332 476 q 324 437 326 457 q 318 397 321 417 q 299 249 308 324 q 279 101 289 175 q 276 93 278 97 q 274 85 275 89 q 272 70 272 78 q 272 51 272 63 q 267 49 271 51 q 258 46 263 46 q 236 51 247 49 q 214 57 225 53 q 194 64 204 60 q 175 71 185 68 q 169 74 172 72 q 164 78 167 76 q 156 85 160 81 q 147 92 151 89 m 661 239 q 696 285 681 261 q 731 332 711 310 q 747 349 738 340 q 757 371 756 357 q 782 401 767 383 q 810 432 797 418 q 824 444 824 446 q 851 424 839 440 q 867 408 858 415 q 883 393 875 400 q 911 356 901 375 q 928 321 919 338 q 943 286 938 304 q 946 147 965 219 q 906 60 933 101 q 878 30 894 43 q 844 7 863 17 q 790 -12 818 -6 q 732 -19 763 -19 q 700 -18 717 -19 q 667 -14 683 -17 q 532 54 589 3 q 531 76 522 64 q 547 97 539 88 q 563 117 554 107 q 610 178 586 147 q 661 239 635 210 m 1283 315 q 1317 239 1306 281 q 1320 205 1321 222 q 1315 169 1319 188 q 1269 82 1301 118 q 1228 44 1251 61 q 1107 -1 1174 3 q 1093 10 1094 -1 q 1090 31 1092 21 q 1086 51 1088 42 q 1074 118 1081 85 q 1063 185 1067 151 q 1053 233 1060 208 q 1043 282 1046 257 q 1041 301 1042 292 q 1033 319 1040 311 q 1028 353 1031 332 q 1024 390 1025 374 q 1024 406 1024 406 q 1053 411 1036 414 q 1072 411 1063 410 q 1090 414 1081 413 q 1131 410 1110 415 q 1163 402 1146 406 q 1193 392 1179 399 q 1244 360 1222 379 q 1283 315 1265 340 m 486 118 q 424 177 456 149 q 360 235 392 206 q 369 252 356 239 q 404 280 383 265 q 439 303 425 294 q 449 308 453 313 q 457 299 453 304 q 467 290 461 294 q 517 243 492 267 q 569 196 543 219 q 582 181 576 189 q 593 165 588 174 l 522 86 q 486 118 506 104 z "},"":{"ha":1389,"x_min":50,"x_max":1310,"o":"m 1139 926 q 1120 903 1129 915 q 1101 881 1111 892 q 1090 867 1096 874 q 1078 853 1085 860 q 1075 853 1076 853 q 1071 853 1074 854 q 1049 846 1061 851 q 1047 845 1047 846 q 1046 844 1047 844 q 1037 836 1040 840 q 1029 826 1033 832 q 1019 781 1014 803 q 989 744 1004 763 q 958 706 974 725 q 953 701 956 703 q 947 696 950 699 q 942 688 944 693 q 933 676 939 683 q 928 676 932 676 q 922 678 925 676 q 899 701 910 689 q 889 714 893 708 q 881 725 885 719 q 845 708 864 715 q 807 693 826 700 q 749 688 778 685 q 693 699 721 692 q 667 708 679 701 q 644 722 656 715 q 632 731 639 726 q 618 739 625 736 q 565 782 586 756 q 528 839 543 808 q 524 851 525 844 q 521 864 522 858 q 517 888 519 875 q 511 913 514 900 q 511 931 510 922 q 513 950 513 940 q 516 969 513 960 q 513 988 519 978 q 513 997 511 990 q 517 1010 514 1004 q 549 1061 533 1038 q 563 1072 551 1065 q 608 1042 578 1038 q 614 1026 611 1038 q 638 1024 624 1033 q 757 950 697 988 q 876 876 817 913 q 885 894 881 885 q 896 911 890 903 q 947 968 915 943 q 950 970 949 969 q 953 972 951 971 q 988 983 971 978 q 1022 993 1004 989 q 1034 994 1028 996 q 1046 992 1040 993 q 1078 985 1061 989 q 1111 978 1094 981 l 1111 990 q 1122 983 1119 986 q 1141 967 1132 975 q 1160 950 1150 958 q 1167 942 1164 946 q 1165 931 1169 938 q 1144 925 1160 918 q 1139 926 1143 925 m 1118 832 q 1117 839 1119 833 q 1110 844 1114 840 q 1151 890 1131 867 q 1193 936 1171 913 q 1206 921 1200 928 q 1218 908 1213 914 q 1247 867 1238 890 q 1263 819 1257 844 q 1263 776 1267 797 q 1249 735 1258 756 q 1218 690 1236 710 q 1178 651 1200 669 q 1147 633 1164 639 q 1113 625 1129 628 q 1075 622 1094 622 q 1038 631 1056 622 q 1013 635 1022 638 q 996 639 1003 632 q 983 653 990 646 q 968 667 975 660 q 968 682 957 678 q 986 698 981 688 q 999 717 992 708 q 1032 754 1018 736 q 1035 751 1035 753 q 1038 749 1036 750 l 1040 749 q 1047 740 1046 743 q 1053 739 1050 739 q 1061 738 1056 740 q 1074 735 1068 735 q 1086 735 1081 735 q 1108 744 1099 738 q 1132 772 1124 756 q 1136 800 1139 785 q 1131 816 1135 808 q 1121 829 1128 824 q 1118 832 1121 829 m 542 672 q 617 611 579 642 q 693 549 656 581 q 733 513 713 531 q 775 475 754 494 l 693 378 q 652 406 674 393 q 611 433 631 419 q 580 458 593 447 q 568 469 567 468 l 433 582 q 456 608 444 596 q 478 635 467 621 q 499 660 488 647 q 521 688 510 674 q 531 679 526 683 q 542 672 536 675 m 258 119 q 258 106 258 114 q 257 88 258 99 q 251 83 256 86 q 243 81 247 81 q 222 86 233 83 q 200 92 211 89 q 181 99 190 94 q 161 106 171 103 q 150 113 156 108 q 142 120 146 117 q 132 128 138 124 q 67 216 85 165 q 51 325 50 267 q 56 375 53 350 q 69 424 60 400 q 72 428 71 426 q 74 432 72 431 q 104 469 89 451 q 136 506 119 488 q 150 514 142 511 q 164 519 158 517 q 204 534 183 526 q 246 549 225 542 q 239 563 246 551 q 249 563 244 563 q 257 563 253 564 q 288 557 272 561 q 321 550 304 553 q 334 547 328 549 q 342 533 340 544 q 321 513 342 515 q 318 512 319 513 q 314 510 317 511 q 309 472 313 492 q 303 432 306 451 q 284 284 293 358 q 264 136 275 210 q 261 128 263 132 q 258 119 260 124 m 890 94 q 831 42 868 61 q 718 14 775 14 q 685 15 701 14 q 653 19 668 17 q 518 90 574 36 q 517 111 508 100 q 532 132 524 122 q 549 151 540 142 q 597 213 572 182 q 647 274 621 244 q 681 320 667 296 q 715 367 696 344 q 732 383 724 375 q 742 406 740 392 q 767 435 751 418 q 795 467 782 453 q 808 481 808 481 q 825 472 818 478 q 838 458 832 465 q 853 443 844 450 q 869 428 861 436 q 896 390 885 413 q 915 356 906 374 q 929 321 924 339 q 940 252 940 286 q 932 183 940 218 q 915 136 926 158 q 890 94 904 114 m 1268 350 q 1288 313 1281 332 q 1301 274 1296 293 q 1300 204 1310 239 q 1283 159 1294 181 q 1254 118 1272 138 q 1214 79 1236 94 q 1093 32 1157 38 q 1078 44 1081 32 q 1075 66 1076 56 q 1071 88 1074 76 q 1059 153 1065 119 q 1049 219 1053 186 q 1038 268 1046 244 q 1028 317 1031 292 q 1026 336 1026 326 q 1018 354 1025 346 q 1014 388 1017 368 q 1010 424 1011 408 q 1008 440 1008 440 q 1039 446 1022 449 q 1058 447 1049 446 q 1076 449 1067 449 q 1115 446 1094 450 q 1148 438 1132 442 q 1179 426 1164 433 q 1268 350 1233 403 m 344 269 q 354 287 340 274 q 389 315 368 300 q 424 338 410 329 q 433 343 438 347 q 443 335 439 339 q 451 326 447 331 q 503 278 478 301 q 554 231 529 254 q 567 216 561 224 q 578 200 572 208 l 508 122 q 490 138 499 131 q 472 154 481 146 q 409 212 442 183 q 344 269 376 240 z "},"":{"ha":1389,"x_min":97,"x_max":1306,"o":"m 399 306 q 351 238 376 271 q 301 169 326 204 l 97 303 q 131 373 114 338 q 164 442 149 408 q 195 492 181 471 q 211 513 210 514 l 358 739 q 360 738 360 738 q 363 736 361 738 q 368 742 365 739 q 372 749 371 746 q 388 766 379 758 q 403 782 396 774 q 414 789 408 788 q 424 795 419 792 q 435 800 429 799 q 549 828 492 832 q 663 799 607 825 q 676 792 669 796 q 688 786 682 789 q 726 776 699 789 q 808 724 771 756 q 883 664 844 692 q 988 586 936 626 q 1090 506 1039 546 q 1144 464 1118 485 q 1197 424 1171 443 q 1217 402 1213 414 q 1219 375 1221 390 q 1269 363 1240 374 q 1303 322 1297 353 q 1297 299 1306 315 q 1277 266 1289 283 q 1256 236 1265 249 q 1247 224 1247 224 q 1217 188 1232 206 q 1188 153 1203 171 q 1152 126 1165 125 q 1104 151 1139 128 q 853 353 974 247 q 608 560 732 458 q 593 573 601 567 q 576 586 585 579 q 568 573 572 579 q 560 560 564 567 q 481 433 521 496 q 399 306 440 369 z "},"":{"ha":1389,"x_min":99,"x_max":1331,"o":"m 1140 690 q 1142 684 1142 688 q 1144 678 1143 681 q 1151 669 1147 674 q 1160 658 1154 665 q 1158 654 1158 657 q 1154 649 1157 651 q 1140 640 1147 644 q 1125 633 1132 636 q 1110 629 1118 632 q 1096 624 1103 626 q 1086 622 1092 622 l 1069 622 q 990 642 1024 621 q 929 696 956 663 q 908 727 918 711 q 892 761 899 743 q 891 765 892 763 q 890 768 890 767 q 890 803 890 786 q 892 839 890 821 q 895 850 892 844 q 900 861 899 856 q 917 889 908 875 q 933 917 925 903 q 929 919 932 918 q 922 921 926 919 q 928 926 925 924 q 932 929 931 928 q 953 942 943 936 q 975 953 964 947 q 985 958 981 956 q 994 953 989 960 q 993 932 1003 943 l 990 926 q 1006 903 997 915 q 1021 876 1014 890 q 1081 784 1051 831 q 1140 690 1110 738 m 1263 879 q 1295 837 1282 860 q 1318 788 1308 814 q 1322 717 1331 753 q 1313 682 1319 700 q 1293 650 1307 664 q 1286 640 1289 644 q 1282 628 1283 635 q 1274 614 1282 617 q 1256 605 1264 610 q 1239 596 1247 600 q 1224 601 1225 590 q 1215 622 1224 614 q 1201 640 1207 631 q 1178 681 1192 661 q 1153 719 1165 700 q 1107 803 1131 761 q 1058 889 1083 846 q 1076 896 1068 893 q 1092 904 1085 899 q 1140 918 1115 917 q 1188 917 1164 919 q 1227 905 1208 915 q 1263 879 1246 894 m 1304 264 q 1299 240 1307 257 q 1278 206 1290 224 q 1258 176 1267 189 q 1249 164 1249 164 q 1219 128 1233 146 q 1189 93 1204 111 q 1153 67 1167 67 q 1106 93 1140 68 q 854 293 975 188 q 608 500 733 399 q 594 513 601 507 q 576 526 586 519 q 569 513 574 519 q 561 500 565 507 q 482 373 522 436 q 400 246 442 310 q 353 179 378 213 q 303 110 328 146 l 99 243 q 133 313 115 278 q 165 382 150 349 q 197 433 182 413 q 213 453 211 454 l 360 679 q 362 678 361 678 q 364 676 363 678 q 369 683 367 679 q 374 690 372 688 q 389 706 381 699 q 404 722 397 714 q 415 729 407 726 q 426 735 421 732 q 436 740 431 739 q 551 769 493 772 q 664 739 608 765 q 677 733 671 738 q 689 726 683 729 q 728 717 700 729 q 809 664 772 696 q 885 604 846 632 q 989 526 938 567 q 1092 446 1040 486 q 1146 405 1119 425 q 1199 365 1172 385 q 1218 343 1214 356 q 1221 315 1222 331 q 1270 303 1242 314 q 1304 264 1299 293 z "},"":{"ha":1389,"x_min":90,"x_max":1300,"o":"m 972 744 q 975 741 974 743 q 978 736 976 739 q 978 736 978 736 q 979 735 978 736 q 954 706 967 721 q 929 676 942 692 q 925 672 928 674 q 919 667 922 669 q 914 659 917 664 q 906 647 911 654 q 901 647 904 647 q 894 649 897 647 q 871 672 882 660 q 861 685 865 679 q 851 697 857 692 q 849 702 850 700 q 847 706 849 704 q 844 714 846 710 q 842 722 843 718 q 835 806 826 767 q 868 882 844 846 q 919 939 888 914 q 922 941 921 940 q 925 943 924 942 q 960 954 943 949 q 994 964 976 960 q 1006 965 1000 967 q 1018 963 1013 964 q 1050 956 1033 960 q 1083 949 1067 951 l 1083 960 q 1090 958 1088 958 q 1094 954 1093 957 q 1113 938 1104 946 q 1132 921 1122 929 q 1139 913 1136 917 q 1138 901 1142 908 q 1117 896 1131 889 l 1111 896 q 1092 874 1101 886 q 1074 851 1083 863 q 1063 840 1068 846 q 1054 828 1058 833 q 1053 829 1053 828 q 1049 826 1049 829 q 1038 829 1043 828 q 1026 832 1032 831 q 1023 833 1025 832 q 1019 832 1021 833 q 1008 829 1014 831 q 996 825 1003 828 l 994 824 q 978 806 983 815 q 966 780 969 793 q 968 753 963 767 q 971 747 971 747 q 972 744 971 744 m 940 653 q 958 669 953 658 q 971 688 964 679 q 985 702 978 694 q 999 718 992 710 l 1001 718 q 1010 717 1007 718 q 1022 714 1015 714 q 1035 714 1029 714 q 1056 724 1049 717 q 1079 751 1071 735 q 1083 779 1086 764 q 1080 792 1082 786 q 1072 804 1078 799 q 1119 855 1096 829 q 1165 907 1142 881 q 1178 892 1172 899 q 1190 879 1185 885 q 1219 838 1210 861 q 1233 790 1229 815 q 1234 747 1238 768 q 1221 706 1231 726 q 1190 660 1208 681 q 1150 622 1172 640 q 1119 603 1136 610 q 1085 594 1101 597 q 1047 593 1067 593 q 1010 601 1028 593 q 985 606 994 608 q 968 610 975 603 q 955 624 963 617 q 940 638 947 631 q 940 653 929 649 m 393 242 q 345 174 371 207 q 294 106 319 140 l 90 239 q 124 309 107 274 q 157 378 142 344 q 188 428 174 407 q 204 449 203 450 l 353 675 q 356 672 353 675 q 361 678 358 675 q 367 685 364 682 q 381 702 374 694 q 396 718 389 710 q 401 722 399 721 q 407 725 404 724 q 429 736 418 732 q 544 765 486 768 q 657 735 601 761 q 669 728 664 732 q 681 722 675 725 q 721 713 692 725 q 802 660 765 692 q 876 600 839 628 q 981 522 929 563 q 1083 442 1032 482 q 1138 400 1111 421 q 1190 360 1164 379 q 1210 338 1206 350 q 1213 311 1214 326 q 1263 299 1233 310 q 1297 258 1292 289 q 1292 235 1300 251 q 1271 202 1283 219 q 1249 172 1258 185 q 1240 160 1240 160 q 1211 124 1226 142 q 1181 89 1196 107 q 1145 63 1158 61 q 1097 88 1132 64 q 847 289 968 183 q 601 496 726 394 q 586 509 594 503 q 569 522 578 515 q 561 509 565 515 q 554 496 557 503 q 474 369 514 432 q 393 242 433 306 z "},"":{"ha":1389,"x_min":151,"x_max":1239,"o":"m 1208 586 q 1202 555 1208 560 q 1169 547 1196 550 q 1085 542 1128 543 q 1001 540 1043 542 l 1001 538 q 1001 479 1001 508 q 1000 419 1000 450 q 1029 390 1017 407 q 1038 378 1033 385 q 1047 364 1043 371 q 1071 360 1058 363 q 1094 356 1083 358 q 1166 346 1131 350 q 1236 336 1201 342 q 1239 307 1239 328 q 1236 263 1239 286 q 1229 225 1233 240 q 1181 231 1206 228 q 1133 235 1157 233 q 1102 238 1118 238 q 1069 240 1086 239 q 1069 238 1069 239 q 1068 235 1068 238 q 1063 226 1067 229 q 1054 226 1060 222 q 1031 235 1043 236 q 1006 236 1018 235 q 957 246 982 243 q 907 253 932 249 q 805 274 856 264 q 701 294 754 285 q 708 315 704 306 q 713 333 711 324 q 734 382 718 361 q 769 421 750 403 q 818 447 789 439 q 815 485 817 467 q 811 521 814 503 l 811 542 q 789 541 800 542 q 767 540 778 540 l 718 540 q 713 563 717 551 q 710 583 710 574 q 709 633 708 608 q 710 682 710 657 q 715 706 710 700 q 738 717 719 711 q 774 724 756 724 q 811 726 793 725 l 811 863 l 671 863 l 671 1042 q 690 1043 681 1043 q 707 1043 699 1043 q 841 1045 774 1044 q 975 1046 908 1046 q 1050 1044 1013 1046 q 1126 1042 1088 1043 l 1126 876 q 1063 870 1094 874 q 999 864 1031 867 q 1000 800 1000 832 q 1000 736 1000 768 q 1010 736 1006 736 q 1019 738 1015 736 q 1063 740 1042 739 q 1104 742 1083 740 q 1133 725 1124 743 q 1163 742 1144 735 q 1196 735 1181 749 q 1203 711 1201 732 q 1207 672 1206 690 q 1208 653 1208 653 l 1208 586 m 160 283 q 154 315 157 299 q 153 349 151 332 q 158 360 153 354 q 155 452 157 407 q 153 540 153 497 q 157 921 153 732 q 157 945 157 932 q 158 971 157 958 l 411 971 l 411 629 q 413 597 413 629 q 411 521 414 564 q 403 447 407 485 q 396 369 400 408 l 511 369 l 521 21 q 501 22 511 22 q 481 24 492 22 q 321 67 393 32 q 200 178 249 101 q 191 192 196 185 q 182 207 186 200 q 174 222 176 213 q 167 253 171 238 q 160 283 163 268 m 1081 201 q 1092 200 1086 200 q 1106 199 1097 200 q 1109 194 1107 197 q 1110 188 1111 192 q 1101 153 1107 169 q 1095 137 1099 144 q 1089 122 1092 129 q 1083 114 1086 115 q 1078 106 1081 110 q 1072 100 1075 103 q 1000 49 1042 61 q 911 38 958 36 q 872 42 892 39 q 833 53 853 46 q 830 55 832 54 q 825 57 828 56 q 797 82 811 69 q 768 108 782 94 q 762 119 764 113 q 757 131 760 125 q 747 163 751 147 q 735 197 742 179 q 731 195 733 196 q 724 192 728 194 q 723 199 724 196 q 724 206 722 203 q 729 231 726 218 q 735 257 732 243 q 738 268 736 264 q 749 274 740 272 q 764 257 764 274 q 767 251 764 257 q 798 247 782 250 q 829 242 814 244 q 948 224 889 232 q 1067 206 1007 215 q 1073 203 1069 204 q 1081 201 1076 201 z "},"":{"ha":1389,"x_min":68,"x_max":1357,"o":"m 1171 783 q 1174 778 1174 782 q 1176 772 1175 775 q 1190 753 1181 765 q 1190 748 1190 751 q 1186 743 1189 744 q 1172 734 1179 738 q 1156 728 1164 731 q 1141 722 1149 725 q 1126 717 1133 719 q 1118 715 1124 715 l 1100 715 q 1022 735 1056 714 q 960 790 988 756 q 950 804 954 797 q 940 818 946 811 q 928 816 935 817 q 915 815 922 815 q 916 751 915 783 q 917 686 917 718 q 926 688 922 688 q 936 688 931 688 q 979 690 958 689 q 1019 692 1000 690 q 1050 675 1039 696 q 1079 692 1061 685 q 1111 686 1097 700 q 1119 662 1117 682 q 1124 623 1122 642 q 1125 604 1125 604 l 1125 538 q 1119 506 1125 511 q 1085 497 1113 500 q 1001 493 1043 494 q 918 492 960 492 l 918 489 q 917 430 918 460 q 915 369 917 400 q 932 356 924 364 q 946 340 940 349 q 964 315 954 331 q 988 311 975 314 q 1011 307 1000 308 q 1083 297 1047 301 q 1153 288 1118 293 q 1155 258 1156 279 q 1151 214 1154 238 q 1144 175 1149 190 q 1098 181 1122 178 q 1050 186 1074 185 q 1018 190 1035 189 q 986 192 1001 190 q 985 189 986 190 q 985 186 985 188 q 980 177 983 181 q 971 178 976 174 q 947 186 960 188 q 922 188 933 185 q 874 197 899 194 q 824 204 849 200 q 722 225 772 214 q 617 246 671 236 q 629 283 625 267 q 651 333 635 311 q 686 372 667 354 q 709 388 697 382 q 733 399 721 394 q 731 436 732 418 q 728 472 729 454 q 728 482 728 478 q 726 492 728 486 l 635 492 q 630 514 633 503 q 626 535 626 525 q 626 584 625 560 q 626 633 626 608 q 631 656 626 650 q 653 668 636 663 q 691 675 672 674 q 728 676 710 676 l 728 814 l 588 814 l 588 992 q 606 993 597 993 q 622 993 615 993 q 758 995 690 994 q 892 996 825 996 q 924 996 907 996 q 956 994 940 996 q 960 1003 958 999 q 964 1010 963 1007 q 954 1014 961 1013 q 959 1019 957 1017 q 964 1024 961 1022 q 985 1035 975 1029 q 1006 1046 996 1040 q 1016 1051 1011 1049 q 1026 1046 1021 1053 q 1024 1025 1036 1038 q 1024 1024 1024 1025 q 1022 1021 1024 1024 l 1039 992 l 1043 992 l 1043 986 q 1048 979 1046 983 q 1053 971 1050 975 q 1112 877 1082 924 q 1171 783 1142 831 m 1293 972 q 1326 930 1313 953 q 1350 881 1340 907 q 1357 845 1357 863 q 1354 811 1357 828 q 1345 776 1351 793 q 1325 743 1339 758 q 1317 733 1321 739 q 1314 721 1314 728 q 1304 708 1314 710 q 1288 699 1296 704 q 1269 690 1279 694 q 1260 688 1265 688 q 1256 694 1256 689 q 1247 717 1254 708 q 1233 735 1239 725 q 1210 774 1224 756 q 1185 814 1196 793 q 1138 897 1161 854 q 1089 982 1114 939 q 1107 990 1099 986 q 1122 997 1115 993 q 1170 1013 1146 1011 q 1219 1011 1194 1014 q 1293 972 1260 1006 m 69 299 q 74 311 69 306 q 71 403 72 357 q 69 492 69 449 q 74 872 69 683 q 74 896 74 883 q 75 922 74 908 l 328 922 l 328 579 q 330 547 329 579 q 328 472 331 515 q 319 397 324 435 q 313 319 315 358 q 369 320 340 319 q 428 321 399 321 l 438 -26 q 417 -26 428 -26 q 396 -25 407 -25 q 237 19 310 -15 q 117 129 164 53 q 107 144 111 136 q 99 157 103 151 q 90 174 93 165 q 83 203 86 189 q 76 233 79 218 q 71 266 74 250 q 69 299 68 282 m 674 82 q 663 114 668 97 q 651 149 657 131 q 640 142 646 146 q 640 151 640 147 q 640 157 639 154 q 646 182 643 169 q 651 208 649 194 q 655 219 653 214 q 665 224 657 224 q 681 208 678 225 q 683 203 681 208 q 714 197 699 200 q 746 192 729 194 q 865 174 806 183 q 983 157 924 165 q 990 154 986 156 q 996 151 993 153 q 1008 151 1001 151 q 1022 150 1014 151 q 1025 145 1022 149 q 1026 139 1028 142 q 1018 104 1025 121 q 1012 88 1015 96 q 1006 72 1008 81 q 1000 64 1003 67 q 994 58 997 61 q 988 50 990 54 q 916 0 957 13 q 828 -11 875 -12 q 788 -6 808 -10 q 749 4 768 -3 q 742 7 747 4 q 713 33 728 21 q 685 58 699 44 q 678 69 681 63 q 674 82 676 76 z "},"":{"ha":1389,"x_min":58,"x_max":1322,"o":"m 1051 833 l 1060 825 l 1061 825 q 1035 793 1049 810 q 1010 761 1022 776 q 1006 758 1008 760 q 1000 753 1003 756 q 994 744 997 749 q 986 733 990 740 q 981 733 985 733 q 975 735 978 733 q 963 747 968 740 q 951 758 957 753 q 941 772 946 765 q 931 783 936 778 l 926 792 l 924 804 q 914 803 918 804 q 906 803 910 803 q 906 739 906 771 q 907 675 907 707 l 926 675 q 969 677 949 676 q 1010 681 990 678 q 1040 663 1029 682 q 1069 680 1051 672 q 1101 674 1088 688 q 1110 649 1107 669 q 1114 610 1113 629 q 1115 592 1115 592 l 1115 525 q 1109 493 1115 499 q 1075 485 1103 488 q 992 481 1033 482 q 908 479 950 479 l 908 476 q 908 417 908 447 q 906 357 907 388 q 922 344 914 351 q 936 328 931 336 q 954 303 944 318 q 978 299 965 301 q 1001 294 990 297 q 1073 285 1038 289 q 1143 275 1108 281 q 1145 246 1146 267 q 1142 201 1144 225 q 1135 163 1139 178 q 1088 169 1113 165 q 1040 174 1064 172 q 1008 177 1025 176 q 976 179 992 178 q 976 176 976 178 q 975 174 975 175 q 970 165 974 168 q 961 165 967 161 q 937 174 950 175 q 913 175 924 172 q 864 185 889 182 q 814 192 839 188 q 712 213 763 201 q 607 233 661 224 q 619 271 615 254 q 641 320 625 299 q 676 360 657 342 q 699 376 688 369 q 724 386 711 382 q 721 424 722 406 q 718 460 719 442 q 718 470 718 465 q 717 479 718 475 l 625 479 q 620 501 624 490 q 617 522 617 513 q 616 572 615 547 q 617 621 617 596 q 622 644 617 638 q 643 656 626 650 q 681 663 663 661 q 718 664 700 664 l 718 801 l 578 801 l 578 979 q 597 981 588 981 q 613 981 606 981 q 748 983 681 982 q 882 985 815 985 q 920 984 901 985 q 958 982 939 983 q 977 1004 967 993 q 999 1024 988 1015 q 1006 1028 1001 1028 q 1040 1040 1022 1035 q 1075 1050 1057 1046 q 1087 1051 1081 1051 q 1099 1049 1093 1050 q 1130 1042 1114 1046 q 1163 1035 1146 1038 q 1163 1039 1163 1036 q 1164 1046 1163 1042 q 1170 1043 1167 1044 q 1175 1039 1174 1042 q 1193 1023 1185 1032 q 1211 1006 1201 1014 q 1218 998 1215 1003 q 1218 986 1221 993 q 1197 982 1211 975 l 1192 982 q 1172 960 1182 972 q 1153 936 1163 949 q 1143 925 1147 931 q 1133 914 1139 919 q 1131 917 1131 917 q 1128 924 1132 921 l 1117 935 q 1114 935 1115 936 q 1113 933 1113 933 l 1092 938 q 1088 938 1090 938 q 1083 938 1086 939 q 1072 935 1078 936 q 1060 931 1067 933 q 1059 931 1060 931 q 1058 929 1058 931 q 1042 911 1049 924 q 1031 886 1033 899 q 1033 858 1028 874 q 1035 853 1033 854 q 1036 850 1035 851 q 1039 847 1038 849 q 1042 842 1040 844 l 1050 833 l 1051 833 m 1143 857 q 1147 885 1151 872 q 1195 939 1171 913 q 1244 993 1219 965 q 1258 978 1251 985 q 1269 964 1264 971 q 1299 924 1290 947 q 1314 875 1308 900 q 1300 792 1322 833 q 1270 745 1288 765 q 1231 708 1253 725 q 1164 681 1201 685 q 1127 679 1146 679 q 1089 688 1108 679 q 1077 692 1083 690 q 1064 692 1071 693 q 1049 696 1056 688 q 1034 710 1042 703 q 1019 724 1026 717 q 1019 739 1008 735 q 1038 755 1032 744 q 1051 774 1043 765 q 1072 797 1063 785 q 1090 819 1081 808 q 1095 820 1093 819 q 1099 821 1097 821 q 1119 829 1111 821 q 1133 842 1126 836 q 1143 857 1139 849 m 428 -39 q 408 -38 418 -39 q 386 -37 397 -37 q 227 6 300 -28 q 107 117 154 40 q 97 131 101 124 q 89 144 93 139 q 81 161 83 153 q 73 192 76 176 q 67 221 69 207 q 61 253 64 238 q 60 286 58 269 q 61 292 60 289 q 64 299 63 296 q 61 390 63 344 q 60 479 60 436 q 64 860 60 671 q 64 883 64 871 q 65 910 64 896 l 318 910 l 318 567 q 320 535 319 567 q 318 460 321 503 q 310 384 314 422 q 303 307 306 346 q 360 308 331 308 q 418 308 389 308 l 428 -39 m 978 38 q 906 -12 947 0 q 818 -24 865 -25 q 739 -7 779 -21 q 732 -4 738 -7 q 703 20 718 8 q 675 46 689 32 q 669 57 671 50 q 664 69 667 64 q 653 101 658 85 q 642 136 647 118 q 631 129 636 133 q 630 138 631 135 q 631 144 629 142 q 636 169 633 157 q 642 196 639 182 q 645 206 643 201 q 656 211 647 211 q 671 196 671 213 q 674 190 671 196 q 704 185 689 188 q 736 179 719 182 q 855 162 796 171 q 974 144 914 153 q 980 142 976 143 q 986 140 983 140 q 998 139 992 139 q 1013 138 1004 139 q 1015 133 1013 136 q 1017 126 1018 129 q 1008 92 1015 108 q 1002 76 1006 83 q 996 60 999 68 q 990 51 993 54 q 984 45 988 49 q 978 38 981 42 z "},"":{"ha":1389,"x_min":265,"x_max":1138,"o":"m 860 819 l 761 819 l 761 736 q 810 739 786 738 q 858 742 835 740 q 882 738 874 744 q 897 721 890 732 q 934 742 911 732 q 976 733 957 751 q 984 713 981 729 q 990 678 988 697 q 992 644 992 658 q 993 629 993 629 l 993 543 q 985 503 993 510 q 942 493 976 496 q 852 488 897 490 q 761 486 807 486 l 761 360 q 844 347 807 354 q 878 338 881 340 q 944 321 910 321 q 1006 304 979 321 q 1046 290 1025 293 q 1086 285 1067 288 q 1121 268 1106 282 l 1092 78 q 1069 79 1079 79 q 1050 82 1060 79 q 986 97 1018 89 q 922 110 954 104 q 881 117 901 114 q 842 125 861 121 q 831 126 836 126 q 821 128 825 126 q 740 153 781 144 q 738 145 739 149 q 739 136 738 142 q 731 117 742 126 q 708 101 719 110 q 686 83 697 92 q 674 77 681 78 q 664 83 667 76 q 646 107 660 100 q 621 124 632 114 q 576 164 600 146 q 528 203 551 182 q 434 287 481 244 q 339 374 388 329 q 363 389 351 382 q 383 404 374 396 q 446 438 411 428 q 515 454 481 449 q 533 456 524 456 q 550 456 542 457 l 550 486 l 367 486 q 360 514 365 501 q 356 540 356 526 q 355 603 354 572 q 356 667 356 635 q 362 697 356 689 q 390 711 368 704 q 467 722 429 722 q 544 725 506 722 l 547 725 l 546 819 q 409 819 478 818 q 272 815 340 821 l 272 1028 l 543 1031 l 543 1131 q 577 1133 550 1133 q 640 1133 604 1133 q 710 1133 676 1133 q 765 1135 744 1133 l 764 1032 l 1133 1036 q 1136 1002 1136 1029 q 1136 939 1136 975 q 1136 869 1136 903 q 1138 815 1136 836 l 860 819 m 267 144 q 269 160 265 151 q 274 174 272 168 q 288 213 281 193 q 303 254 296 233 l 286 254 q 291 263 289 260 q 297 269 293 267 q 323 291 310 281 q 350 313 336 301 q 363 322 357 318 q 378 319 368 325 q 382 294 393 311 q 381 286 382 292 q 410 263 394 275 q 439 238 425 250 q 553 145 496 192 q 665 53 610 99 q 671 47 668 50 q 676 40 674 43 q 688 33 682 36 q 703 22 693 29 q 702 16 703 21 q 699 8 701 11 q 681 -6 690 1 q 661 -19 671 -12 q 642 -31 651 -25 q 624 -43 633 -36 q 617 -45 621 -44 q 610 -47 613 -46 q 599 -50 604 -49 q 586 -54 593 -51 q 467 -59 522 -72 q 364 -15 413 -46 q 325 15 343 -1 q 293 50 307 31 q 288 58 288 53 q 276 101 282 79 q 267 144 271 122 z "}}}
